<svg xmlns="http://www.w3.org/2000/svg" viewBox="0 0 1835.56 1830"><defs><style>.cls-1{fill:#f2e6dc;}.cls-2{fill:#fff;}.cls-3{fill:#f7f1eb;}.cls-4{fill:#8b865c;}.cls-5{fill:#e6d0be;}.cls-6{fill:#d3bba3;}.cls-7{fill:#84524d;}.cls-8{fill:#363e44;}.cls-9{fill:#efbc73;}.cls-10{fill:#40484c;}</style></defs><g id="Layer_2" data-name="Layer 2"><g id="Illustration"><g id="Responsive_web_design" data-name="Responsive web design"><circle class="cls-1" cx="915" cy="915" r="915"/><rect class="cls-2" x="278.49" y="130.07" width="1409.24" height="999.31" transform="translate(1966.23 1259.46) rotate(180)"/><rect class="cls-3" x="570.5" y="-73.51" width="825.23" height="1320.82" transform="translate(1570.01 -396.21) rotate(90)"/><path class="cls-2" d="M834.77,1150.56h41.72a56.67,56.67,0,0,0,56.67,56.66h99.91a56.66,56.66,0,0,0,56.66-56.66h41.72l41.73,221.72v18.54H793.05v-18.54Z"/><path class="cls-2" d="M1173.18,1416.2H793.05a2.21,2.21,0,0,1,0-4.41h380.13a2.21,2.21,0,0,1,0,4.41Z"/><rect class="cls-1" x="371.31" y="595.17" width="856.53" height="343.93"/><rect class="cls-1" x="1277.41" y="595.17" width="317.51" height="343.93"/><path class="cls-4" d="M1594.92,557.69H371.31a2.21,2.21,0,0,1-2.21-2.21V234.7a2.21,2.21,0,0,1,2.21-2.21H1594.92a2.21,2.21,0,0,1,2.21,2.21V555.48A2.21,2.21,0,0,1,1594.92,557.69ZM373.51,553.28H1592.72V236.9H373.51Z"/><path class="cls-4" d="M1532.56,301.35H1259.38a2.21,2.21,0,1,1,0-4.41h273.18a2.21,2.21,0,1,1,0,4.41Z"/><path class="cls-4" d="M1532.56,344.88H1213.29a2.21,2.21,0,0,1,0-4.41h319.27a2.21,2.21,0,1,1,0,4.41Z"/><path class="cls-4" d="M1532.56,388.4H1213.29a2.21,2.21,0,0,1,0-4.41h319.27a2.21,2.21,0,1,1,0,4.41Z"/><circle class="cls-2" cx="1436.17" cy="767.14" r="36.32" transform="translate(313.5 1946.42) rotate(-74.52)"/><path class="cls-5" d="M1797.05,1660.45H1272.6V671h118.18c10,32.15,38.33,53.84,70.2,53.84h147.68c31.84,0,60.11-21.66,70.18-53.78l0-.06h118.19Z"/><path class="cls-6" d="M1777.67,1721.08H1288.35a58,58,0,0,1-57.89-57.89V658.9A58,58,0,0,1,1288.35,601h489.32a58,58,0,0,1,57.89,57.89V1663.19A58,58,0,0,1,1777.67,1721.08ZM1288.35,605.42a53.54,53.54,0,0,0-53.48,53.48V1663.19a53.54,53.54,0,0,0,53.48,53.48h489.32a53.54,53.54,0,0,0,53.48-53.48V658.9a53.54,53.54,0,0,0-53.48-53.48Z"/><path class="cls-4" d="M1770.36,1374.4h-474.7a2.21,2.21,0,0,1-2.21-2.2V1004.07a2.21,2.21,0,0,1,2.21-2.21h474.7a2.2,2.2,0,0,1,2.2,2.21V1372.2A2.2,2.2,0,0,1,1770.36,1374.4Zm-472.5-4.41h470.29V1006.27H1297.86Z"/><rect class="cls-1" x="1295.66" y="762.64" width="474.7" height="214.89"/><rect class="cls-1" x="1295.66" y="1398.73" width="474.7" height="214.89"/><path class="cls-4" d="M1722.57,1058.55h-214a2.21,2.21,0,1,1,0-4.41h214a2.21,2.21,0,0,1,0,4.41Z"/><path class="cls-4" d="M1722.57,1102.07H1472.46a2.21,2.21,0,0,1,0-4.41h250.11a2.21,2.21,0,0,1,0,4.41Z"/><path class="cls-4" d="M1722.57,1145.6H1472.46a2.21,2.21,0,0,1,0-4.41h250.11a2.21,2.21,0,0,1,0,4.41Z"/><path class="cls-7" d="M717.08,856.79c-21.76-45.76-38.48-70.51-67.66-80.73-39.21-13.73-77.12,11.85-81,14.58-2.5,1.74-39.56,24.38-41.67,68-1.52,31.44,9.14,62.66,29.19,85.88a49.11,49.11,0,0,1,5.21,57.22L493,1116.2a55.41,55.41,0,0,0,60.74,49.52l6.9-.7c30.45-3.1,91.23-26.51,88.13-57l53.53-121.8c19.15-3.58,33.86-10.73,39-21.14C750.5,946.48,742.71,910.68,717.08,856.79Z"/><path class="cls-8" d="M703,986.88a1.72,1.72,0,0,1-.39,0l-23.53-4.28a2.21,2.21,0,0,1,.79-4.34l23.53,4.28a2.21,2.21,0,0,1-.4,4.38Z"/><path class="cls-8" d="M664.37,920.74a2.17,2.17,0,0,1-1.47-.56c-2.94-2.61-5.56-5-8.29-7.57-2.23-2.06-4.53-4.19-7.13-6.53a2.21,2.21,0,0,1,3-3.27c2.61,2.35,4.92,4.49,7.16,6.56,2.71,2.51,5.32,4.92,8.23,7.52a2.2,2.2,0,0,1-1.46,3.85Z"/><path class="cls-8" d="M469.57,885.5a46,46,0,0,1,29.15-58.16l.11,0a39.54,39.54,0,0,1,29.51-66.59,39.55,39.55,0,0,1,58.35-44.37,46.11,46.11,0,0,1,87.63-5.44c1.08-.47,2.18-.91,3.33-1.29a39.61,39.61,0,0,1,25,75.18c-.6.2-1.2.33-1.81.5,9.31,37.56-28.15,54.55-30.27,55.87l29.58,46.14c-5.82,3.91-12.65,9-18.47,12.92-9.45-16.46-18.64-21.05-29.06-19.59-16.4,2.29-26.3,21.18-22.81,36.85,3.19,14.29,12.88,27.2,28.63,30.68-15.6,5.45-32.08,10.7-49.43,15.6q-13.57,3.84-26.65,7.07c-6.28-1.71-46.89-13.54-67.3-53.89A46,46,0,0,1,469.57,885.5Z"/><path class="cls-9" d="M303.71,890.79s88.66,51.9,160.61,85.75c71,33.42,380.3,211.11,380.3,211.11l-85.86,290.88L631.3,1785.17c-249.13-80.84-457.12-263.7-552.11-491.68L176.49,1119Z"/><rect class="cls-8" x="829.12" y="1178.66" width="599.76" height="406.39" transform="translate(2745.45 626.04) rotate(104.19)"/><circle class="cls-10" cx="1129" cy="1381.86" r="45.89" transform="translate(-548.45 773.3) rotate(-30.81)"/><path class="cls-7" d="M1387.5,1474.49c-2.84-7.28-10.14-12.41-18.65-13.48.77-.67,11.14-10,9.23-23.78a27,27,0,0,0-20.13-22.11c4.85-9.12,5.33-19.33.69-26.62-14-21.9-88.67,8.61-124.1,21.94-15.64,5.88-148.62,58.09-240.95,94.43l-9.53-44.12c-91.95,31.85-198.79,60.53-198.79,60.53,19,112.31,62.13,166.3,62.13,166.3h0c41.43,47.89,95.91,45.42,123.25,37.48,70.47-20.48,132.95-44.57,266.78-111.18,57-28.37,103-54.89,134.48-66.76,9.84-6.41,15-17.34,13.19-27.65-1.67-9.3-8.45-14.7-10.41-16.15C1386.35,1497.47,1391.41,1484.54,1387.5,1474.49Z"/><path class="cls-8" d="M935.65,1528.93a2.2,2.2,0,0,1-.76-4.27c16.81-6.23,53.87-20.31,89.71-33.93s72.92-27.71,89.75-33.94a2.2,2.2,0,1,1,1.53,4.13c-16.81,6.23-53.87,20.31-89.71,33.93s-72.92,27.71-89.75,33.94A2.06,2.06,0,0,1,935.65,1528.93Z"/><path class="cls-8" d="M1312.86,1420.7a2.21,2.21,0,0,1-2.11-1.57l-4.83-15.94a2.2,2.2,0,0,1,4.22-1.28l4.83,15.94a2.21,2.21,0,0,1-1.47,2.75A2.08,2.08,0,0,1,1312.86,1420.7Z"/><path class="cls-8" d="M1325.18,1461.13a2.2,2.2,0,0,1-2.11-1.57l-4.84-15.94a2.2,2.2,0,0,1,4.22-1.28l4.84,15.94a2.21,2.21,0,0,1-1.47,2.75A2.08,2.08,0,0,1,1325.18,1461.13Z"/><path class="cls-8" d="M1338.17,1502.16a2.21,2.21,0,0,1-2.11-1.56l-4.83-15.95a2.2,2.2,0,0,1,4.22-1.27l4.83,15.94a2.2,2.2,0,0,1-1.47,2.75A2.3,2.3,0,0,1,1338.17,1502.16Z"/><path class="cls-8" d="M1349.19,1539.62a2.2,2.2,0,0,1-2.1-1.57l-4.84-15.94a2.2,2.2,0,0,1,4.22-1.28l4.84,15.94a2.21,2.21,0,0,1-1.48,2.75A2,2,0,0,1,1349.19,1539.62Z"/><path class="cls-9" d="M749.13,1566.9l276.25-90.33s-13-205.39-229.47-318c-137.64-71.57-108.7,327.1-108.7,327.1Z"/><path class="cls-8" d="M725.68,1523.68a2.18,2.18,0,0,1-1.91-1.12l-40.18-70.51a2.21,2.21,0,1,1,3.83-2.19l40.18,70.52a2.21,2.21,0,0,1-1.92,3.3Z"/><path class="cls-7" d="M343.61,729.43s126-102.1,211.49-126.49c171-48.77,205.22-114.3,189.85-128.11-16.68-15-41.33,11-59.86,22,1-3.59,1.79-14.64-6.2-22.33-11.82-11.39-23.62-5.83-24.91-5.76.44-1.19,4.77-14.07-1.93-22.93-7.56-10-18-12.49-27.17-10.7,1-3,3.47-14.39-3.21-22.73-6.88-8.58-18.89-10.29-29.32-7.68-49.78,12.46-87.52,18.95-114,30.55-52.09,22.82-229.75,99.43-294.77,152.84-43.28,44.9,2.45,124.36,71,150.54C297.69,755.14,343.61,729.43,343.61,729.43Z"/><path class="cls-8" d="M590.89,441.09a2.22,2.22,0,0,1-1.72-.82L578,426.44a2.2,2.2,0,0,1,3.43-2.77l11.2,13.82a2.21,2.21,0,0,1-.33,3.11A2.16,2.16,0,0,1,590.89,441.09Z"/><path class="cls-8" d="M619.25,476.32a2.18,2.18,0,0,1-1.67-.77l-13.13-15.26a2.21,2.21,0,1,1,3.34-2.88l13.13,15.27a2.19,2.19,0,0,1-.24,3.1A2.16,2.16,0,0,1,619.25,476.32Z"/><path class="cls-8" d="M648,509.26a2.18,2.18,0,0,1-1.71-.82c-2.08-2.57-4-4.88-5.87-7.18s-3.82-4.65-5.91-7.24a2.21,2.21,0,0,1,3.43-2.78c2.09,2.59,4,4.9,5.89,7.22s3.8,4.63,5.89,7.21a2.21,2.21,0,0,1-1.72,3.59Z"/><path class="cls-8" d="M668.52,539.2a2.2,2.2,0,0,1-1.8-.94l-10.13-14.43a2.2,2.2,0,0,1,3.61-2.53l10.13,14.43a2.21,2.21,0,0,1-1.81,3.47Z"/><path class="cls-7" d="M359.91,687.07V930.6L135.12,1044.5C130.87,900,132.47,740.43,168,617.19Z"/><path class="cls-9" d="M140.12,1188c-25.05-87.52-25.05-257.44-25.05-257.44l256.55-91L398,943.15Z"/><path class="cls-8" d="M140.11,1190.24a2.23,2.23,0,0,1-1.31-.43,2.2,2.2,0,0,1-.46-3.08l79.3-107.14a2.21,2.21,0,0,1,3.55,2.62l-79.3,107.14A2.21,2.21,0,0,1,140.11,1190.24Z"/></g></g></g></svg>