<svg xmlns="http://www.w3.org/2000/svg" xmlns:xlink="http://www.w3.org/1999/xlink" viewBox="0 0 676.81 469.48"><defs><style>.cls-1,.cls-105,.cls-22,.cls-3,.cls-38,.cls-39,.cls-4,.cls-5,.cls-52,.cls-62,.cls-63,.cls-64,.cls-65,.cls-66,.cls-67,.cls-83,.cls-98{fill:none;}.cls-2{isolation:isolate;}.cls-105,.cls-22,.cls-3,.cls-38,.cls-39,.cls-4,.cls-5,.cls-52,.cls-83{stroke:#cd86f2;}.cls-105,.cls-22,.cls-3,.cls-39,.cls-4,.cls-5,.cls-52,.cls-83{stroke-linecap:round;stroke-linejoin:round;}.cls-3{stroke-width:0.55px;}.cls-4{stroke-width:0.4px;}.cls-5{stroke-width:0.48px;}.cls-6{fill:#cd86f2;opacity:0.15;}.cls-7{fill:url(#linear-gradient);}.cls-11,.cls-21,.cls-25,.cls-42,.cls-55,.cls-71,.cls-8,.cls-90,.cls-91,.cls-96,.cls-97{opacity:0.3;}.cls-10,.cls-101,.cls-102,.cls-103,.cls-108,.cls-11,.cls-113,.cls-114,.cls-115,.cls-14,.cls-19,.cls-25,.cls-30,.cls-34,.cls-35,.cls-36,.cls-42,.cls-45,.cls-48,.cls-49,.cls-50,.cls-55,.cls-58,.cls-59,.cls-60,.cls-71,.cls-79,.cls-8,.cls-80,.cls-81,.cls-86,.cls-90,.cls-91,.cls-96,.cls-97{mix-blend-mode:multiply;}.cls-8{fill:url(#linear-gradient-2);}.cls-9{fill:url(#linear-gradient-3);}.cls-10,.cls-101,.cls-102,.cls-108,.cls-113,.cls-114,.cls-14,.cls-30,.cls-34,.cls-35,.cls-45,.cls-48,.cls-49,.cls-58,.cls-59,.cls-79,.cls-80,.cls-86{opacity:0.5;}.cls-10{fill:url(#linear-gradient-4);}.cls-11{fill:url(#linear-gradient-5);}.cls-12{fill:url(#linear-gradient-6);}.cls-13{fill:url(#linear-gradient-7);}.cls-14{fill:url(#linear-gradient-8);}.cls-15{fill:url(#linear-gradient-9);}.cls-16{fill:url(#linear-gradient-10);}.cls-17{clip-path:url(#clip-path);}.cls-18,.cls-20,.cls-26,.cls-33{fill:#fff;}.cls-18{opacity:0.1;}.cls-19,.cls-20{font-size:34.96px;}.cls-19{fill:#7ccffc;}.cls-103,.cls-104,.cls-115,.cls-116,.cls-19,.cls-20,.cls-36,.cls-37,.cls-50,.cls-51,.cls-60,.cls-61,.cls-81,.cls-82{font-family:Roboto-Bold, Roboto Bold;font-weight:700;}.cls-22{stroke-width:2.76px;}.cls-23{fill:url(#linear-gradient-11);}.cls-24{fill:url(#linear-gradient-12);}.cls-25{fill:url(#linear-gradient-13);}.cls-27{fill:url(#linear-gradient-14);}.cls-28{fill:url(#linear-gradient-15);}.cls-29,.cls-30{fill:url(#linear-gradient-16);}.cls-31{fill:url(#linear-gradient-18);}.cls-32{clip-path:url(#clip-path-2);}.cls-33{opacity:0.2;}.cls-34{fill:url(#linear-gradient-19);}.cls-35{fill:url(#linear-gradient-20);}.cls-36,.cls-37{font-size:13.53px;}.cls-103,.cls-104,.cls-115,.cls-116,.cls-36,.cls-37,.cls-50,.cls-51,.cls-60,.cls-61,.cls-81,.cls-82{fill:#f9e664;}.cls-38,.cls-62,.cls-63,.cls-64,.cls-65,.cls-66,.cls-67,.cls-98{stroke-miterlimit:10;}.cls-39{stroke-width:2.63px;}.cls-40{fill:url(#linear-gradient-21);}.cls-41{fill:url(#linear-gradient-22);}.cls-42{fill:url(#linear-gradient-23);}.cls-43{fill:url(#linear-gradient-24);}.cls-44,.cls-45{fill:url(#linear-gradient-25);}.cls-46{fill:url(#linear-gradient-27);}.cls-47{clip-path:url(#clip-path-3);}.cls-48{fill:url(#linear-gradient-28);}.cls-49{fill:url(#linear-gradient-29);}.cls-50,.cls-51{font-size:12.24px;}.cls-52{stroke-width:3.38px;}.cls-53{fill:url(#linear-gradient-30);}.cls-54{fill:url(#linear-gradient-31);}.cls-55{fill:url(#linear-gradient-32);}.cls-56{fill:url(#linear-gradient-33);}.cls-57{clip-path:url(#clip-path-4);}.cls-58{fill:url(#linear-gradient-34);}.cls-59{fill:url(#linear-gradient-35);}.cls-60,.cls-61{font-size:16.22px;}.cls-62,.cls-63,.cls-64,.cls-65,.cls-66,.cls-67{stroke-width:0.65px;}.cls-62{stroke:url(#linear-gradient-36);}.cls-63{stroke:url(#linear-gradient-37);}.cls-64{stroke:url(#linear-gradient-38);}.cls-65{stroke:url(#linear-gradient-39);}.cls-66{stroke:url(#linear-gradient-40);}.cls-67{stroke:url(#linear-gradient-41);}.cls-68{fill:url(#linear-gradient-42);}.cls-69{fill:url(#linear-gradient-43);}.cls-70{fill:url(#linear-gradient-44);}.cls-71{fill:url(#linear-gradient-45);}.cls-72{fill:url(#linear-gradient-46);}.cls-73{fill:url(#linear-gradient-47);}.cls-74{fill:url(#linear-gradient-48);}.cls-75{fill:url(#linear-gradient-49);}.cls-76{fill:url(#linear-gradient-50);}.cls-77{fill:url(#linear-gradient-51);}.cls-78{clip-path:url(#clip-path-5);}.cls-79{fill:url(#linear-gradient-52);}.cls-80{fill:url(#linear-gradient-53);}.cls-81,.cls-82{font-size:16.88px;}.cls-83{stroke-width:2.89px;}.cls-84{fill:url(#linear-gradient-54);}.cls-85{fill:url(#linear-gradient-55);}.cls-86{fill:url(#linear-gradient-56);}.cls-87{fill:url(#linear-gradient-57);}.cls-88{fill:url(#linear-gradient-58);}.cls-89{fill:url(#linear-gradient-59);}.cls-90{fill:url(#linear-gradient-60);}.cls-92{fill:url(#linear-gradient-61);}.cls-93{fill:url(#linear-gradient-62);}.cls-94{fill:url(#linear-gradient-63);}.cls-95{fill:url(#linear-gradient-64);}.cls-96{fill:url(#linear-gradient-65);}.cls-97{fill:url(#linear-gradient-66);}.cls-98{stroke-width:0.88px;stroke:url(#linear-gradient-67);}.cls-99{fill:url(#linear-gradient-68);}.cls-100{clip-path:url(#clip-path-6);}.cls-101{fill:url(#linear-gradient-69);}.cls-102{fill:url(#linear-gradient-70);}.cls-103,.cls-104{font-size:12.79px;}.cls-105{stroke-width:3.08px;}.cls-106{fill:url(#linear-gradient-71);}.cls-107{fill:url(#linear-gradient-72);}.cls-108{fill:url(#linear-gradient-73);}.cls-109{fill:url(#linear-gradient-74);}.cls-110{fill:url(#linear-gradient-75);}.cls-111{fill:url(#linear-gradient-76);}.cls-112{clip-path:url(#clip-path-7);}.cls-113{fill:url(#linear-gradient-77);}.cls-114{fill:url(#linear-gradient-78);}.cls-115,.cls-116{font-size:14.77px;}</style><linearGradient id="linear-gradient" x1="336.87" y1="191.59" x2="390.36" y2="191.59" gradientUnits="userSpaceOnUse"><stop offset="0" stop-color="#f4c551"/><stop offset="1" stop-color="#f9e664"/></linearGradient><linearGradient id="linear-gradient-2" x1="351.62" y1="150.55" x2="364.87" y2="252.55" xlink:href="#linear-gradient"/><linearGradient id="linear-gradient-3" x1="323.42" y1="125.45" x2="308.67" y2="255.7" xlink:href="#linear-gradient"/><linearGradient id="linear-gradient-4" x1="352.71" y1="178.44" x2="366.21" y2="258.19" xlink:href="#linear-gradient"/><linearGradient id="linear-gradient-5" x1="323.18" y1="173.34" x2="306.93" y2="259.84" xlink:href="#linear-gradient"/><linearGradient id="linear-gradient-6" x1="316.43" y1="351.83" x2="310.68" y2="261.08" xlink:href="#linear-gradient"/><linearGradient id="linear-gradient-7" x1="336.87" y1="286.35" x2="390.36" y2="286.35" xlink:href="#linear-gradient"/><linearGradient id="linear-gradient-8" x1="349.43" y1="336.27" x2="366.43" y2="235.52" xlink:href="#linear-gradient"/><linearGradient id="linear-gradient-9" x1="282.23" y1="156.17" x2="430.06" y2="209.49" gradientUnits="userSpaceOnUse"><stop offset="0" stop-color="#2ea0f8"/><stop offset="1" stop-color="#004aa7"/></linearGradient><linearGradient id="linear-gradient-10" x1="336.36" y1="202.66" x2="342.36" y2="143.99" gradientUnits="userSpaceOnUse"><stop offset="0" stop-color="#7ccffc"/><stop offset="1" stop-color="#2ea0f8"/></linearGradient><clipPath id="clip-path"><rect class="cls-1" x="280.88" y="154.86" width="116.68" height="39.77" rx="7.29"/></clipPath><linearGradient id="linear-gradient-11" x1="136.62" y1="389.94" x2="230.05" y2="389.94" xlink:href="#linear-gradient-9"/><linearGradient id="linear-gradient-12" x1="131.58" y1="389.68" x2="225" y2="389.68" xlink:href="#linear-gradient-10"/><linearGradient id="linear-gradient-13" x1="139.62" y1="385.99" x2="220.71" y2="385.99" xlink:href="#linear-gradient-10"/><linearGradient id="linear-gradient-14" x1="179.63" y1="440.87" x2="176.96" y2="378.2" gradientUnits="userSpaceOnUse"><stop offset="0" stop-color="#270a56"/><stop offset="1" stop-color="#7f31a3"/></linearGradient><linearGradient id="linear-gradient-15" x1="183.93" y1="367.54" x2="197.93" y2="367.54" xlink:href="#linear-gradient"/><linearGradient id="linear-gradient-16" x1="234.17" y1="450.33" x2="200.04" y2="413.55" xlink:href="#linear-gradient"/><linearGradient id="linear-gradient-18" x1="232.43" y1="450.48" x2="198.3" y2="413.7" xlink:href="#linear-gradient"/><clipPath id="clip-path-2"><path class="cls-1" d="M235.75,433.47a19.11,19.11,0,1,1-19.11-19.11A19.1,19.1,0,0,1,235.75,433.47Z"/></clipPath><linearGradient id="linear-gradient-19" x1="229" y1="446.79" x2="202.28" y2="417.99" xlink:href="#linear-gradient"/><linearGradient id="linear-gradient-20" x1="228.12" y1="445.91" x2="211.8" y2="428.31" xlink:href="#linear-gradient"/><linearGradient id="linear-gradient-21" x1="686.07" y1="266.07" x2="549.91" y2="191.82" gradientUnits="userSpaceOnUse"><stop offset="0" stop-color="#df3f5b"/><stop offset="1" stop-color="#fc6383"/></linearGradient><linearGradient id="linear-gradient-22" x1="568.61" y1="227.31" x2="653.15" y2="227.31" xlink:href="#linear-gradient-21"/><linearGradient id="linear-gradient-23" x1="576.19" y1="224.33" x2="649.57" y2="224.33" xlink:href="#linear-gradient-21"/><linearGradient id="linear-gradient-24" x1="584.98" y1="225.59" x2="639.94" y2="225.59" xlink:href="#linear-gradient-21"/><linearGradient id="linear-gradient-25" x1="665.45" y1="286.84" x2="634.56" y2="253.56" xlink:href="#linear-gradient"/><linearGradient id="linear-gradient-27" x1="663.87" y1="286.98" x2="632.99" y2="253.69" xlink:href="#linear-gradient"/><clipPath id="clip-path-3"><path class="cls-1" d="M666.88,271.58a17.3,17.3,0,1,1-17.29-17.29A17.3,17.3,0,0,1,666.88,271.58Z"/></clipPath><linearGradient id="linear-gradient-28" x1="660.77" y1="283.64" x2="636.59" y2="257.58" xlink:href="#linear-gradient"/><linearGradient id="linear-gradient-29" x1="659.97" y1="282.84" x2="645.2" y2="266.92" xlink:href="#linear-gradient"/><linearGradient id="linear-gradient-30" x1="560.01" y1="151.58" x2="525.64" y2="79.43" xlink:href="#linear-gradient-9"/><linearGradient id="linear-gradient-31" x1="520.86" y1="104.05" x2="523.38" y2="22.56" xlink:href="#linear-gradient-10"/><linearGradient id="linear-gradient-32" x1="478.47" y1="81.26" x2="569.03" y2="81.26" xlink:href="#linear-gradient-10"/><linearGradient id="linear-gradient-33" x1="593.09" y1="156.51" x2="552.17" y2="112.4" xlink:href="#linear-gradient"/><clipPath id="clip-path-4"><path class="cls-1" d="M597.08,136.11a22.92,22.92,0,1,1-22.92-22.92A22.92,22.92,0,0,1,597.08,136.11Z"/></clipPath><linearGradient id="linear-gradient-34" x1="588.98" y1="152.08" x2="556.94" y2="117.54" xlink:href="#linear-gradient"/><linearGradient id="linear-gradient-35" x1="587.93" y1="151.02" x2="568.35" y2="129.92" xlink:href="#linear-gradient"/><linearGradient id="linear-gradient-36" x1="537.48" y1="83.07" x2="556.47" y2="83.07" gradientUnits="userSpaceOnUse"><stop offset="0" stop-color="#7f31a3"/><stop offset="1" stop-color="#2c103a"/></linearGradient><linearGradient id="linear-gradient-37" x1="275.31" y1="-36.04" x2="294.3" y2="-36.04" gradientTransform="matrix(0.95, 0.3, -0.3, 0.95, 265.15, 35.78)" xlink:href="#linear-gradient-36"/><linearGradient id="linear-gradient-38" x1="9.6" y1="-68.96" x2="28.58" y2="-68.96" gradientTransform="translate(493.25 138.65) rotate(34.08)" xlink:href="#linear-gradient-36"/><linearGradient id="linear-gradient-39" x1="-663.22" y1="83.07" x2="-644.24" y2="83.07" gradientTransform="matrix(-1, 0, 0, 1, -157.79, 0)" xlink:href="#linear-gradient-36"/><linearGradient id="linear-gradient-40" x1="-868.65" y1="328.59" x2="-849.66" y2="328.59" gradientTransform="matrix(-0.95, 0.3, 0.3, 0.95, -422.95, 35.78)" xlink:href="#linear-gradient-36"/><linearGradient id="linear-gradient-41" x1="-984.86" y1="603.94" x2="-965.87" y2="603.94" gradientTransform="matrix(-0.83, 0.56, 0.56, 0.83, -651.04, 138.65)" xlink:href="#linear-gradient-36"/><linearGradient id="linear-gradient-42" x1="517.91" y1="32.35" x2="522.91" y2="118.35" xlink:href="#linear-gradient-36"/><linearGradient id="linear-gradient-43" x1="123.15" y1="256.14" x2="156.43" y2="269.03" xlink:href="#linear-gradient-21"/><linearGradient id="linear-gradient-44" x1="71.5" y1="260.59" x2="74.13" y2="175.63" xlink:href="#linear-gradient-21"/><linearGradient id="linear-gradient-45" x1="27.42" y1="236.57" x2="122.44" y2="236.57" xlink:href="#linear-gradient-21"/><linearGradient id="linear-gradient-46" x1="26.81" y1="200" x2="121.05" y2="292.48" xlink:href="#linear-gradient-36"/><linearGradient id="linear-gradient-47" x1="45.92" y1="180.52" x2="140.16" y2="273" xlink:href="#linear-gradient-36"/><linearGradient id="linear-gradient-48" x1="11.03" y1="216.08" x2="105.26" y2="308.56" xlink:href="#linear-gradient-36"/><linearGradient id="linear-gradient-49" x1="30.14" y1="196.6" x2="124.38" y2="289.08" xlink:href="#linear-gradient-36"/><linearGradient id="linear-gradient-50" x1="45.1" y1="181.36" x2="139.33" y2="273.84" xlink:href="#linear-gradient-36"/><linearGradient id="linear-gradient-51" x1="142.57" y1="312.32" x2="99.98" y2="266.42" gradientTransform="translate(378.36 105.2) rotate(76.85)" xlink:href="#linear-gradient"/><clipPath id="clip-path-5"><circle class="cls-1" cx="122.87" cy="291.09" r="23.85" transform="translate(-188.55 344.49) rotate(-76.85)"/></clipPath><linearGradient id="linear-gradient-52" x1="138.29" y1="307.71" x2="104.95" y2="271.77" xlink:href="#linear-gradient"/><linearGradient id="linear-gradient-53" x1="137.19" y1="306.61" x2="116.82" y2="284.65" xlink:href="#linear-gradient"/><linearGradient id="linear-gradient-54" x1="186.21" y1="96.12" x2="76.74" y2="15.85" xlink:href="#linear-gradient"/><linearGradient id="linear-gradient-55" x1="162.09" y1="150.87" x2="162.69" y2="36.97" xlink:href="#linear-gradient"/><linearGradient id="linear-gradient-56" x1="128.95" y1="80.62" x2="200.95" y2="80.62" xlink:href="#linear-gradient"/><linearGradient id="linear-gradient-57" x1="181.41" y1="59.03" x2="181.17" y2="111.11" xlink:href="#linear-gradient-36"/><linearGradient id="linear-gradient-58" x1="145.54" y1="58.87" x2="145.3" y2="110.95" xlink:href="#linear-gradient-36"/><linearGradient id="linear-gradient-59" x1="163.52" y1="58.95" x2="163.29" y2="111.03" xlink:href="#linear-gradient-36"/><linearGradient id="linear-gradient-60" x1="181.96" y1="78.62" x2="181.9" y2="90.26" xlink:href="#linear-gradient-36"/><linearGradient id="linear-gradient-61" x1="746.54" y1="576.61" x2="746.52" y2="580.9" gradientTransform="translate(-430.16 830.76) rotate(-90)" xlink:href="#linear-gradient-36"/><linearGradient id="linear-gradient-62" x1="746.54" y1="568.66" x2="746.52" y2="572.95" gradientTransform="translate(-430.16 830.76) rotate(-90)" xlink:href="#linear-gradient-36"/><linearGradient id="linear-gradient-63" x1="250.16" y1="1173.43" x2="250.14" y2="1177.72" gradientTransform="translate(394.77 1255.84) rotate(180)" xlink:href="#linear-gradient-36"/><linearGradient id="linear-gradient-64" x1="250.16" y1="1165.49" x2="250.14" y2="1169.77" gradientTransform="translate(394.77 1255.84) rotate(180)" xlink:href="#linear-gradient-36"/><linearGradient id="linear-gradient-65" x1="157.97" y1="87.35" x2="157.95" y2="92.94" xlink:href="#linear-gradient-36"/><linearGradient id="linear-gradient-66" x1="168.67" y1="87.25" x2="168.65" y2="92.83" xlink:href="#linear-gradient-36"/><linearGradient id="linear-gradient-67" x1="145.49" y1="56.84" x2="168.43" y2="56.84" xlink:href="#linear-gradient-36"/><linearGradient id="linear-gradient-68" x1="220.64" y1="136.57" x2="188.37" y2="101.79" xlink:href="#linear-gradient"/><clipPath id="clip-path-6"><path class="cls-1" d="M223.78,120.49a18.07,18.07,0,1,1-18.06-18.07A18.07,18.07,0,0,1,223.78,120.49Z"/></clipPath><linearGradient id="linear-gradient-69" x1="217.4" y1="133.08" x2="192.13" y2="105.85" xlink:href="#linear-gradient"/><linearGradient id="linear-gradient-70" x1="216.57" y1="132.24" x2="201.13" y2="115.61" xlink:href="#linear-gradient"/><linearGradient id="linear-gradient-71" x1="533.23" y1="403.81" x2="548.01" y2="495.32" gradientUnits="userSpaceOnUse"><stop offset="0.35" stop-color="#f4c551"/><stop offset="1" stop-color="#f9e664"/></linearGradient><linearGradient id="linear-gradient-72" x1="521.63" y1="477.01" x2="525.66" y2="346.63" xlink:href="#linear-gradient"/><linearGradient id="linear-gradient-73" x1="488" y1="380.79" x2="565.03" y2="380.79" xlink:href="#linear-gradient"/><linearGradient id="linear-gradient-74" x1="522.53" y1="350.06" x2="524.8" y2="428.59" xlink:href="#linear-gradient-36"/><linearGradient id="linear-gradient-75" x1="521.17" y1="350.1" x2="523.45" y2="428.63" xlink:href="#linear-gradient-36"/><linearGradient id="linear-gradient-76" x1="586.37" y1="443.29" x2="549.11" y2="403.14" xlink:href="#linear-gradient"/><clipPath id="clip-path-7"><circle class="cls-1" cx="569.14" cy="424.72" r="20.87"/></clipPath><linearGradient id="linear-gradient-77" x1="582.64" y1="439.26" x2="553.46" y2="407.82" xlink:href="#linear-gradient"/><linearGradient id="linear-gradient-78" x1="581.67" y1="438.3" x2="563.85" y2="419.09" xlink:href="#linear-gradient"/></defs><g class="cls-2"><g id="Layer_2" data-name="Layer 2"><g id="Objects"><path class="cls-3" d="M660.71,104.66l-11.79-7.39V83.39l11.79,7.39Z"/><path class="cls-3" d="M660.69,104.67l11.78-7.38V83.4l-11.78,7.39Z"/><polygon class="cls-3" points="672.48 83.41 660.7 90.8 648.91 83.41 660.7 76.02 672.48 83.41"/><path class="cls-4" d="M187.87,284l-8.49-5.33v-10l8.49,5.32Z"/><path class="cls-4" d="M187.86,284l8.5-5.32v-10l-8.5,5.32Z"/><polygon class="cls-4" points="196.36 268.7 187.87 274.02 179.37 268.7 187.87 263.38 196.36 268.7"/><path class="cls-4" d="M357.79,29.1l-8.49-5.33v-10l8.49,5.32Z"/><path class="cls-4" d="M357.78,29.11l8.49-5.33v-10l-8.49,5.32Z"/><polygon class="cls-4" points="366.28 13.78 357.78 19.11 349.29 13.78 357.78 8.46 366.28 13.78"/><path class="cls-4" d="M676.6,371.32l-11.08,12.25-16.23-2.88,11.08-12.25Z"/><path class="cls-4" d="M676.61,371.35,670.42,356l-16.23-2.88,6.19,15.32Z"/><polygon class="cls-4" points="654.2 353.15 660.39 368.46 649.31 380.7 643.12 365.39 654.2 353.15"/><path class="cls-4" d="M57.62,411.44,46.53,423.69,30.3,420.81l11.09-12.25Z"/><path class="cls-4" d="M57.63,411.47l-6.19-15.31-16.23-2.89,6.19,15.32Z"/><polygon class="cls-4" points="35.22 393.27 41.4 408.58 30.32 420.83 24.13 405.51 35.22 393.27"/><path class="cls-5" d="M340.56,445.72l-10.79-3.46c0-.1-2.79-11-2.79-11l10.79,3.46Z"/><path class="cls-5" d="M340.54,445.73l7.83-8.19c0-.1-2.79-11-2.79-11l-7.82,8.2Z"/><polygon class="cls-5" points="345.58 426.58 337.76 434.78 326.97 431.31 334.8 423.12 345.58 426.58"/><path class="cls-4" d="M24.76,63.46,30.44,48c.14,0,16.12-3.43,16.12-3.43L40.89,60Z"/><path class="cls-4" d="M24.75,63.44,36.23,75.31l16.13-3.43L40.87,60Z"/><polygon class="cls-4" points="52.35 71.89 40.87 60.02 46.54 44.51 58.02 56.38 52.35 71.89"/><circle class="cls-6" cx="339.87" cy="228.94" r="130.41"/><circle class="cls-6" cx="339.87" cy="228.94" r="109.5"/><polygon class="cls-7" points="390.36 226.37 336.87 259.33 336.87 123.85 390.36 226.37"/><polygon class="cls-8" points="390.36 226.37 336.87 259.33 336.87 123.85 390.36 226.37"/><polygon class="cls-9" points="283.38 226.37 336.87 259.33 336.87 123.85 283.38 226.37"/><polygon class="cls-10" points="390.36 226.37 336.87 259.33 336.87 195.81 390.36 226.37"/><polygon class="cls-11" points="336.87 195.81 336.87 259.33 283.38 226.37 336.87 195.81"/><polygon class="cls-12" points="283.38 235.09 336.86 269.38 336.87 337.61 283.38 235.09"/><polygon class="cls-13" points="336.87 337.61 336.87 269.38 390.36 235.09 336.87 337.61"/><polygon class="cls-14" points="336.87 337.61 336.87 269.38 390.36 235.09 336.87 337.61"/><path class="cls-15" d="M390.44,197.71H286.64a6.36,6.36,0,0,1-6.44-6.28V162.88a6.36,6.36,0,0,1,6.44-6.27H394.22a6.36,6.36,0,0,1,6.44,6.27v24.87A10.12,10.12,0,0,1,390.44,197.71Z"/><rect class="cls-16" x="280.88" y="154.86" width="116.68" height="39.77" rx="7.29"/><g class="cls-17"><rect class="cls-18" x="314.11" y="131.31" width="8.43" height="90.35" transform="translate(-45.6 182.81) rotate(-30)"/><rect class="cls-18" x="339.22" y="132.23" width="8.43" height="90.35" transform="translate(-42.69 195.47) rotate(-30)"/><rect class="cls-18" x="358.11" y="129.05" width="5.46" height="90.35" transform="translate(-38.77 203.8) rotate(-30.01)"/></g><text class="cls-19" transform="translate(304.91 186.8)">NFT</text><text class="cls-20" transform="translate(303.71 186.21)">NFT</text><g class="cls-21"><path class="cls-22" d="M180.26,464.78l-59.37-37.21V357.64l59.37,37.21Z"/><path class="cls-22" d="M180.16,464.84l59.37-37.21V357.7l-59.37,37.21Z"/><polygon class="cls-22" points="239.56 357.73 180.19 394.94 120.83 357.73 180.19 320.52 239.56 357.73"/></g><rect class="cls-23" x="136.62" y="340.76" width="93.42" height="98.36" rx="6.92"/><rect class="cls-24" x="131.58" y="340.5" width="93.43" height="98.36" rx="6.92"/><rect class="cls-25" x="139.62" y="350.56" width="81.08" height="70.87"/><rect class="cls-26" x="137.75" y="349.06" width="81.08" height="70.87"/><path class="cls-27" d="M137.75,419.92V405.39l24.86-30.63a5.3,5.3,0,0,1,8.16-.1L188.18,395l10.75-12.31a5.31,5.31,0,0,1,8.29.36L218.83,399v20.9Z"/><path class="cls-28" d="M197.93,367.54a7,7,0,1,1-7-7A7,7,0,0,1,197.93,367.54Z"/><path class="cls-29" d="M237.49,433.32a19.11,19.11,0,1,1-19.11-19.11A19.1,19.1,0,0,1,237.49,433.32Z"/><path class="cls-30" d="M237.49,433.32a19.11,19.11,0,1,1-19.11-19.11A19.1,19.1,0,0,1,237.49,433.32Z"/><path class="cls-31" d="M235.75,433.47a19.11,19.11,0,1,1-19.11-19.11A19.1,19.1,0,0,1,235.75,433.47Z"/><g class="cls-32"><path class="cls-33" d="M199.22,417.75l4.92,7.51a14.62,14.62,0,0,0-2.13,5.07l-6.6-10.09Z"/><path class="cls-33" d="M225.77,458.35l-3.8,2.48-8.31-12.69a15.44,15.44,0,0,0,3,.29,14.74,14.74,0,0,0,2.51-.21Z"/><path class="cls-33" d="M207.19,414.13l3.63,5.55a15,15,0,0,0-4.57,3l-3.65-5.59Z"/><path class="cls-33" d="M233.74,454.72l-4.59,3-6.81-10.41a15,15,0,0,0,4.6-3Z"/><path class="cls-33" d="M211.33,411.46l4.62,7.07a13.79,13.79,0,0,0-2.51.32l-4-6.14Z"/><path class="cls-33" d="M237.88,452.06,236,453.31l-7.22-11.05a13.6,13.6,0,0,0,1.31-2.17Z"/></g><path class="cls-34" d="M231.61,433.47a15,15,0,1,1-15-15A15,15,0,0,1,231.61,433.47Z"/><path class="cls-35" d="M231.6,433.47A15,15,0,0,1,203.69,441a15,15,0,0,0,25-16.41A14.91,14.91,0,0,1,231.6,433.47Z"/><text class="cls-36" transform="translate(204.31 437.81)">NFT</text><text class="cls-37" transform="translate(203.78 437.83)">NFT</text><g class="cls-21"><path class="cls-26" d="M204.63,428.21v9.61h.56v-9.61Z"/><path class="cls-26" d="M214.19,428.21v9.61h.55v-9.61Z"/><path class="cls-26" d="M224,429.81v8h.55v-8Z"/></g><path class="cls-33" d="M233.41,424.31a19.11,19.11,0,0,0-32.81,19.53,19.1,19.1,0,1,1,32.81-19.53Z"/><polyline class="cls-38" points="239.2 394.36 317.53 394.36 317.37 335.27"/><line class="cls-38" x1="448.7" y1="242.69" x2="557.2" y2="242.86"/><g class="cls-21"><path class="cls-39" d="M613.09,300,556.6,264.54V198l56.49,35.4Z"/><path class="cls-39" d="M613,300l56.49-35.41V198.07L613,233.47Z"/><polygon class="cls-39" points="669.52 198.09 613.03 233.5 556.54 198.09 613.03 162.69 669.52 198.09"/></g><rect class="cls-40" x="573.17" y="181.17" width="84.55" height="92.77" rx="6.92"/><rect class="cls-41" x="568.61" y="180.93" width="84.55" height="92.77" rx="6.92"/><rect class="cls-42" x="576.19" y="192.27" width="73.38" height="64.13"/><rect class="cls-26" x="574.19" y="190.85" width="73.38" height="64.13"/><rect class="cls-43" x="584.98" y="205.01" width="54.96" height="41.16" rx="7.67"/><polygon class="cls-26" points="605.62 214.9 605.62 237.17 624.66 225.99 605.62 214.9"/><path class="cls-44" d="M668.46,271.45a17.3,17.3,0,1,1-17.3-17.29A17.3,17.3,0,0,1,668.46,271.45Z"/><path class="cls-45" d="M668.46,271.45a17.3,17.3,0,1,1-17.3-17.29A17.3,17.3,0,0,1,668.46,271.45Z"/><path class="cls-46" d="M666.88,271.58a17.3,17.3,0,1,1-17.29-17.29A17.3,17.3,0,0,1,666.88,271.58Z"/><g class="cls-47"><path class="cls-33" d="M633.82,257.36l4.45,6.79a13.33,13.33,0,0,0-1.92,4.59l-6-9.13Z"/><path class="cls-33" d="M657.85,294.09l-3.45,2.26-7.51-11.5a13.37,13.37,0,0,0,2.7.27,13.12,13.12,0,0,0,2.27-.19Z"/><path class="cls-33" d="M641,254.08l3.29,5a13.43,13.43,0,0,0-4.14,2.73l-3.3-5Z"/><path class="cls-33" d="M665.06,290.82l-4.15,2.71-6.17-9.43a13.39,13.39,0,0,0,4.17-2.69Z"/><path class="cls-33" d="M644.78,251.66l4.18,6.4a12.93,12.93,0,0,0-2.27.29l-3.64-5.56Z"/><path class="cls-33" d="M668.81,288.4l-1.73,1.13-6.54-10a12.1,12.1,0,0,0,1.19-1.95Z"/></g><path class="cls-48" d="M663.13,271.58A13.55,13.55,0,1,1,649.59,258,13.55,13.55,0,0,1,663.13,271.58Z"/><path class="cls-49" d="M663.13,271.59a13.54,13.54,0,0,1-25.26,6.77,13.54,13.54,0,0,0,22.59-14.85A13.55,13.55,0,0,1,663.13,271.59Z"/><text class="cls-50" transform="translate(638.43 275.51)">NFT</text><text class="cls-51" transform="translate(637.94 275.52)">NFT</text><g class="cls-21"><path class="cls-26" d="M638.72,266.82v8.7h.5v-8.7Z"/><path class="cls-26" d="M647.36,266.82v8.7h.5v-8.7Z"/><path class="cls-26" d="M656.28,268.27v7.25h.5v-7.25Z"/></g><path class="cls-33" d="M664.76,263.29A17.29,17.29,0,0,0,635.07,281a17.29,17.29,0,1,1,29.69-17.68Z"/><g class="cls-21"><path class="cls-52" d="M523.1,178.26l-72.67-45.54V47.12L523.1,92.67Z"/><path class="cls-52" d="M523,178.34l72.67-45.55V47.2L523,92.75Z"/><polygon class="cls-52" points="595.7 47.24 523.03 92.78 450.36 47.24 523.03 1.69 595.7 47.24"/></g><rect class="cls-53" x="471.37" y="26.19" width="112.03" height="113.83" rx="6.92"/><rect class="cls-54" x="465.49" y="26.19" width="112.03" height="113.83" rx="6.92"/><rect class="cls-55" x="478.47" y="38.77" width="90.56" height="84.98"/><rect class="cls-26" x="476.22" y="36.45" width="90.56" height="84.98"/><path class="cls-56" d="M597.08,136.11a22.92,22.92,0,1,1-22.92-22.92A22.92,22.92,0,0,1,597.08,136.11Z"/><g class="cls-57"><path class="cls-33" d="M553.27,117.25l5.89,9a17.69,17.69,0,0,0-2.54,6.08l-7.92-12.1Z"/><path class="cls-33" d="M585.11,165.94l-4.57,3-10-15.23a17.78,17.78,0,0,0,6.59.1Z"/><path class="cls-33" d="M562.82,112.91l4.36,6.66a17.94,17.94,0,0,0-5.48,3.63l-4.38-6.7Z"/><path class="cls-33" d="M594.66,161.59l-5.5,3.6L581,152.7a17.8,17.8,0,0,0,5.52-3.58Z"/><path class="cls-33" d="M567.79,109.71l5.54,8.47a17.58,17.58,0,0,0-3,.4l-4.82-7.37Z"/><path class="cls-33" d="M599.63,158.39l-2.29,1.5-8.66-13.25a17,17,0,0,0,1.57-2.59Z"/></g><path class="cls-33" d="M594.27,125.12a22.92,22.92,0,0,0-39.35,23.42,22.91,22.91,0,1,1,39.35-23.42Z"/><path class="cls-58" d="M592.11,136.11a17.95,17.95,0,1,1-18-18A17.95,17.95,0,0,1,592.11,136.11Z"/><path class="cls-59" d="M592.1,136.11a17.94,17.94,0,0,1-33.47,9,17.95,17.95,0,0,0,29.94-19.68A17.88,17.88,0,0,1,592.1,136.11Z"/><text class="cls-60" transform="translate(559.38 141.31)">NFT</text><text class="cls-61" transform="translate(558.73 141.33)">NFT</text><g class="cls-21"><path class="cls-26" d="M559.76,129.79v11.54h.67V129.79Z"/><path class="cls-26" d="M571.21,129.79v11.54h.67V129.79Z"/><path class="cls-26" d="M583,131.72v9.61h.67v-9.61Z"/></g><line class="cls-62" x1="537.6" y1="86.92" x2="556.34" y2="79.21"/><line class="cls-63" x1="537.36" y1="88.76" x2="557.56" y2="87.11"/><line class="cls-64" x1="537.78" y1="90.17" x2="557.62" y2="94.29"/><line class="cls-65" x1="505.3" y1="86.92" x2="486.56" y2="79.21"/><line class="cls-66" x1="505.54" y1="88.76" x2="485.35" y2="87.11"/><line class="cls-67" x1="505.12" y1="90.17" x2="485.28" y2="94.29"/><path class="cls-68" d="M547.6,99.14c-.94,4.55-12.15,7.36-22.28,7.9-1.46.08-6.42.07-7.88,0-9-.38-21.34-3.35-22.28-7.9-1.43-6.92,1.72-26.24,4.08-34.61,1.13-4,4-12.92,4-12.92l12,12a38.11,38.11,0,0,1,12.16,0L539.29,52s3.11,8.88,4.39,12.81C547.35,76.13,549,92.22,547.6,99.14Z"/><path class="cls-26" d="M534.32,80.81c0,2.3-1.32,4.16-3,4.16s-3-1.86-3-4.16,1.32-4.17,3-4.17S534.32,78.51,534.32,80.81Z"/><path class="cls-26" d="M515.88,80.81c0,2.3-1.32,4.16-3,4.16S510,83.11,510,80.81s1.32-4.17,2.95-4.17S515.88,78.51,515.88,80.81Z"/><path class="cls-26" d="M519.71,89.85h6.14a1.08,1.08,0,0,1,.93,1.63c-.9,1.53-2.45,3.57-4.26,3.44-1.58-.11-2.95-2-3.76-3.46A1.09,1.09,0,0,1,519.71,89.85Z"/><polyline class="cls-38" points="449.03 79.52 368.37 79.52 368.37 123.27"/><line class="cls-38" x1="146.87" y1="234.19" x2="231.53" y2="234.19"/><g class="cls-21"><path class="cls-52" d="M74.44,325.76,1.77,280.22v-85.6l72.67,45.55Z"/><path class="cls-52" d="M74.32,325.84,147,280.29V194.7L74.32,240.25Z"/><polygon class="cls-52" points="147.03 194.74 74.36 240.28 1.69 194.74 74.36 149.19 147.03 194.74"/></g><rect class="cls-69" x="20.01" y="179.42" width="116.59" height="118.67" rx="6.92"/><rect class="cls-70" x="13.88" y="179.42" width="116.59" height="118.67" rx="6.92"/><rect class="cls-71" x="27.42" y="192.36" width="95.02" height="88.43"/><rect class="cls-26" x="24.67" y="190.11" width="95.02" height="88.43"/><rect class="cls-72" x="56.04" y="207.64" width="1.61" height="43.67"/><rect class="cls-73" x="94.99" y="207.64" width="1.61" height="43.67"/><path class="cls-74" d="M58.91,253.26c0,4.12-4.48,7.47-10,7.47s-10-3.35-10-7.47,4.47-7.47,10-7.47S58.91,249.13,58.91,253.26Z"/><path class="cls-75" d="M97.87,253.26c0,4.12-4.48,7.47-10,7.47s-10-3.35-10-7.47,4.48-7.47,10-7.47S97.87,249.13,97.87,253.26Z"/><rect class="cls-76" x="56.27" y="207.52" width="40.22" height="9.08"/><circle class="cls-77" cx="122.87" cy="291.09" r="23.85" transform="translate(-188.55 344.49) rotate(-76.85)"/><g class="cls-78"><path class="cls-33" d="M101.13,271.47l6.13,9.37a18.59,18.59,0,0,0-2.65,6.33l-8.23-12.59Z"/><path class="cls-33" d="M134.27,322.13l-4.76,3.11-10.36-15.85a18.92,18.92,0,0,0,6.85.11Z"/><path class="cls-33" d="M111.07,267l4.53,6.94a18.68,18.68,0,0,0-5.7,3.77l-4.55-7Z"/><path class="cls-33" d="M144.21,317.61l-5.73,3.74-8.5-13a18.72,18.72,0,0,0,5.74-3.72Z"/><path class="cls-33" d="M116.24,263.62l5.77,8.82a17.74,17.74,0,0,0-3.13.41l-5-7.67Z"/><path class="cls-33" d="M149.38,314.28,147,315.84l-9-13.78a17.24,17.24,0,0,0,1.63-2.71Z"/></g><path class="cls-33" d="M143.8,279.66a23.85,23.85,0,0,0-41,24.37,23.84,23.84,0,1,1,41-24.37Z"/><path class="cls-79" d="M141.54,291.09a18.67,18.67,0,1,1-18.67-18.67A18.67,18.67,0,0,1,141.54,291.09Z"/><path class="cls-80" d="M141.54,291.09a18.67,18.67,0,0,1-34.83,9.35,18.68,18.68,0,0,0,33.64-11.18,18.45,18.45,0,0,0-2.49-9.3A18.6,18.6,0,0,1,141.54,291.09Z"/><text class="cls-81" transform="translate(107.49 296.51)">NFT</text><text class="cls-82" transform="translate(106.81 296.53)">NFT</text><g class="cls-21"><path class="cls-26" d="M107.88,284.52v12h.7v-12Z"/><path class="cls-26" d="M119.8,284.52v12h.69v-12Z"/><path class="cls-26" d="M132.1,286.53v10h.69v-10Z"/></g><g class="cls-21"><path class="cls-83" d="M163.09,155.44,101,116.51V43.36l62.11,38.92Z"/><path class="cls-83" d="M163,155.51l62.11-38.93V43.42L163,82.35Z"/><polygon class="cls-83" points="225.14 43.45 163.03 82.38 100.92 43.45 163.03 4.52 225.14 43.45"/></g><rect class="cls-84" x="122.92" y="36.86" width="88.34" height="90.5" rx="6.92"/><rect class="cls-85" x="118.28" y="36.86" width="88.34" height="90.5" rx="6.92"/><rect class="cls-86" x="128.95" y="47.12" width="72" height="67.01"/><rect class="cls-26" x="126.45" y="44.95" width="72" height="67.01"/><path class="cls-87" d="M187,75.23H175.67V73.42a5.67,5.67,0,0,1,5.67-5.66h0A5.66,5.66,0,0,1,187,73.42Z"/><path class="cls-88" d="M151.13,75.23H139.8V73.42a5.67,5.67,0,0,1,5.67-5.66h0a5.67,5.67,0,0,1,5.66,5.66Z"/><path class="cls-89" d="M195.46,86.08a14.87,14.87,0,0,1-27.62,7H159a14.86,14.86,0,1,1-4.5-20c2.65,1.78,15.23,1.78,17.89,0a14.87,14.87,0,0,1,23.11,13Z"/><path class="cls-90" d="M187.75,84.44h0a1.25,1.25,0,0,1-1.25,1.25h-2.06A1.25,1.25,0,0,0,183.18,87V89a1.25,1.25,0,0,1-1.25,1.25h0A1.26,1.26,0,0,1,180.67,89V87a1.25,1.25,0,0,0-1.25-1.26h-2.06a1.25,1.25,0,0,1-1.25-1.25h0a1.25,1.25,0,0,1,1.25-1.25h2.06a1.26,1.26,0,0,0,1.25-1.26V79.87a1.26,1.26,0,0,1,1.26-1.25h0a1.25,1.25,0,0,1,1.25,1.25v2.06a1.26,1.26,0,0,0,1.26,1.26h2.06A1.25,1.25,0,0,1,187.75,84.44Z"/><path class="cls-26" d="M187.25,84.18h0A1.25,1.25,0,0,1,186,85.43h-2.06a1.25,1.25,0,0,0-1.26,1.25v2.06A1.25,1.25,0,0,1,181.43,90h0a1.25,1.25,0,0,1-1.25-1.26V86.68a1.25,1.25,0,0,0-1.26-1.25h-2.06a1.25,1.25,0,0,1-1.25-1.25h0a1.25,1.25,0,0,1,1.25-1.26h2.06a1.25,1.25,0,0,0,1.26-1.25V79.61c0-.69.56-1,1.25-1h0c.69,0,1.25.28,1.25,1v2.06a1.25,1.25,0,0,0,1.26,1.25H186A1.25,1.25,0,0,1,187.25,84.18Z"/><g class="cls-91"><path class="cls-92" d="M148.59,82.09a2.15,2.15,0,1,1-2.14,2.15A2.15,2.15,0,0,1,148.59,82.09Z"/><path class="cls-93" d="M140.65,82.09a2.15,2.15,0,1,1-2.15,2.15A2.14,2.14,0,0,1,140.65,82.09Z"/><path class="cls-94" d="M142.48,80.26a2.14,2.14,0,1,1,2.14,2.15A2.14,2.14,0,0,1,142.48,80.26Z"/><path class="cls-95" d="M142.48,88.21a2.14,2.14,0,1,1,2.14,2.14A2.14,2.14,0,0,1,142.48,88.21Z"/></g><path class="cls-26" d="M148,82.09a2.15,2.15,0,1,1-2.14,2.15A2.15,2.15,0,0,1,148,82.09Z"/><path class="cls-26" d="M140.1,82.09A2.15,2.15,0,1,1,138,84.24,2.14,2.14,0,0,1,140.1,82.09Z"/><path class="cls-26" d="M141.93,80.26a2.14,2.14,0,1,1,2.14,2.15A2.14,2.14,0,0,1,141.93,80.26Z"/><path class="cls-26" d="M141.93,88.21a2.14,2.14,0,1,1,2.14,2.14A2.14,2.14,0,0,1,141.93,88.21Z"/><path class="cls-96" d="M160.75,90.15a2.79,2.79,0,1,1-2.79-2.8A2.79,2.79,0,0,1,160.75,90.15Z"/><path class="cls-97" d="M171.45,90a2.79,2.79,0,1,1-2.79-2.79A2.79,2.79,0,0,1,171.45,90Z"/><path class="cls-26" d="M160.28,90a2.8,2.8,0,1,1-2.79-2.79A2.79,2.79,0,0,1,160.28,90Z"/><path class="cls-26" d="M171,89.88a2.79,2.79,0,1,1-2.79-2.79A2.79,2.79,0,0,1,171,89.88Z"/><path class="cls-98" d="M146,68.65c-.07-2.2.12-4.59,1.54-6.27s3.72-2.25,5.89-2.39,4.39.09,6.52-.35a9.76,9.76,0,0,0,6.33-4.27C167.88,52.72,168,48.14,168,45"/><polyline class="cls-38" points="225.2 79.36 305.87 79.36 305.87 125.19"/><path class="cls-33" d="M221.57,111.82a18.07,18.07,0,0,0-31,18.47,18.07,18.07,0,1,1,31-18.47Z"/><path class="cls-99" d="M223.78,120.49a18.07,18.07,0,1,1-18.06-18.07A18.07,18.07,0,0,1,223.78,120.49Z"/><g class="cls-100"><path class="cls-33" d="M189.24,105.62l4.65,7.1a14,14,0,0,0-2,4.8L185.64,108Z"/><path class="cls-33" d="M214.35,144l-3.6,2.35-7.86-12a14.68,14.68,0,0,0,2.83.28,14.21,14.21,0,0,0,2.37-.2Z"/><path class="cls-33" d="M196.77,102.19l3.44,5.26a14.12,14.12,0,0,0-4.32,2.85L192.44,105Z"/><path class="cls-33" d="M221.88,140.58l-4.33,2.83-6.45-9.84a14.05,14.05,0,0,0,4.35-2.82Z"/><path class="cls-33" d="M200.69,99.67l4.37,6.68a14.23,14.23,0,0,0-2.37.31l-3.8-5.81Z"/><path class="cls-33" d="M225.8,138.06,224,139.24l-6.83-10.45a12.15,12.15,0,0,0,1.24-2Z"/></g><path class="cls-101" d="M219.87,120.49a14.15,14.15,0,1,1-14.15-14.15A14.15,14.15,0,0,1,219.87,120.49Z"/><path class="cls-102" d="M219.86,120.49a14.15,14.15,0,0,1-26.39,7.08,14.15,14.15,0,0,0,23.61-15.52A14.18,14.18,0,0,1,219.86,120.49Z"/><text class="cls-103" transform="translate(194.06 124.59)">NFT</text><text class="cls-104" transform="translate(193.55 124.6)">NFT</text><g class="cls-21"><path class="cls-26" d="M194.36,115.51v9.09h.53v-9.09Z"/><path class="cls-26" d="M203.39,115.51v9.09h.52v-9.09Z"/><path class="cls-26" d="M212.71,117v7.57h.52V117Z"/></g><g class="cls-21"><path class="cls-105" d="M528.26,467.87,462.09,426.4V348.46l66.17,41.47Z"/><path class="cls-105" d="M528.16,467.94l66.17-41.47V348.53L528.16,390Z"/><polygon class="cls-105" points="594.37 348.56 528.2 390.04 462.02 348.56 528.2 307.09 594.37 348.56"/></g><rect class="cls-106" x="478.89" y="330.63" width="102.01" height="105" rx="6.92"/><rect class="cls-107" x="473.53" y="330.63" width="102.01" height="105" rx="6.92"/><rect class="cls-108" x="488" y="342.1" width="77.03" height="77.38"/><rect class="cls-26" x="485.85" y="339.97" width="77.03" height="77.38"/><path class="cls-109" d="M538.14,367.64a15.1,15.1,0,1,1-15.1-15.1A15.1,15.1,0,0,1,538.14,367.64Z"/><path class="cls-110" d="M547.54,414.46c0,1,0,1.94-.11,2.89H498.65c-.08-1-.12-1.92-.12-2.89,0-13.95,7.64-25.71,18-29.21l6.24,6.75,6.67-6.76C539.89,388.72,547.54,400.49,547.54,414.46Z"/><polyline class="cls-38" points="360.57 336.65 360.2 393.02 461.87 393.02"/><circle class="cls-111" cx="569.14" cy="424.72" r="20.87"/><g class="cls-112"><path class="cls-33" d="M550.12,407.55l5.36,8.2a16.39,16.39,0,0,0-2.32,5.54l-7.2-11Z"/><path class="cls-33" d="M579.11,451.88,575,454.6l-9.07-13.87a16,16,0,0,0,3.26.33,16.43,16.43,0,0,0,2.74-.23Z"/><path class="cls-33" d="M558.82,403.6l4,6.07a16.06,16.06,0,0,0-5,3.29l-4-6.09Z"/><path class="cls-33" d="M587.81,447.93l-5,3.27-7.44-11.37a16.15,16.15,0,0,0,5-3.26Z"/><path class="cls-33" d="M563.34,400.68l5,7.72a15.32,15.32,0,0,0-2.74.36l-4.4-6.71Z"/><path class="cls-33" d="M592.33,445l-2.08,1.37-7.89-12.07a15.29,15.29,0,0,0,1.43-2.36Z"/></g><path class="cls-33" d="M587.45,414.71A20.87,20.87,0,0,0,551.62,436a20.86,20.86,0,1,1,35.83-21.33Z"/><path class="cls-113" d="M585.48,424.72a16.34,16.34,0,1,1-16.34-16.34A16.35,16.35,0,0,1,585.48,424.72Z"/><path class="cls-114" d="M585.48,424.72A16.34,16.34,0,0,1,555,432.9,16.34,16.34,0,0,0,582.26,415,16.28,16.28,0,0,1,585.48,424.72Z"/><text class="cls-115" transform="translate(555.68 429.46)">NFT</text><text class="cls-116" transform="translate(555.09 429.48)">NFT</text><g class="cls-21"><path class="cls-26" d="M556,419v10.5h.61V419Z"/><path class="cls-26" d="M566.46,419v10.5h.6V419Z"/><path class="cls-26" d="M577.22,420.73v8.74h.6v-8.74Z"/></g></g></g></g></svg>