<svg xmlns="http://www.w3.org/2000/svg" viewBox="0 0 499.43 499.76"><defs><style>.cls-1,.cls-11,.cls-13,.cls-15,.cls-19,.cls-25,.cls-8{fill:none;}.cls-1,.cls-19{stroke:#1399d1;}.cls-1,.cls-15,.cls-19,.cls-8{stroke-linecap:round;stroke-width:0.78px;}.cls-1,.cls-19,.cls-8{stroke-linejoin:round;}.cls-1{opacity:0.4;}.cls-2{fill:#008e9d;}.cls-3{fill:#00ac9d;}.cls-4{fill:#00599d;}.cls-5{fill:#003b9d;}.cls-6{fill:#072232;}.cls-7{fill:#04131c;}.cls-15,.cls-8{stroke:#17baff;}.cls-9{fill:#e6b112;}.cls-10{fill:#ffd245;}.cls-11,.cls-13{stroke:#072232;}.cls-11,.cls-13,.cls-15,.cls-25{stroke-miterlimit:10;}.cls-12{isolation:isolate;}.cls-13{stroke-width:0.92px;}.cls-14{fill:#fff;}.cls-16{fill:#7875c7;}.cls-17{fill:#8f8bfb;}.cls-18{fill:#e9f6fe;}.cls-20{fill:#716ec7;}.cls-21{fill:#00284a;}.cls-22{fill:#004a8a;}.cls-23{fill:#00549d;}.cls-24{fill:#e76f00;}.cls-25{stroke:#e76f00;}</style></defs><g id="Layer_2" data-name="Layer 2"><g id="OBJECTS"><polyline class="cls-1" points="350.18 0.8 299.17 26.31 359.48 56.08 269.97 100.83 210.05 70.87 120.16 115.81 269.97 190.71 150.13 250.64 90.2 220.68 0.39 266.69"/><polyline class="cls-1" points="156.78 0.39 383.13 113.56 254.61 181.71 372.76 242.51 389.17 234.05 448.96 264.08 359.21 308.95 448.96 353.96 328.57 413.48 499.03 499.37"/><polygon class="cls-2" points="100.13 279.42 130.09 294.4 160.05 279.42 130.09 264.44 100.13 279.42"/><polygon class="cls-3" points="100.13 270.29 130.09 285.27 160.05 270.29 130.09 255.31 100.13 270.29"/><polygon class="cls-4" points="100.13 270.29 100.13 279.42 130.09 294.4 160.05 279.42 160.05 270.29 130.09 285.27 100.13 270.29"/><polygon class="cls-5" points="130.09 285.27 130.09 294.4 160.05 279.42 160.05 270.29 130.09 285.27"/><path class="cls-6" d="M149.78,282.91a2.79,2.79,0,0,1-1.83,2.74c-1,.24-1.83-.61-1.83-1.89A2.81,2.81,0,0,1,148,281C149,280.78,149.78,281.63,149.78,282.91Z"/><path class="cls-7" d="M149.15,283.23a2.32,2.32,0,0,1-1.51,2.27c-.84.2-1.52-.51-1.53-1.57a2.34,2.34,0,0,1,1.52-2.28C148.47,281.46,149.15,282.17,149.15,283.23Z"/><polyline class="cls-8" points="148 283.68 239.29 329.91 189.82 354.79 40.21 279.78 175.87 211.67 215.81 229.79"/><path class="cls-9" d="M141,257.67,109.19,281c-3.74,1.89-12.76-4.51-12.89-9.15l-.77-27.17c-.13-4.63,2.79-9.93,6.53-11.82l37.71-19.12c3.74-1.9,13.37,2.85,13.5,7.48l-5.73,24.65C147.67,250.48,144.75,255.77,141,257.67Z"/><path class="cls-10" d="M147.65,261.52l-37.72,19.12c-3.73,1.9-6.87-.33-7-5l-.77-27.16c-.13-4.64,2.79-9.94,6.53-11.83l37.71-19.12c3.74-1.9,6.87.33,7,5l.77,27.17C154.3,254.33,151.38,259.63,147.65,261.52Z"/><path class="cls-11" d="M145.32,260l-33.21,16.83c-3.29,1.67-6-.29-6.16-4.37l-.68-23.92c-.12-4.09,2.46-8.75,5.75-10.42l33.2-16.83c3.29-1.67,6.05.29,6.17,4.37l.67,23.92C151.18,253.71,148.61,258.37,145.32,260Z"/><path class="cls-6" d="M119.56,247.48l.37,13.17c.1,3.25,2.87,4,5.22,1.47l13.4-14.64c2.94-3.22,2.53-8.46-.63-8.12l-13.77,1.47C121.8,241.08,119.48,244.44,119.56,247.48Z"/><polygon class="cls-2" points="339.62 189.9 369.58 204.88 399.54 189.9 369.58 174.92 339.62 189.9"/><polygon class="cls-3" points="339.62 180.76 369.58 195.75 399.54 180.76 369.58 165.78 339.62 180.76"/><polygon class="cls-4" points="339.62 180.76 339.62 189.9 369.58 204.88 399.54 189.9 399.54 180.76 369.58 195.75 339.62 180.76"/><polygon class="cls-5" points="369.58 195.75 369.58 204.88 399.54 189.9 399.54 180.76 369.58 195.75"/><g class="cls-12"><path class="cls-9" d="M380.7,115.77l.44,0c.22,0,.44,0,.66.06l.48.08c.2,0,.4.06.6.11s.31.08.46.12.4.09.59.15l.45.16.56.2c.16.06.31.14.46.21l.53.24a4.91,4.91,0,0,1,.44.25c.17.09.35.18.51.28h0l-6.13-3.78h0c-.16-.1-.32-.18-.49-.27l-.45-.25c-.17-.09-.35-.16-.52-.24l-.46-.21-.56-.2-.45-.16-.59-.15c-.15,0-.3-.09-.46-.12l-.6-.11-.48-.08-.61,0-.5-.05h-1.13c-.38,0-.77,0-1.15.08s-1,.15-1.57.26l-.19,0-.16,0c-.49.12-1,.25-1.49.4l-.18.07c-.45.15-.9.32-1.36.51l-.21.07-.18.09c-.46.2-.92.41-1.39.65l-.07,0c-.48.25-1,.53-1.46.82l-.16.1-.75.47c-.44.29-.88.6-1.31.91l-.42.32c-.29.22-.58.44-.87.68l-.19.14-.17.16q-.9.75-1.77,1.56l-.19.19c-.58.55-1.15,1.13-1.7,1.74a.6.6,0,0,0-.08.08s0,0,0,0c-.39.43-.78.88-1.16,1.33-.11.12-.21.25-.31.38-.28.33-.55.67-.82,1l-.39.51c-.24.32-.48.64-.71,1-.13.17-.26.35-.38.53-.25.35-.49.71-.74,1.08l-.23.34-.06.1c-.35.55-.7,1.1-1,1.66l-.22.37c-.26.45-.52.91-.77,1.37-.11.18-.2.37-.3.55-.24.44-.47.89-.69,1.34l-.24.47c-.29.59-.58,1.2-.85,1.8l-.15.36c-.22.5-.44,1-.64,1.51l-.24.59c-.18.46-.36.93-.53,1.4-.06.18-.13.35-.19.52-.22.63-.44,1.27-.64,1.91l-.09.31q-.25.81-.48,1.62c-.06.21-.11.41-.17.61q-.19.72-.36,1.44c-.05.18-.09.37-.13.55-.15.65-.29,1.3-.41,1.95a2.23,2.23,0,0,0,0,.23c-.11.58-.21,1.15-.29,1.72l-.09.61-.18,1.43-.06.57c-.06.65-.11,1.3-.15,1.94a.57.57,0,0,1,0,.13c0,.6-.05,1.2-.05,1.79,0,.2,0,.39,0,.59,0,.46,0,.93,0,1.39,0,.19,0,.38,0,.57,0,.63.07,1.25.12,1.87.77,8.08,3.93,13.8,8.45,16.59l6.13,3.78c-4.52-2.79-7.68-8.51-8.45-16.59-.05-.62-.09-1.25-.12-1.88,0-.18,0-.37,0-.56,0-.47,0-.93,0-1.4,0-.19,0-.39,0-.58,0-.6,0-1.19.05-1.79a.62.62,0,0,0,0-.13c0-.65.09-1.29.15-1.94,0-.19,0-.38.07-.57,0-.48.11-1,.17-1.43l.09-.61c.08-.57.18-1.14.29-1.72a2,2,0,0,1,0-.24c.12-.64.26-1.29.41-1.94,0-.19.09-.37.13-.55q.17-.72.36-1.44c.06-.2.11-.41.17-.61.15-.54.31-1.09.48-1.63l.09-.31c.2-.63.42-1.27.64-1.9l.19-.52c.17-.47.35-.94.53-1.4l.24-.59c.21-.51.42-1,.64-1.51l.15-.36c.28-.61.56-1.21.85-1.81l.24-.46c.22-.45.45-.9.69-1.34l.3-.55c.25-.46.51-.92.77-1.37.07-.12.14-.25.22-.37.33-.56.68-1.11,1-1.66L358,131c.25-.37.49-.73.74-1.08.12-.18.25-.36.38-.53.23-.33.47-.66.71-1l.39-.5c.27-.35.54-.69.82-1,.1-.12.2-.25.31-.37.38-.46.77-.9,1.16-1.33l.12-.12c.55-.61,1.12-1.19,1.7-1.75l.19-.18c.58-.55,1.17-1.07,1.77-1.57l.36-.29c.29-.24.58-.46.87-.68l.42-.32c.43-.32.87-.62,1.31-.91s.61-.38.91-.57c.49-.29,1-.57,1.47-.82l.06,0c.47-.24.93-.46,1.39-.65l.39-.17c.46-.18.91-.36,1.36-.5l.18-.07c.5-.16,1-.29,1.49-.4l.35-.07c.52-.11,1.05-.2,1.57-.26s.77-.07,1.15-.08h1.14Z"/><path class="cls-10" d="M378.41,115.84c8.82-1,15.73,5.92,16.92,18.42,1.58,16.61-7.54,36.86-20.37,45.25a21.14,21.14,0,0,1-9.17,3.54c-8.82.95-15.74-5.92-16.93-18.42-1.57-16.61,7.54-36.86,20.38-45.25A21,21,0,0,1,378.41,115.84Z"/><path class="cls-13" d="M377.86,118.75c8.05-.87,14.37,5.41,15.46,16.83,1.44,15.16-6.89,33.67-18.61,41.32a19.24,19.24,0,0,1-8.38,3.24c-8.05.86-14.37-5.41-15.45-16.83-1.44-15.17,6.88-33.67,18.61-41.32A19.16,19.16,0,0,1,377.86,118.75Z"/></g><path class="cls-6" d="M365.59,146.64c.1,1.38-1.28,3.25-3.07,4.18s-3.31.56-3.41-.82,1.29-3.25,3.08-4.18S365.5,145.26,365.59,146.64Z"/><path class="cls-6" d="M386.47,135.81c.09,1.38-1.28,3.25-3.07,4.18s-3.32.56-3.41-.82,1.28-3.25,3.07-4.18S386.37,134.43,386.47,135.81Z"/><path class="cls-6" d="M369.4,151.55c.29,4.33-2.14,11.64-5.62,13.45s-6.71-2.57-7-6.9,2.3-9.31,5.78-11.11S369.11,147.22,369.4,151.55Z"/><path class="cls-6" d="M389.69,141c.3,4.32-2.13,11.64-5.62,13.45s-6.7-2.58-7-6.91,2.29-9.3,5.78-11.11S389.4,136.69,389.69,141Z"/><polygon class="cls-6" points="382.44 149.7 365.36 158.56 364.68 148.55 381.77 139.68 382.44 149.7"/><path class="cls-14" d="M384.48,139.88a2.08,2.08,0,0,1-1,1.86c-.58.3-1.09,0-1.14-.77a2.07,2.07,0,0,1,1-1.85C383.92,138.82,384.43,139.16,384.48,139.88Z"/><path class="cls-14" d="M381.55,145.29a2.07,2.07,0,0,1-1,1.85c-.58.3-1.09,0-1.14-.76a2.08,2.08,0,0,1,1-1.86C381,144.22,381.5,144.56,381.55,145.29Z"/><path class="cls-14" d="M387.92,142a2.1,2.1,0,0,1-1,1.86c-.58.3-1.09,0-1.14-.77a2.05,2.05,0,0,1,1-1.85C387.36,140.92,387.87,141.26,387.92,142Z"/><path class="cls-14" d="M384.93,146.58a2.06,2.06,0,0,1-1,1.85c-.59.3-1.1,0-1.15-.76a2.12,2.12,0,0,1,1-1.86C384.37,145.51,384.88,145.85,384.93,146.58Z"/><polygon class="cls-14" points="363.69 158.1 362.38 158.78 361.94 152.23 363.25 151.55 363.69 158.1"/><polygon class="cls-14" points="365.4 152.98 365.51 154.61 360.23 157.35 360.12 155.72 365.4 152.98"/><polygon class="cls-14" points="376.44 146.58 374.99 147.34 374.95 146.76 376.4 146.01 376.44 146.58"/><polygon class="cls-14" points="371.58 149.1 370.13 149.86 370.09 149.29 371.54 148.53 371.58 149.1"/><path class="cls-14" d="M377,148.7a2.2,2.2,0,0,1-1,2c-.62.32-1.16,0-1.21-.8a2.19,2.19,0,0,1,1-2C376.39,147.58,376.94,147.94,377,148.7Z"/><path class="cls-14" d="M372.12,151.22a2.17,2.17,0,0,1-1,2c-.61.32-1.15,0-1.2-.81a2.17,2.17,0,0,1,1-2C371.53,150.1,372.07,150.46,372.12,151.22Z"/><path class="cls-6" d="M388.23,193.78a2.8,2.8,0,0,1-1.83,2.74c-1,.23-1.83-.62-1.83-1.9a2.78,2.78,0,0,1,1.82-2.74C387.41,191.65,388.23,192.5,388.23,193.78Z"/><path class="cls-7" d="M387.6,194.09a2.32,2.32,0,0,1-1.52,2.28c-.84.19-1.52-.51-1.52-1.58a2.32,2.32,0,0,1,1.52-2.27C386.91,192.33,387.6,193,387.6,194.09Z"/><polyline class="cls-8" points="386.08 194.44 446.69 226.35 310 294.83 275.27 277.47"/><polygon class="cls-2" points="288.67 391.89 318.63 406.88 348.59 391.89 318.63 376.91 288.67 391.89"/><polygon class="cls-3" points="288.67 382.76 318.63 397.74 348.59 382.76 318.63 367.78 288.67 382.76"/><polygon class="cls-4" points="288.67 382.76 288.67 391.89 318.63 406.88 348.59 391.89 348.59 382.76 318.63 397.74 288.67 382.76"/><path class="cls-6" d="M305.5,395.53a2.55,2.55,0,1,1-2.55-2.78A2.68,2.68,0,0,1,305.5,395.53Z"/><polygon class="cls-5" points="318.63 397.74 318.63 406.88 348.59 391.89 348.59 382.76 318.63 397.74"/><polyline class="cls-15" points="220.7 279.42 99.39 340.08 256.96 419.01 302.95 395.43"/><path class="cls-16" d="M330,370.7,298.2,394c-3.74,1.89-12.76-4.51-12.89-9.15l-.77-27.17c-.13-4.63,2.79-9.93,6.53-11.82l37.71-19.13c3.74-1.89,13.37,2.86,13.5,7.49l-5.73,24.65C336.68,363.51,333.76,368.8,330,370.7Z"/><path class="cls-16" d="M336.66,374.55l-37.72,19.12c-3.73,1.9-6.87-.33-7-5l-.77-27.17c-.13-4.63,2.79-9.93,6.53-11.82l37.71-19.12c3.74-1.9,6.88.33,7,5l.76,27.17C343.32,367.36,340.39,372.65,336.66,374.55Z"/><path class="cls-17" d="M334.33,373.06,301.12,389.9c-3.29,1.67-6.05-.29-6.16-4.37l-.68-23.92c-.11-4.09,2.46-8.75,5.75-10.42l33.2-16.83c3.29-1.67,6,.29,6.17,4.37l.68,23.92C340.19,366.73,337.62,371.4,334.33,373.06Z"/><path class="cls-11" d="M334.33,373.06,301.12,389.9c-3.29,1.67-6.05-.29-6.16-4.37l-.68-23.92c-.11-4.09,2.46-8.75,5.75-10.42l33.2-16.83c3.29-1.67,6,.29,6.17,4.37l.68,23.92C340.19,366.73,337.62,371.4,334.33,373.06Z"/><polygon class="cls-18" points="302.61 363.57 318.65 364.53 333.16 341.21 320.9 372.87 302.61 363.57"/><polygon class="cls-2" points="129.89 115.44 159.85 130.42 189.82 115.44 159.85 100.46 129.89 115.44"/><polygon class="cls-3" points="129.89 106.31 159.85 121.29 189.82 106.31 159.85 91.33 129.89 106.31"/><polygon class="cls-4" points="129.89 106.31 129.89 115.44 159.85 130.42 189.82 115.44 189.82 106.31 159.85 121.29 129.89 106.31"/><polygon class="cls-5" points="159.85 121.29 159.85 130.42 189.82 115.44 189.82 106.31 159.85 121.29"/><path class="cls-6" d="M177.47,118.89a2.8,2.8,0,0,1-1.82,2.74c-1,.23-1.84-.62-1.84-1.9a2.8,2.8,0,0,1,1.83-2.74C176.65,116.76,177.47,117.61,177.47,118.89Z"/><path class="cls-7" d="M176.84,119.2a2.32,2.32,0,0,1-1.51,2.28c-.84.19-1.52-.51-1.52-1.58a2.3,2.3,0,0,1,1.51-2.27C176.16,117.44,176.84,118.14,176.84,119.2Z"/><line class="cls-19" x1="174.84" y1="119.76" x2="257.78" y2="165.1"/><path class="cls-20" d="M174.82,97,143.1,119.9c-4.15,2.13-12.17-4.38-12.28-9.3l-.67-29.33c-.11-4.93,3.16-10.65,7.31-12.78L173.75,49.8c4.14-2.13,13.39,3,13.51,7.87l-5.14,26.51C182.24,89.11,179,94.83,174.82,97Z"/><path class="cls-16" d="M180.69,100.83,144.4,119.51c-4.14,2.14-7.6-.12-7.71-5.05L136,85.13c-.11-4.93,3.16-10.65,7.3-12.78l36.29-18.69c4.15-2.13,7.6.13,7.72,5.05L188,88C188.11,93,184.84,98.69,180.69,100.83Z"/><path class="cls-17" d="M179.52,96.48,145,114.25c-2.42,1.24-4.44-.08-4.51-3L139.89,84a8.84,8.84,0,0,1,4.26-7.46l34.51-17.77c2.42-1.25,4.44.07,4.51,2.95L183.79,89A8.89,8.89,0,0,1,179.52,96.48Z"/><polygon class="cls-18" points="150.4 111.47 145.51 113.99 144.88 86.22 149.77 83.71 150.4 111.47"/><polygon class="cls-18" points="156.59 108.28 151.7 110.8 150.97 78.42 155.85 75.9 156.59 108.28"/><polygon class="cls-18" points="163.52 104.71 158.64 107.23 158.06 81.76 162.94 79.24 163.52 104.71"/><polygon class="cls-18" points="169.96 101.4 165.07 103.91 164.6 83.15 169.49 80.63 169.96 101.4"/><polygon class="cls-18" points="176.65 97.95 171.76 100.47 170.96 65.15 175.85 62.63 176.65 97.95"/><path class="cls-11" d="M179.52,96.48,145,114.25c-2.42,1.24-4.44-.08-4.51-3L139.89,84a8.84,8.84,0,0,1,4.26-7.46l34.51-17.77c2.42-1.25,4.44.07,4.51,2.95L183.79,89A8.89,8.89,0,0,1,179.52,96.48Z"/><ellipse class="cls-5" cx="446.69" cy="265.67" rx="13.48" ry="7.8"/><polygon class="cls-5" points="433.2 261.9 433.2 266.01 460.15 266.01 460.15 261.63 433.2 261.9"/><ellipse class="cls-3" cx="446.69" cy="261.63" rx="13.48" ry="7.8"/><g class="cls-12"><path class="cls-9" d="M461.79,234.4a2.07,2.07,0,0,1,.43.1l-4.67-1.88-.23-.08-.2,0H457a1.71,1.71,0,0,0-.45,0l-1.95.38,4.66,1.88,1.95-.37a2.25,2.25,0,0,1,.51,0Z"/><path class="cls-9" d="M453.82,251l-4.67-1.88,1.38,1.34a2,2,0,0,0,.28.23,2.19,2.19,0,0,0,.3.16l4.67,1.88a1.8,1.8,0,0,1-.59-.38Z"/><path class="cls-9" d="M444.86,256.5v-2.27l-4.66-1.89v.36l-3.26-1.31c.25.13.5.24.76.35l2.5,1v1.88a2.23,2.23,0,0,0,1.27,2.17l4.66,1.88A2.22,2.22,0,0,1,444.86,256.5Z"/><path class="cls-9" d="M449.31,247.93l.39-.2.25-.14.36-.22.25-.17.35-.26.22-.18.1-.08.09-.09a9.41,9.41,0,0,0,.83-.84h0a9.24,9.24,0,0,0,.61-.79l.08-.1.09-.15c.13-.19.25-.39.37-.6,0-.06.07-.11.1-.16l0-.08a8.72,8.72,0,0,0,.42-.87h0s0,0,0-.06q.18-.43.33-.9s0-.08,0-.12l0-.13a11.9,11.9,0,0,0,.28-1.18v0c0-.17.05-.34.07-.51l0-.28c0-.27,0-.55,0-.82,0-3.18-1.55-5.64-3.82-6.55l-4.66-1.89c2.27.92,3.82,3.37,3.81,6.55a7.69,7.69,0,0,1,0,.83c0,.09,0,.18,0,.28s0,.35-.07.53a11.06,11.06,0,0,1-.27,1.17l-.08.26c-.1.3-.2.6-.33.89a.64.64,0,0,1,0,.07,8.79,8.79,0,0,1-.43.87l-.13.24c-.12.21-.25.41-.38.61l-.16.24a10,10,0,0,1-.62.8h0a9.51,9.51,0,0,1-.84.84l-.18.16-.23.18-.35.27-.24.16-.37.23-.25.14-.39.19-.25.11-.42.16a6.92,6.92,0,0,1-.92.25,5.18,5.18,0,0,1-.78.09h-.77l-.19,0a5.93,5.93,0,0,1-.63-.1l-.07,0a6,6,0,0,1-.72-.23l4.67,1.89a5.68,5.68,0,0,0,.7.22h.09a4.22,4.22,0,0,0,.62.1l.19,0,.18,0h.6a6.9,6.9,0,0,0,.78-.09,6,6,0,0,0,.92-.26l.11,0,.22-.08.09,0Z"/><path class="cls-9" d="M448.45,225.07a8,8,0,0,0-1.17-.38h-.1a8.23,8.23,0,0,0-1.24-.21l4.67,1.88a10,10,0,0,1,1.24.21l.06,0a5.68,5.68,0,0,1,.7.22l1.25.51,1.38-1.88a3.18,3.18,0,0,1,.3-.33l.12-.12a1.71,1.71,0,0,1,.26-.21l.12-.09a2.19,2.19,0,0,1,.4-.21h0a2.44,2.44,0,0,1,.44-.13,2.19,2.19,0,0,1,.51,0l.09,0a2.42,2.42,0,0,1,.45.1l-4.67-1.88a.88.88,0,0,0-.23-.07l-.21,0h-.15a2.45,2.45,0,0,0-.46,0,2,2,0,0,0-.31.08l-.12,0h0a1.86,1.86,0,0,0-.39.21l-.11.08-.21.15-.06.06-.12.12c0,.05-.09.08-.13.13l-.16.21-1.36,1.84Z"/><path class="cls-9" d="M436.2,255a2.18,2.18,0,0,1-.32-.43l-.08-.16a3,3,0,0,1-.14-.36,1.05,1.05,0,0,1-.05-.19,2.57,2.57,0,0,1-.06-.4c0-.06,0-.12,0-.18a3,3,0,0,1,0-.59,3.89,3.89,0,0,1,.12-.49,1,1,0,0,1,0-.1,2.54,2.54,0,0,1,.16-.38l0-.09a3.4,3.4,0,0,1,.28-.45l1.38-1.87a12.94,12.94,0,0,1-.79-1.68,13.53,13.53,0,0,1-.55-1.87L432,244.08a1.13,1.13,0,0,1,0-.18v-1.25a3.27,3.27,0,0,1,0-.54s0-.05,0-.07a3.39,3.39,0,0,1,.11-.43s0-.08,0-.11a3.17,3.17,0,0,1,.16-.37.2.2,0,0,1,0-.08,3.26,3.26,0,0,1,.24-.4l.08-.09a2.75,2.75,0,0,1,.22-.26l.13-.13a2.11,2.11,0,0,1,.23-.19l.15-.11.27-.15.14-.07a1.71,1.71,0,0,1,.44-.13l1.95-.38c.1-.48.23-1,.37-1.43,0-.14.08-.29.13-.43s.09-.28.14-.42.13-.37.2-.55.11-.27.16-.41.23-.55.36-.82l-1.38-1.35a1.72,1.72,0,0,1-.32-.43s-.05-.1-.08-.15a1.92,1.92,0,0,1-.14-.36,1.05,1.05,0,0,1-.05-.19,2.57,2.57,0,0,1-.06-.4,1.09,1.09,0,0,1,0-.18,3,3,0,0,1,0-.59,3.89,3.89,0,0,1,.12-.49,1,1,0,0,1,0-.1,3.2,3.2,0,0,1,.16-.39l0-.09a4.08,4.08,0,0,1,.28-.44l.76-1a3.11,3.11,0,0,1,.29-.33.68.68,0,0,1,.12-.12l.27-.22.11-.08.08,0,3.77,1.53.52-.43.32-.26c.15-.12.31-.23.47-.34a3.55,3.55,0,0,1,.31-.23l.54-.33.27-.17c.27-.15.55-.3.83-.43v-2.28a3.39,3.39,0,0,1,0-.55.14.14,0,0,0,0-.06,3,3,0,0,1,.11-.43s0-.08,0-.12.1-.25.16-.37l0-.08a2.59,2.59,0,0,1,.25-.39.86.86,0,0,1,.07-.1,2.62,2.62,0,0,1,.22-.25l.13-.14.23-.19.15-.11.28-.15.14-.07a2.23,2.23,0,0,1,.44-.13l1.06-.21a2.22,2.22,0,0,1,.51,0h.11a1.6,1.6,0,0,1,.43.11L444.68,220l-.23-.07a1.2,1.2,0,0,0-.2,0l-.1,0h-.06a2.28,2.28,0,0,0-.45,0l-1.07.2a1.91,1.91,0,0,0-.34.1l-.07,0,0,0-.14.07a1.82,1.82,0,0,0-.27.15.83.83,0,0,0-.15.11,1.67,1.67,0,0,0-.16.12.46.46,0,0,0-.07.07l-.13.13a1.14,1.14,0,0,0-.11.11s-.08.1-.12.15l-.07.09,0,.05c-.07.1-.13.2-.19.3s0,0,0,0l0,.08-.09.19a1.27,1.27,0,0,0-.06.18l-.05.11a.14.14,0,0,1,0,.07c0,.12-.06.24-.09.36s0,0,0,.07h0a3.17,3.17,0,0,0-.05.53v2.28c-.29.14-.57.28-.84.44l-.27.17q-.27.15-.54.33l-.31.22c-.16.11-.32.22-.47.34l-.07.06L435,226l-.23-.08-.21,0h-.14a1.75,1.75,0,0,0-.46,0,1.58,1.58,0,0,0-.31.09l-.13,0h0a3.72,3.72,0,0,0-.39.21l-.11.09a1.49,1.49,0,0,0-.2.15l-.07.06-.12.12-.12.13a1.2,1.2,0,0,0-.17.21l-.76,1-.06.09a2.38,2.38,0,0,0-.18.3s0,0,0,.06l-.05.09a1.3,1.3,0,0,1-.08.17c0,.07-.05.14-.08.22l0,.09s0,0,0,0a3.63,3.63,0,0,0-.1.45h0a2.43,2.43,0,0,0,0,.6c0,.06,0,.12,0,.18a2.76,2.76,0,0,0,.06.4c0,.06,0,.12,0,.19s.09.24.14.36l.08.15a2,2,0,0,0,.33.43L433,233.2c-.1.21-.19.42-.28.63s-.05.13-.08.19l-.15.4c-.08.18-.14.37-.21.56l-.14.41-.09.26a1.16,1.16,0,0,1,0,.18c-.14.47-.26.95-.36,1.43l-2,.37a2.25,2.25,0,0,0-.35.09l-.07,0,0,0-.13.07a1.51,1.51,0,0,0-.28.15l-.15.11-.15.11-.08.08-.13.13a.94.94,0,0,0-.1.1l-.12.15a.86.86,0,0,0-.07.1.1.1,0,0,0,0,0,2.2,2.2,0,0,0-.19.3s0,0,0,0a.3.3,0,0,1,0,.08l-.09.2a.87.87,0,0,0-.07.17s0,.08,0,.12a.14.14,0,0,0,0,.06c0,.12-.06.24-.09.37s0,0,0,.06h0a4.9,4.9,0,0,0,0,.54V242a2.22,2.22,0,0,0,1.26,2.17l3.49,1.41a11.25,11.25,0,0,0,.85,1.86l-1.39,1.87-.06.09a2.38,2.38,0,0,0-.18.3s0,0,0,.06l0,.09a1.3,1.3,0,0,1-.08.17c0,.07-.05.14-.08.22l0,.09,0,0a3.63,3.63,0,0,0-.1.45h0a2.43,2.43,0,0,0,0,.6c0,.06,0,.12,0,.18a2.76,2.76,0,0,0,.06.4c0,.06,0,.13.05.19s.09.24.14.36l.08.15a2,2,0,0,0,.33.43l.75.74a2,2,0,0,0,.59.39l4.66,1.88a1.7,1.7,0,0,1-.58-.39Z"/><path class="cls-10" d="M461.17,234.41c1.28-.24,2.31.77,2.31,2.26v1.24a3.2,3.2,0,0,1-2.32,3.14l-2,.38a18,18,0,0,1-1.36,4.06l1.38,1.34a3,3,0,0,1,0,3.82l-.75,1a2.77,2.77,0,0,1-1.64,1.11,1.82,1.82,0,0,1-1.64-.48L453.82,251a13.61,13.61,0,0,1-3.26,2.19v2.28a3.22,3.22,0,0,1-2.32,3.14l-1.07.21c-1.28.24-2.31-.78-2.31-2.27v-2.27a8.81,8.81,0,0,1-3.25-1l-1.38,1.87a2.72,2.72,0,0,1-1.64,1.1,1.78,1.78,0,0,1-1.63-.48l-.76-.73a3,3,0,0,1,0-3.82l1.38-1.87a12.87,12.87,0,0,1-1.34-3.55l-1.95.37c-1.28.24-2.31-.77-2.31-2.26v-1.25a3.18,3.18,0,0,1,2.31-3.13l1.95-.38a18,18,0,0,1,1.36-4.06l-1.38-1.35a3,3,0,0,1,0-3.81l.76-1a2.7,2.7,0,0,1,1.63-1.1,1.81,1.81,0,0,1,1.64.48l1.37,1.35a13.61,13.61,0,0,1,3.26-2.19v-2.28a3.19,3.19,0,0,1,2.32-3.14l1.06-.21c1.28-.24,2.32.78,2.31,2.27v2.27a8.76,8.76,0,0,1,3.25,1l1.38-1.88a2.75,2.75,0,0,1,1.64-1.1,1.83,1.83,0,0,1,1.64.48l.75.74a3,3,0,0,1,0,3.82l-1.38,1.87a12.56,12.56,0,0,1,1.34,3.55Zm-13.45,14c3.86-.74,7-5,7-9.49s-3.12-7.57-7-6.83-7,5-7,9.48,3.12,7.57,7,6.84"/></g><ellipse class="cls-5" cx="46.04" cy="163.91" rx="13.48" ry="7.8"/><polygon class="cls-5" points="32.56 160.13 32.56 164.24 59.51 164.24 59.51 159.86 32.56 160.13"/><ellipse class="cls-3" cx="46.04" cy="159.86" rx="13.48" ry="7.8"/><g class="cls-12"><path class="cls-20" d="M60,134.74a2.07,2.07,0,0,1,.43.1L55.77,133l-.23-.08-.2,0h-.16a1.81,1.81,0,0,0-.46,0l-1.95.38,4.67,1.88,2-.37a2.25,2.25,0,0,1,.51,0Z"/><path class="cls-20" d="M52,151.29l-4.67-1.88,1.38,1.34A1.56,1.56,0,0,0,49,151a1.73,1.73,0,0,0,.3.16L54,153a1.8,1.8,0,0,1-.59-.38Z"/><path class="cls-20" d="M43.08,156.84v-2.27l-4.67-1.89V153l-3.25-1.31c.25.13.5.24.76.35l2.49,1V155a2.23,2.23,0,0,0,1.26,2.17L44.34,159A2.22,2.22,0,0,1,43.08,156.84Z"/><path class="cls-20" d="M47.52,148.27a3.55,3.55,0,0,0,.39-.2l.26-.14.36-.22.24-.17.36-.26.22-.18.1-.08.09-.09a9.41,9.41,0,0,0,.83-.84h0c.21-.25.42-.52.61-.79l.08-.1.09-.15c.13-.19.25-.39.37-.6,0-.06.07-.11.1-.16a.2.2,0,0,1,0-.08q.23-.42.42-.87h0s0,0,0-.06a8.7,8.7,0,0,0,.32-.9.61.61,0,0,0,0-.12l0-.13a11.9,11.9,0,0,0,.28-1.18v0c0-.17,0-.34.06-.51a2.36,2.36,0,0,0,0-.28c0-.27,0-.55,0-.82,0-3.18-1.55-5.64-3.82-6.55l-4.66-1.89c2.27.92,3.82,3.37,3.81,6.55a7.69,7.69,0,0,1,0,.83l0,.28c0,.17,0,.35-.07.53a9.06,9.06,0,0,1-.28,1.17c0,.09,0,.17-.07.26-.1.3-.21.6-.33.89a.64.64,0,0,1,0,.07c-.13.3-.28.59-.43.87,0,.08-.09.16-.14.24s-.24.41-.37.61l-.16.24a10,10,0,0,1-.62.8h0a11.09,11.09,0,0,1-.84.84l-.19.16c-.07.07-.15.12-.22.18l-.35.27-.25.16-.36.23-.25.14-.39.19-.25.11-.42.16a7.36,7.36,0,0,1-.92.25,5.18,5.18,0,0,1-.78.09h-.77l-.2,0a6.17,6.17,0,0,1-.62-.1l-.07,0a4.32,4.32,0,0,1-.72-.23l4.67,1.89a5.19,5.19,0,0,0,.7.22h.08a4.58,4.58,0,0,0,.63.1l.19,0,.18,0h.6a7.18,7.18,0,0,0,.78-.09,6,6,0,0,0,.92-.26l.11,0,.22-.08.09,0Z"/><path class="cls-20" d="M46.67,125.41A8,8,0,0,0,45.5,125h-.1a8.45,8.45,0,0,0-1.24-.21l4.67,1.88a10.35,10.35,0,0,1,1.24.21l.06,0a6.28,6.28,0,0,1,.7.22l1.25.51,1.38-1.88a2.35,2.35,0,0,1,.3-.33,1.36,1.36,0,0,1,.12-.12,1.71,1.71,0,0,1,.26-.21l.11-.09a2.56,2.56,0,0,1,.4-.21h0a2.44,2.44,0,0,1,.44-.13,2.13,2.13,0,0,1,.5,0l.1,0a1.85,1.85,0,0,1,.45.11l-4.67-1.89a1,1,0,0,0-.23-.07l-.22,0h-.14a2.45,2.45,0,0,0-.46,0,1.77,1.77,0,0,0-.31.08l-.12,0h0a1.47,1.47,0,0,0-.39.21l-.12.08-.2.15-.06.06-.12.12s-.09.08-.13.13l-.16.21-1.36,1.84Z"/><path class="cls-20" d="M34.42,155.37a2.18,2.18,0,0,1-.32-.43l-.08-.16a1.42,1.42,0,0,1-.14-.36,1.05,1.05,0,0,1-.05-.19,2.57,2.57,0,0,1-.06-.4c0-.06,0-.12,0-.17a4,4,0,0,1,0-.6,3.89,3.89,0,0,1,.12-.49,1,1,0,0,1,0-.1,2.54,2.54,0,0,1,.16-.38l0-.09a2.6,2.6,0,0,1,.28-.45l1.38-1.87A12.94,12.94,0,0,1,35,148a13.53,13.53,0,0,1-.55-1.87l-4.24-1.71c0-.06,0-.12,0-.18V143a4.93,4.93,0,0,1,.05-.54s0,0,0-.07a3.39,3.39,0,0,1,.11-.43s0-.08,0-.11.1-.25.16-.37a.2.2,0,0,1,0-.08,3.26,3.26,0,0,1,.24-.4l.08-.09a2.75,2.75,0,0,1,.22-.26l.13-.13a2.11,2.11,0,0,1,.23-.19l.15-.11.27-.15.14-.07a1.71,1.71,0,0,1,.44-.13l1.95-.38c.1-.48.23-.95.37-1.43,0-.14.08-.29.13-.43s.09-.28.14-.42.13-.37.2-.55.1-.27.16-.41.23-.55.36-.82l-1.38-1.34a2,2,0,0,1-.32-.44.71.71,0,0,1-.08-.15,1.42,1.42,0,0,1-.14-.36,1.05,1.05,0,0,1-.05-.19,2.57,2.57,0,0,1-.06-.4,1.1,1.1,0,0,1,0-.18,4,4,0,0,1,0-.59,3.89,3.89,0,0,1,.12-.49,1,1,0,0,1,0-.1,3.2,3.2,0,0,1,.16-.39l0-.09a3,3,0,0,1,.28-.44l.76-1a3.11,3.11,0,0,1,.29-.33.68.68,0,0,1,.12-.12,2.75,2.75,0,0,1,.26-.22l.12-.08.08,0L39.87,130l.52-.43.31-.26.48-.34.31-.23.54-.33.27-.17c.27-.15.55-.3.83-.43v-2.28a3.19,3.19,0,0,1,0-.54.64.64,0,0,1,0-.07,3,3,0,0,1,.11-.43s0-.08,0-.12.1-.25.16-.37l0-.08a2.59,2.59,0,0,1,.25-.39.36.36,0,0,1,.07-.1,2.62,2.62,0,0,1,.22-.25l.13-.13.23-.2.15-.1.28-.16.13-.07a2.32,2.32,0,0,1,.45-.13l1.06-.21a2.22,2.22,0,0,1,.51,0h.11a1.6,1.6,0,0,1,.43.11l-4.67-1.89-.23-.07-.2,0-.1,0h-.06a1.71,1.71,0,0,0-.45,0l-1.07.2a1.91,1.91,0,0,0-.34.1l-.07,0,0,0-.14.07a1.91,1.91,0,0,0-.28.15l-.14.11a1,1,0,0,0-.16.12l-.08.07-.13.13-.1.11-.12.15-.07.09,0,.05c-.07.1-.13.2-.19.3l0,0,0,.08-.09.19a1.34,1.34,0,0,0-.07.18s0,.07,0,.11a.25.25,0,0,0,0,.07c0,.12-.06.24-.09.36s0,.05,0,.07h0a3.23,3.23,0,0,0,0,.53v2.28c-.28.14-.56.28-.83.44l-.27.17-.54.33-.31.22c-.16.11-.32.22-.47.34l-.07.06-2.73-1.1-.23-.08a1.52,1.52,0,0,0-.21,0h-.15a1.71,1.71,0,0,0-.45,0,1.58,1.58,0,0,0-.31.09l-.13,0h0a3.72,3.72,0,0,0-.39.21l-.11.09c-.07,0-.14.09-.21.15l-.06.06-.12.12-.12.13a1.2,1.2,0,0,0-.17.21l-.76,1-.06.09c-.07.1-.13.2-.19.3s0,0,0,.06a.36.36,0,0,1,0,.09,1.3,1.3,0,0,0-.08.17c0,.07,0,.14-.08.22l0,.09s0,0,0,0a3.63,3.63,0,0,0-.1.45h0a2.43,2.43,0,0,0,0,.6c0,.06,0,.12,0,.18a2.76,2.76,0,0,0,.06.4,1.8,1.8,0,0,0,.05.19c0,.12.09.24.14.36l.08.15a2,2,0,0,0,.33.43l1.37,1.35c-.1.21-.19.42-.28.63s-.05.13-.08.19-.1.27-.16.4-.14.37-.2.56-.1.27-.14.41l-.09.26a1.16,1.16,0,0,1,0,.18c-.14.47-.27,1-.37,1.43l-1.95.37a2.14,2.14,0,0,0-.34.09l-.07,0,0,0-.13.07a1.51,1.51,0,0,0-.28.15l-.15.11-.16.11-.07.08-.13.13a.94.94,0,0,0-.1.1,1.58,1.58,0,0,0-.12.15.36.36,0,0,0-.07.1.1.1,0,0,0,0,0,2.2,2.2,0,0,0-.19.3s0,0,0,0l0,.08a1.76,1.76,0,0,0-.09.2.87.87,0,0,0-.07.17s0,.08,0,.12a.14.14,0,0,0,0,.06,2.22,2.22,0,0,0-.09.37s0,0,0,.06h0a3.27,3.27,0,0,0,0,.54v1.24a2.2,2.2,0,0,0,1.26,2.17l3.48,1.41a11.71,11.71,0,0,0,.85,1.86l-1.38,1.87-.06.09c-.07.1-.13.2-.19.3s0,0,0,.06l0,.09a1.3,1.3,0,0,0-.08.17c0,.07-.05.14-.08.22l0,.09,0,0a3.63,3.63,0,0,0-.1.45h0a2.43,2.43,0,0,0,0,.6c0,.06,0,.12,0,.18a2.76,2.76,0,0,0,.06.4,1.33,1.33,0,0,0,.05.19c0,.12.09.24.14.36l.08.15a2,2,0,0,0,.33.43l.75.74a1.89,1.89,0,0,0,.59.39l4.66,1.88a1.7,1.7,0,0,1-.58-.39Z"/><path class="cls-17" d="M59.39,134.75c1.28-.24,2.31.77,2.31,2.26v1.24a3.18,3.18,0,0,1-2.31,3.14l-2,.38a18,18,0,0,1-1.36,4.06l1.38,1.34a3,3,0,0,1,0,3.82l-.76,1a2.72,2.72,0,0,1-1.63,1.11,1.81,1.81,0,0,1-1.64-.48L52,151.29a13.61,13.61,0,0,1-3.26,2.19v2.28a3.19,3.19,0,0,1-2.32,3.14l-1.06.21c-1.28.24-2.32-.78-2.31-2.27v-2.27a8.76,8.76,0,0,1-3.25-1l-1.38,1.87a2.75,2.75,0,0,1-1.64,1.1,1.78,1.78,0,0,1-1.63-.48l-.76-.73a3,3,0,0,1,0-3.82l1.38-1.87a12.45,12.45,0,0,1-1.34-3.55l-1.95.37c-1.28.24-2.31-.77-2.31-2.26V143a3.19,3.19,0,0,1,2.32-3.13l1.95-.38a18,18,0,0,1,1.36-4.06l-1.38-1.34a3,3,0,0,1,0-3.82l.76-1a2.7,2.7,0,0,1,1.63-1.1,1.82,1.82,0,0,1,1.64.48L39.87,130a13.61,13.61,0,0,1,3.26-2.19v-2.28a3.19,3.19,0,0,1,2.32-3.14l1.06-.21c1.28-.24,2.31.78,2.31,2.27v2.27a8.81,8.81,0,0,1,3.25,1l1.38-1.88a2.72,2.72,0,0,1,1.64-1.1,1.8,1.8,0,0,1,1.63.48l.76.74a3,3,0,0,1,0,3.82l-1.38,1.87a12.56,12.56,0,0,1,1.34,3.55Zm-13.45,14c3.86-.74,7-5,7-9.49s-3.12-7.57-7-6.83-7,5-7,9.48,3.12,7.57,7,6.84"/></g><ellipse class="cls-5" cx="447.07" cy="355.42" rx="13.48" ry="7.8"/><polygon class="cls-5" points="433.58 351.64 433.58 355.75 460.54 355.75 460.54 351.37 433.58 351.64"/><ellipse class="cls-3" cx="447.07" cy="351.37" rx="13.48" ry="7.8"/><g class="cls-12"><path class="cls-20" d="M461.79,326.05a1.6,1.6,0,0,1,.43.11l-4.67-1.89-.23-.07a1.2,1.2,0,0,0-.2,0l-.1,0H457a1.71,1.71,0,0,0-.45,0l-1.95.37,4.66,1.89,1.95-.37a1.79,1.79,0,0,1,.51,0Z"/><path class="cls-20" d="M453.82,342.61l-4.67-1.89,1.38,1.35a1.93,1.93,0,0,0,.28.22,2.28,2.28,0,0,0,.3.17l4.67,1.88a1.84,1.84,0,0,1-.59-.39Z"/><path class="cls-20" d="M444.86,348.16v-2.28L440.2,344v.36l-3.26-1.31c.25.12.5.24.76.34l2.5,1v1.88a2.21,2.21,0,0,0,1.27,2.16l4.66,1.89A2.23,2.23,0,0,1,444.86,348.16Z"/><path class="cls-20" d="M449.31,339.58l.39-.19.25-.14.36-.23.25-.16.35-.27c.07-.06.15-.11.22-.18l.1-.07.09-.09a9.41,9.41,0,0,0,.83-.84h0a8,8,0,0,0,.61-.8l.08-.09.09-.15c.13-.2.25-.4.37-.61l.1-.15a.36.36,0,0,0,0-.09c.15-.28.3-.57.42-.86v0s0,0,0-.06c.12-.29.23-.59.33-.89,0,0,0-.08,0-.13l0-.13a11.08,11.08,0,0,0,.28-1.17v0c0-.17.05-.34.07-.51l0-.28c0-.28,0-.55,0-.83,0-3.17-1.55-5.63-3.82-6.55l-4.66-1.88c2.27.91,3.82,3.37,3.81,6.55a7.5,7.5,0,0,1,0,.82,2.4,2.4,0,0,1,0,.28c0,.18,0,.36-.07.53a11.86,11.86,0,0,1-.27,1.18c0,.08,0,.17-.08.26-.1.3-.2.6-.33.89,0,0,0,.05,0,.07a8.79,8.79,0,0,1-.43.87l-.13.24c-.12.21-.25.41-.38.61l-.16.24c-.2.27-.4.54-.62.79v0a9.39,9.39,0,0,1-.84.83l-.18.17-.23.18-.35.26-.24.17-.37.22-.25.15-.39.19-.25.11a3.52,3.52,0,0,1-.42.15,5.7,5.7,0,0,1-.92.26,5.18,5.18,0,0,1-.78.09H442a3.11,3.11,0,0,1-.53,0h-.19a5.89,5.89,0,0,1-.63-.11h-.07a6,6,0,0,1-.72-.23l4.67,1.88a5.73,5.73,0,0,0,.7.23h0l.07,0a6.17,6.17,0,0,0,.62.1l.19,0,.18,0h.6a6.93,6.93,0,0,0,.78-.1,7.36,7.36,0,0,0,.92-.25l.11,0,.22-.09.09,0Z"/><path class="cls-20" d="M448.45,316.72a9.4,9.4,0,0,0-1.17-.38h0l-.06,0a11.87,11.87,0,0,0-1.24-.21l4.67,1.89a8.45,8.45,0,0,1,1.24.21h.06c.24.06.47.15.7.23l1.25.5,1.38-1.87c.09-.12.2-.23.3-.34l.12-.11a2.75,2.75,0,0,1,.26-.22l.12-.08a2.24,2.24,0,0,1,.4-.22h0a2.44,2.44,0,0,1,.44-.13,2.19,2.19,0,0,1,.51,0l.09,0a1.46,1.46,0,0,1,.45.1l-4.67-1.88-.23-.08a1.52,1.52,0,0,0-.21,0h-.15a1.81,1.81,0,0,0-.46,0l-.31.09-.12,0h0l-.39.21-.11.09-.21.15-.06.06-.12.12a1.59,1.59,0,0,0-.13.13,1.92,1.92,0,0,0-.16.21L449.22,317Z"/><path class="cls-20" d="M436.2,346.68a1.72,1.72,0,0,1-.32-.43l-.08-.15c-.05-.12-.1-.24-.14-.36a1.33,1.33,0,0,1-.05-.19,2.76,2.76,0,0,1-.06-.4c0-.06,0-.12,0-.18a3,3,0,0,1,0-.6,4.37,4.37,0,0,1,.12-.49l0-.09a3.2,3.2,0,0,1,.16-.39l0-.09c.08-.15.18-.3.28-.45l1.38-1.86a12.48,12.48,0,0,1-.79-1.69,13.39,13.39,0,0,1-.55-1.86L432,335.74a1.25,1.25,0,0,1,0-.19v-1.24a3.39,3.39,0,0,1,0-.55l0-.06a3,3,0,0,1,.11-.43s0-.08,0-.12.1-.25.16-.37l0-.08a2.55,2.55,0,0,1,.24-.39l.08-.1A2.62,2.62,0,0,1,433,332l.13-.13a2.11,2.11,0,0,1,.23-.19l.15-.11.27-.15.14-.07a2.25,2.25,0,0,1,.44-.14l1.95-.37c.1-.48.23-1,.37-1.43,0-.15.08-.29.13-.43s.09-.28.14-.42.13-.37.2-.56l.16-.4c.11-.28.23-.55.36-.82l-1.38-1.35a1.92,1.92,0,0,1-.32-.43l-.08-.15a2.67,2.67,0,0,1-.14-.36,1.33,1.33,0,0,1-.05-.19,2.76,2.76,0,0,1-.06-.4,1.09,1.09,0,0,1,0-.18,3,3,0,0,1,0-.6,4.37,4.37,0,0,1,.12-.49l0-.09a3.2,3.2,0,0,1,.16-.39l0-.09a4.21,4.21,0,0,1,.28-.45l.76-1a3.24,3.24,0,0,1,.29-.34l.12-.12.27-.21.11-.09.08,0,3.77,1.52.52-.43.32-.26c.15-.12.31-.23.47-.34l.31-.22c.17-.12.36-.23.54-.34l.27-.16c.27-.16.55-.3.83-.44v-2.27a3.31,3.31,0,0,1,0-.55.14.14,0,0,0,0-.07,3.39,3.39,0,0,1,.11-.43s0-.07,0-.11.1-.25.16-.37l0-.08a3.34,3.34,0,0,1,.25-.4l.07-.09a2.75,2.75,0,0,1,.22-.26,1.59,1.59,0,0,0,.13-.13l.23-.19.15-.11a1.91,1.91,0,0,1,.28-.15l.14-.07a2.25,2.25,0,0,1,.44-.14l1.06-.2a2.25,2.25,0,0,1,.51,0l.11,0a2.07,2.07,0,0,1,.43.1l-4.67-1.88-.23-.08-.2,0h-.16a1.71,1.71,0,0,0-.45,0l-1.07.2a1.89,1.89,0,0,0-.34.09l-.07,0h0L442,312l-.27.16a.83.83,0,0,0-.15.11l-.16.11a.27.27,0,0,0-.07.08l-.13.13a.52.52,0,0,0-.11.1l-.12.15a.86.86,0,0,0-.07.1l0,.05c-.07.1-.13.2-.19.3a.08.08,0,0,1,0,0,.2.2,0,0,1,0,.08l-.09.2a1.77,1.77,0,0,0-.06.17l-.05.12a.25.25,0,0,1,0,.07c0,.12-.06.24-.09.36s0,0,0,.07h0a3.07,3.07,0,0,0-.05.53v2.28c-.29.13-.57.28-.84.43l-.27.17-.54.34-.31.22c-.16.11-.32.22-.47.34l-.07.05-2.73-1.1-.23-.07-.21,0-.1,0h0a1.75,1.75,0,0,0-.46,0l-.31.08-.13.05h0a3.72,3.72,0,0,0-.39.21L433,318a1.56,1.56,0,0,0-.2.16s-.05,0-.07.06l-.12.12-.12.12-.17.21-.76,1-.06.08a1.92,1.92,0,0,0-.18.31s0,0,0,.06l-.05.09-.08.16c0,.08-.05.15-.08.22l0,.1,0,0a3.48,3.48,0,0,0-.1.44h0a2.43,2.43,0,0,0,0,.6c0,.06,0,.11,0,.17a2.57,2.57,0,0,0,.06.4c0,.07,0,.13,0,.19a3,3,0,0,0,.14.36l.08.16a2.24,2.24,0,0,0,.33.43l1.37,1.34c-.1.21-.19.43-.28.64,0,.06-.05.12-.08.19l-.15.4c-.08.18-.14.37-.21.55l-.14.42-.09.26a1.16,1.16,0,0,1,0,.18c-.14.47-.26.94-.36,1.43l-2,.37a2.25,2.25,0,0,0-.35.09l-.07,0h0l-.13.07-.28.15-.15.11-.15.12-.08.07-.13.13-.1.11-.12.15-.07.09,0,.05a3.21,3.21,0,0,0-.19.31l0,0a.59.59,0,0,1,0,.08l-.09.19a1.34,1.34,0,0,0-.07.18s0,.07,0,.11a.19.19,0,0,0,0,.07c0,.12-.06.24-.09.36s0,.05,0,.07h0a4.55,4.55,0,0,0,0,.53v1.25a2.23,2.23,0,0,0,1.26,2.17l3.49,1.41a11.25,11.25,0,0,0,.85,1.86L431.54,341l-.06.09a1.49,1.49,0,0,0-.18.3s0,0,0,.06l0,.09a1.19,1.19,0,0,1-.08.16c0,.08-.05.15-.08.22l0,.1,0,0a3.93,3.93,0,0,0-.1.44h0a2.43,2.43,0,0,0,0,.6c0,.06,0,.11,0,.17a2.9,2.9,0,0,0,.06.41c0,.06,0,.12.05.18a3,3,0,0,0,.14.36c0,.05.05.11.08.16a2.24,2.24,0,0,0,.33.43l.75.73a1.68,1.68,0,0,0,.59.39l4.66,1.89a1.85,1.85,0,0,1-.58-.39Z"/><path class="cls-17" d="M461.17,326.07c1.28-.25,2.31.76,2.31,2.25v1.25a3.21,3.21,0,0,1-2.32,3.14l-2,.37a17.63,17.63,0,0,1-1.36,4.06l1.38,1.35a3,3,0,0,1,0,3.82l-.75,1a2.75,2.75,0,0,1-1.64,1.1,1.8,1.8,0,0,1-1.64-.48l-1.37-1.34a13.91,13.91,0,0,1-3.26,2.19v2.28a3.22,3.22,0,0,1-2.32,3.14l-1.07.2c-1.28.25-2.31-.77-2.31-2.26v-2.28a8.8,8.8,0,0,1-3.25-.95l-1.38,1.87a2.72,2.72,0,0,1-1.64,1.1,1.8,1.8,0,0,1-1.63-.48l-.76-.74a3,3,0,0,1,0-3.82l1.38-1.86a12.87,12.87,0,0,1-1.34-3.55l-1.95.37c-1.28.24-2.31-.77-2.31-2.27v-1.24a3.2,3.2,0,0,1,2.31-3.14l1.95-.37a17.79,17.79,0,0,1,1.36-4.06l-1.38-1.35a3,3,0,0,1,0-3.82l.76-1a2.72,2.72,0,0,1,1.63-1.11,1.79,1.79,0,0,1,1.64.49l1.37,1.34a14.22,14.22,0,0,1,3.26-2.19v-2.27a3.21,3.21,0,0,1,2.32-3.15l1.06-.2a2,2,0,0,1,2.31,2.26V318a8.93,8.93,0,0,1,3.25.95l1.38-1.87a2.75,2.75,0,0,1,1.64-1.1,1.83,1.83,0,0,1,1.64.48l.75.74a3,3,0,0,1,0,3.82l-1.38,1.87a12.33,12.33,0,0,1,1.34,3.55Zm-13.45,14c3.86-.73,7-5,7-9.49s-3.12-7.56-7-6.83-7,5-7,9.49,3.12,7.57,7,6.83"/></g><ellipse class="cls-21" cx="250.07" cy="264.44" rx="64.46" ry="37.3"/><path class="cls-22" d="M309.86,161.89v89.84h-.15a21.92,21.92,0,0,1-.71,3.48h0c-4.8,16.36-29.4,28.83-59.06,28.83s-54.26-12.47-59.06-28.83h0a21.92,21.92,0,0,1-.71-3.48H190V161.89Z"/><path class="cls-23" d="M309.86,212.1v39.63h-.15a21.92,21.92,0,0,1-.71,3.48h0c-12.49,11.22-34.27,18.65-59.06,18.65s-46.57-7.43-59.06-18.65h0a21.92,21.92,0,0,1-.71-3.48H190V212.1a53.47,53.47,0,0,1,9.3-7c12.77-7.69,30.73-12.48,50.62-12.48s37.85,4.79,50.62,12.48A53.47,53.47,0,0,1,309.86,212.1Z"/><path class="cls-22" d="M309.86,193.35v42.31c-12.33,11.67-34.55,19.45-59.92,19.45s-47.59-7.78-59.92-19.45V193.35c12.33-11.67,34.55-19.46,59.92-19.46S297.53,181.68,309.86,193.35Z"/><path class="cls-23" d="M309.86,174.59v42.32c-12.33,11.67-34.55,19.45-59.92,19.45s-47.59-7.78-59.92-19.45V174.59c5.36-5.07,12.59-9.41,21.15-12.7h77.54C297.27,165.18,304.5,169.52,309.86,174.59Z"/><path class="cls-22" d="M309.86,161.89v36.26a54,54,0,0,1-9.3,7c-12.77,7.68-30.73,12.47-50.62,12.47s-37.85-4.79-50.62-12.47a54,54,0,0,1-9.3-7V161.89Z"/><ellipse class="cls-23" cx="249.94" cy="161.89" rx="59.92" ry="34.67"/><ellipse class="cls-24" cx="249.94" cy="161.89" rx="36.52" ry="21.13"/><polygon class="cls-24" points="213.43 153.79 213.43 161.89 286.46 161.89 286.46 153 213.43 153.79"/><ellipse class="cls-10" cx="249.94" cy="153.79" rx="36.52" ry="21.13"/><ellipse class="cls-25" cx="249.94" cy="153.79" rx="30.1" ry="17.41"/><g class="cls-12"><polygon class="cls-24" points="258.63 139.84 261.33 141.21 257.8 142.97 273.99 151.21 270.62 152.89 254.42 144.66 250.9 146.42 248.2 145.05 258.63 139.84"/></g><g class="cls-12"><polygon class="cls-24" points="247.16 145.57 249.85 146.94 244.3 149.71 249.56 152.39 253.92 150.21 256.62 151.58 252.26 153.76 260.49 157.94 257.12 159.63 238.23 150.02 247.16 145.57"/></g><g class="cls-12"><polygon class="cls-24" points="235.71 151.28 254.6 160.88 251.14 162.61 233.29 157.62 233.24 157.65 247.03 164.66 244.02 166.16 225.13 156.56 229.36 154.45 243.95 158.56 244.01 158.53 232.7 152.78 235.71 151.28"/></g><ellipse class="cls-5" cx="100.13" cy="341.73" rx="13.48" ry="7.8"/><polygon class="cls-5" points="86.65 337.95 86.65 342.06 113.6 342.06 113.6 337.68 86.65 337.95"/><ellipse class="cls-3" cx="100.13" cy="337.68" rx="13.48" ry="7.8"/><g class="cls-12"><path class="cls-9" d="M114.24,314a1.93,1.93,0,0,1,.43.1L110,312.23l-.24-.08-.19,0h-.16a1.81,1.81,0,0,0-.46,0l-1.95.37,4.67,1.89,1.95-.37a2.19,2.19,0,0,1,.51,0Z"/><path class="cls-9" d="M106.27,330.56l-4.66-1.88L103,330a2,2,0,0,0,.28.23,1.82,1.82,0,0,0,.31.16l4.67,1.88a1.62,1.62,0,0,1-.59-.38Z"/><path class="cls-9" d="M97.31,336.11v-2.27L92.65,332v.36L89.4,331a6.36,6.36,0,0,0,.75.34l2.5,1v1.88a2.22,2.22,0,0,0,1.26,2.17l4.67,1.88A2.24,2.24,0,0,1,97.31,336.11Z"/><path class="cls-9" d="M101.76,327.54l.39-.2.25-.14.37-.22.24-.17.35-.26.23-.18.09-.08.09-.09a8.33,8.33,0,0,0,.84-.84h0c.22-.25.42-.52.62-.79a.86.86,0,0,1,.07-.1,1.19,1.19,0,0,0,.09-.15c.13-.19.26-.4.38-.6s.07-.11.1-.16a.2.2,0,0,1,0-.08c.15-.29.29-.57.42-.87h0l0-.06c.12-.3.22-.59.32-.9a.78.78,0,0,0,.08-.25,11.86,11.86,0,0,0,.27-1.18v0l.06-.51c0-.09,0-.18,0-.28,0-.27,0-.55,0-.82,0-3.18-1.54-5.64-3.81-6.56l-4.67-1.88c2.27.92,3.82,3.37,3.82,6.55,0,.28,0,.55,0,.83,0,.09,0,.18,0,.28l-.06.53a11.08,11.08,0,0,1-.28,1.17,2.58,2.58,0,0,1-.08.26,9.44,9.44,0,0,1-.32.89l0,.07q-.19.45-.42.87l-.14.24c-.12.21-.24.41-.37.61l-.17.24a9.5,9.5,0,0,1-.62.8h0a9.29,9.29,0,0,1-.83.83l-.19.17-.23.18-.35.27-.24.16-.36.23-.26.14-.39.19-.25.11-.41.16a7.36,7.36,0,0,1-.92.25,5.49,5.49,0,0,1-.78.09H94l-.19,0a4.62,4.62,0,0,1-.63-.11h-.06a5.5,5.5,0,0,1-.72-.23L97,327.78a5.33,5.33,0,0,0,.71.22h.08a4.14,4.14,0,0,0,.63.1l.19,0,.18,0h.6a7,7,0,0,0,.77-.09,5.7,5.7,0,0,0,.92-.26l.12,0,.22-.08.08,0Z"/><path class="cls-9" d="M100.9,304.68a8,8,0,0,0-1.17-.38h-.09a8.68,8.68,0,0,0-1.24-.21l4.66,1.88a9.72,9.72,0,0,1,1.24.21h.07c.23.06.46.15.69.23l1.26.51L107.7,305a3.11,3.11,0,0,1,.29-.33l.12-.12.27-.21.11-.09a2.19,2.19,0,0,1,.4-.21h0a2.23,2.23,0,0,1,.44-.13,2.07,2.07,0,0,1,.5,0l.1,0a2.16,2.16,0,0,1,.44.1l-4.66-1.88-.24-.08-.21,0h-.14a2.38,2.38,0,0,0-.46,0,1.57,1.57,0,0,0-.31.08l-.13.05h0a1.86,1.86,0,0,0-.39.21l-.11.08-.2.15-.07.06-.11.12-.13.13-.17.21L101.67,305Z"/><path class="cls-9" d="M88.66,334.64a2,2,0,0,1-.33-.44.69.69,0,0,1-.07-.15,1.94,1.94,0,0,1-.15-.36c0-.06,0-.12,0-.19s0-.26-.06-.4,0-.12,0-.18a4,4,0,0,1,0-.59,3.89,3.89,0,0,1,.12-.49l0-.1c0-.13.1-.26.16-.39a.56.56,0,0,1,0-.08,2.6,2.6,0,0,1,.28-.45L90.05,329a11.75,11.75,0,0,1-.79-1.68,13.55,13.55,0,0,1-.56-1.87l-4.23-1.71c0-.06,0-.12,0-.18v-1.25a3.29,3.29,0,0,1,0-.54s0-.05,0-.07.07-.29.11-.43a.76.76,0,0,0,0-.11c0-.13.1-.26.16-.38a.2.2,0,0,0,0-.08c.08-.13.16-.26.25-.39l.07-.09.22-.26.13-.13.23-.19.15-.11a2.49,2.49,0,0,1,.28-.15l.14-.07a2.25,2.25,0,0,1,.44-.14l2-.37c.1-.48.22-1,.36-1.43l.13-.43c.05-.14.09-.28.14-.42l.21-.55c0-.14.1-.27.16-.41s.23-.55.35-.82l-1.37-1.35a1.76,1.76,0,0,1-.33-.43.69.69,0,0,1-.07-.15,1.94,1.94,0,0,1-.15-.36c0-.06,0-.12-.05-.19a2.57,2.57,0,0,1-.06-.4c0-.06,0-.12,0-.18a4,4,0,0,1,0-.59,4.54,4.54,0,0,1,.12-.5l0-.09c0-.13.1-.26.16-.39l.05-.09a3.68,3.68,0,0,1,.28-.45l.75-1a3.17,3.17,0,0,1,.3-.34,1.14,1.14,0,0,1,.11-.11l.27-.22.11-.08.09-.05,3.77,1.53.51-.43.32-.26.47-.35.31-.22.54-.33.27-.17c.28-.15.55-.3.84-.43v-2.28a3.41,3.41,0,0,1,0-.55.14.14,0,0,1,0-.06,3,3,0,0,1,.1-.43l0-.12a2.43,2.43,0,0,1,.16-.37l0-.08a3.73,3.73,0,0,1,.25-.39.86.86,0,0,1,.07-.1c.07-.09.15-.17.23-.26l.13-.13.23-.19.15-.11.27-.15.14-.07a1.71,1.71,0,0,1,.44-.13l1.07-.21a2.18,2.18,0,0,1,.51,0h.1a1.51,1.51,0,0,1,.43.11l-4.66-1.89-.24-.07a1.25,1.25,0,0,0-.19,0l-.11,0h0a2.45,2.45,0,0,0-.46,0l-1.07.2a2.56,2.56,0,0,0-.34.1l-.07,0,0,0-.13.07a1.51,1.51,0,0,0-.28.15l-.15.11a.88.88,0,0,0-.15.12l-.08.07-.13.13-.11.11s-.07.1-.11.15l-.08.09,0,.05-.18.3,0,0a.2.2,0,0,0,0,.08l-.1.19-.06.18s0,.07,0,.11l0,.07c0,.12-.06.24-.08.36s0,.05,0,.07h0a4.75,4.75,0,0,0,0,.53v2.28c-.28.14-.56.28-.84.44l-.27.16-.54.34-.31.22-.47.34-.07.06-2.72-1.1-.23-.08a1.46,1.46,0,0,0-.22,0h-.14a1.81,1.81,0,0,0-.77.12l-.12,0h0a2.42,2.42,0,0,0-.39.21l-.12.09-.2.15-.06.06-.12.12-.13.13a1.93,1.93,0,0,0-.17.21l-.75,1-.06.09c-.07.1-.13.2-.19.3l0,.06,0,.09a1.3,1.3,0,0,0-.08.17.83.83,0,0,0-.08.22.36.36,0,0,0,0,.09v0a3.69,3.69,0,0,0-.11.45h0a4,4,0,0,0,0,.6.88.88,0,0,0,0,.17,2.7,2.7,0,0,0,.06.41,1.8,1.8,0,0,0,0,.19,1.78,1.78,0,0,0,.14.36l.07.15a2.34,2.34,0,0,0,.33.43l1.38,1.35c-.1.21-.2.42-.29.63l-.07.19c-.06.13-.11.27-.16.4l-.21.56c0,.14-.09.27-.13.41l-.09.26c0,.06,0,.12,0,.18-.13.47-.26.95-.36,1.43l-2,.37a1.89,1.89,0,0,0-.34.09l-.07,0,0,0-.14.06a2.4,2.4,0,0,0-.27.16.83.83,0,0,0-.15.11l-.16.11-.07.08-.13.13a.52.52,0,0,0-.11.1l-.12.15-.07.1,0,.05a2.16,2.16,0,0,0-.18.3l0,0,0,.08-.1.2-.06.17a.76.76,0,0,0,0,.11l0,.07c0,.12-.06.24-.08.37s0,0,0,.06h0a3.29,3.29,0,0,0,0,.54v1.24A2.22,2.22,0,0,0,81,323.79l3.49,1.41a12.13,12.13,0,0,0,.85,1.86L84,328.93l-.06.09c-.07.1-.13.2-.19.3l0,.06,0,.09a1.3,1.3,0,0,0-.08.17,1.43,1.43,0,0,0-.08.22l0,.09s0,0,0,0a3.69,3.69,0,0,0-.11.45h0a4,4,0,0,0,0,.6,1.1,1.1,0,0,0,0,.18,2.76,2.76,0,0,0,.06.4,1.8,1.8,0,0,0,0,.19,1.78,1.78,0,0,0,.14.36l.07.15a2.34,2.34,0,0,0,.33.43l.75.74a2,2,0,0,0,.59.39L90,335.76a1.84,1.84,0,0,1-.59-.39Z"/><path class="cls-10" d="M113.63,314c1.27-.24,2.31.77,2.3,2.26v1.24a3.19,3.19,0,0,1-2.32,3.14l-2,.38a18.44,18.44,0,0,1-1.35,4.06l1.37,1.34a3,3,0,0,1,0,3.82l-.76,1a2.74,2.74,0,0,1-1.64,1.11,1.8,1.8,0,0,1-1.63-.48l-1.38-1.35a13.41,13.41,0,0,1-3.26,2.19V335a3.19,3.19,0,0,1-2.32,3.14l-1.07.21c-1.27.24-2.31-.78-2.31-2.27v-2.27a8.8,8.8,0,0,1-3.26-1l-1.38,1.87a2.7,2.7,0,0,1-1.63,1.1,1.79,1.79,0,0,1-1.64-.48l-.75-.73a3,3,0,0,1,0-3.82L90.05,329a12.88,12.88,0,0,1-1.35-3.55l-2,.37c-1.27.24-2.3-.77-2.3-2.26v-1.25a3.2,3.2,0,0,1,2.32-3.14l2-.37a18.44,18.44,0,0,1,1.35-4.06l-1.37-1.35a3,3,0,0,1,0-3.82l.75-1a2.72,2.72,0,0,1,1.64-1.1,1.8,1.8,0,0,1,1.63.48l1.38,1.35A13.41,13.41,0,0,1,97.37,307v-2.28a3.19,3.19,0,0,1,2.32-3.14l1.07-.21c1.28-.24,2.31.78,2.31,2.27V306a8.86,8.86,0,0,1,3.26,1L107.7,305a2.69,2.69,0,0,1,1.64-1.1,1.8,1.8,0,0,1,1.63.48l.75.74a3,3,0,0,1,0,3.82l-1.39,1.87a12.46,12.46,0,0,1,1.35,3.55Zm-13.46,14c3.87-.74,7-5,7-9.49s-3.11-7.57-7-6.84-7,5-7,9.49,3.11,7.57,7,6.84"/></g></g></g></svg>