<svg xmlns="http://www.w3.org/2000/svg" viewBox="0 0 962.7 677.64"><defs><style>.cls-1{opacity:0.15;}.cls-2{fill:#d67086;}.cls-3{fill:#8cabef;}.cls-4{fill:#fff;}.cls-5{fill:#353a85;}.cls-6{fill:#292949;}.cls-7{fill:#5d66d3;}</style></defs><g id="Layer_2" data-name="Layer 2"><g id="shadow"><g class="cls-1"><path class="cls-2" d="M441.66,571.85c-28.19.09-56.38.76-84.52,3.89-10.62,1.18-21,3.78-31.64,4.83-21.24,2.09-42.11,6-63.43,7.79-17.16,1.45-34.4,2.31-51.52,4.14A181,181,0,0,1,160.81,591c-11.79-2.11-23.64-3.29-35.23-6.68-13-3.79-27-6.5-40.56-6.4-19.27.14-38,.15-56.47,6.84-6.47,2.35-14.39,6.21-19.31,11.14C-2,607.16-3.53,635.31,7.7,647,26.62,666.71,67,674.43,93.53,674.8c29.06.4,57.29-1.76,86.4-3,27-1.18,54-2.85,81.11-2.79,55.33.12,110.67,0,165.89-3.7,51.89-3.47,103.91-2.28,155.91-2.28,53.33,0,106.29.42,159.24,7.51,23.06,3.08,46.56,4.17,69.75,6.33,20.76,1.94,40.71,0,61.39-1.83a146.41,146.41,0,0,0,50.39-13.5c12.49-6,34.75-24.51,38.58-38.75,10.74-39.94-151.3-39-176.18-38.89-27.83.1-55.88,1-83.69,0-11.7-.45-23.23-2.74-34.64-5.24s-22.83-1.86-34.37-2.91c-48.09-4.38-96.29-3.74-144.53-3.74C473.08,571.94,457.37,571.81,441.66,571.85Z"/></g></g><g id="object"><ellipse class="cls-3" cx="189.1" cy="98.95" rx="71.38" ry="71.66"/><path class="cls-4" d="M224.32,114.09a14,14,0,0,0-12.62,8L181.54,118a20,20,0,0,0-6.45-13.87l17-24.62A16.64,16.64,0,1,0,182,64.19a16.55,16.55,0,0,0,3.65,10.38L168.09,99.92a19.87,19.87,0,0,0-6.62-1.12,20.08,20.08,0,1,0,18.67,27.5l30.42,4.12a14,14,0,1,0,13.76-16.33Z"/><circle class="cls-5" cx="435.07" cy="192.12" r="169.21"/><path class="cls-4" d="M570.88,133.62A150,150,0,0,0,539.3,85.85a147,147,0,0,0-46.85-32.2,145.3,145.3,0,0,0-114.76,0,147,147,0,0,0-46.85,32.2,150,150,0,0,0-31.58,47.77,153.43,153.43,0,0,0,0,117,149.94,149.94,0,0,0,31.58,47.77,146.88,146.88,0,0,0,46.85,32.21,145.3,145.3,0,0,0,114.76,0,146.88,146.88,0,0,0,46.85-32.21,149.94,149.94,0,0,0,31.58-47.77,153.43,153.43,0,0,0,0-117Zm-3.24,58.5a138.49,138.49,0,0,1-3.82,32.4h-44.3a174,174,0,0,0,4-37A167.75,167.75,0,0,0,520,153H562A138.16,138.16,0,0,1,567.64,192.12ZM528.81,96.55a135.06,135.06,0,0,1,27.77,41.36H516q-2.22-7.12-5.1-14.06a174.66,174.66,0,0,0-27.57-45,191.23,191.23,0,0,0-17.5-18.25A131.08,131.08,0,0,1,528.81,96.55ZM442.49,60.81a172.35,172.35,0,0,1,29.59,27.87,159.27,159.27,0,0,1,25.19,41.08q1.68,4,3.11,8.15H442.49ZM504.76,153a151.72,151.72,0,0,1,3.91,34.46,158.41,158.41,0,0,1-4.39,37H442.49V153ZM363.43,187.49a152.28,152.28,0,0,1,3.9-34.46h60.32v71.49H367.82A158.41,158.41,0,0,1,363.43,187.49Zm64.22-125.2v75.62H371.72q1.38-4,3-7.83a159.1,159.1,0,0,1,25-41A173.86,173.86,0,0,1,427.65,62.29ZM341.33,96.55A131,131,0,0,1,406.91,60a191.29,191.29,0,0,0-18.17,18.85,174.93,174.93,0,0,0-27.57,45q-2.88,6.93-5.1,14.06H313.56A135.06,135.06,0,0,1,341.33,96.55ZM308.1,153h44a167.75,167.75,0,0,0-3.54,34.46,174,174,0,0,0,4,37H306.32A139.27,139.27,0,0,1,308.1,153ZM341.33,287.7a135.25,135.25,0,0,1-30.44-48.06h45.7c1.34,4.3,2.85,8.58,4.53,12.81a203.37,203.37,0,0,0,27.4,48,227.58,227.58,0,0,0,21.54,24.41A130.86,130.86,0,0,1,341.33,287.7Zm58.91,3.51a187.71,187.71,0,0,1-25.36-44.43c-.94-2.36-1.83-4.75-2.65-7.14h55.42v81.15A209.64,209.64,0,0,1,400.24,291.21Zm42.25,31.28V239.64h57.38q-1.19,3.45-2.54,6.87a187.8,187.8,0,0,1-25.17,44.31A209.11,209.11,0,0,1,442.49,322.49Zm86.32-34.79a130.92,130.92,0,0,1-66.26,36.69,226,226,0,0,0,21-23.9,203,203,0,0,0,27.4-48c1.68-4.23,3.19-8.51,4.53-12.81h43.74A135.25,135.25,0,0,1,528.81,287.7Z"/><polygon class="cls-6" points="448.07 273.23 500.67 490.86 543.41 447.84 594.22 514.12 618.47 495.53 642.72 476.94 591.91 410.66 644.56 380.57 448.07 273.23"/><path class="cls-4" d="M646.1,473.52,629,451.15,601.6,415.47l-4.8-6.27L640.91,384l6.59-3.76c1.57-.9.84-3.08-.43-3.77l-19.58-10.7-47-25.67-56.65-30.95-49-26.76-16.26-8.88c-2.54-1.39-5-3-7.67-4.19l-.34-.19a1.78,1.78,0,0,0-2.14.18,1.7,1.7,0,0,0-.93,2.08q2.63,10.85,5.24,21.69,6.3,26,12.59,52.06,7.57,31.38,15.16,62.74,6.56,27.13,13.12,54.26c2.13,8.84,4.24,17.68,6.4,26.51l.09.37a2.23,2.23,0,0,0,3.9,1.12l37.39-37.64,3.41-3.43,15.61,20.36,27.35,35.69,6.31,8.23a2.24,2.24,0,0,0,3.08.44l38.61-29.6,9.89-7.57A2.24,2.24,0,0,0,646.1,473.52Zm-41.69,29.16-8.16,6.25q-7.9-10.29-15.8-20.6-13.66-17.85-27.35-35.69-3.15-4.11-6.31-8.23a2.23,2.23,0,0,0-3.48-.05L505.92,482c-.81.82-1.62,1.63-2.42,2.45l-4.26-17.63q-6.3-26-12.59-52.06-7.57-31.38-15.16-62.75-6.56-27.12-13.12-54.26-2.7-11.16-5.39-22.34l15.41,8.42,47,25.68L572,340.45l49,26.76,16.26,8.89c1.39.75,2.81,1.67,4.26,2.5L598.8,403l-6.58,3.76a2.22,2.22,0,0,0-.45,3.08q8.58,11.17,17.15,22.37l27.35,35.68,5,6.51Z"/><circle class="cls-7" cx="695.21" cy="88.32" r="88.32"/><path class="cls-4" d="M757.09,76.94a28.78,28.78,0,0,0-32.31-13.19h-.07a13.11,13.11,0,0,0-8.28,8.46A.76.76,0,0,1,715,71.8a14.53,14.53,0,0,1,8.68-9.25c-4.33-14-17.5-23.87-32-22.77-14.24,1.08-25.81,12.17-28.57,26.4a19.24,19.24,0,0,1,3.51,1.23,24.13,24.13,0,0,1,10.55,10.14.76.76,0,0,1-1.3.78,25,25,0,0,0-2.87-4,20,20,0,0,0-15.87-7.07,25.62,25.62,0,0,0-16.88,8.24,26.13,26.13,0,0,0-6.65,19.59,25.38,25.38,0,0,0,9.74,17.86,30.06,30.06,0,0,0,17.47,6c4.16.16,8.34.22,12.5.28,11.92.17,23.84.21,35.75.25l15.71,0c4.3,0,8.82.36,13.06-.48,13.85-2.74,24.34-15.77,23-30.46A28.12,28.12,0,0,0,757.09,76.94Z"/><circle class="cls-7" cx="327.54" cy="413.14" r="67.26" transform="translate(-196.2 352.61) rotate(-45)"/><path class="cls-4" d="M375.41,390a14.7,14.7,0,0,0-12.59-7.27H341.4c-4.49,0-9,0-13.45,0a14.72,14.72,0,0,0-10.78,4.56,15.22,15.22,0,0,0-3.94,10.39H306c-4.49,0-9,0-13.45,0a14.72,14.72,0,0,0-10.78,4.56,15.32,15.32,0,0,0-4,10.76v8.72c0,2.63-.19,5.37.44,7.94a14.67,14.67,0,0,0,10.27,10.49,22.25,22.25,0,0,0,5.81.5h33.1a14.17,14.17,0,0,0,14.3-12.68h0v-.09c.09-.72.15-1.44.17-2.18h21A14.67,14.67,0,0,0,375.62,418c1.56-3,1.73-6,1.73-9.3v-9.32C377.35,396.08,377.12,392.92,375.41,390Zm-46.9,14.28.08,0c.39.08.77.16,1.14.27l.55.18.16.05.12.06a13.81,13.81,0,0,1,1.25.7l.46.32.23.19a11.49,11.49,0,0,1,1.28,1.33v0l.07.11c.15.25.31.48.45.72s.57,1.23.45.88c.15.42.29.84.4,1.28l.12.59s.05.48.06.59c.11,2.08,0,4.19,0,6.27v1.3h-7.62c-.35,0-.69,0-1-.05.17,0-.84-.17-1-.22l-.83-.26-.11,0h0c-.56-.27-1.08-.6-1.61-.91l-.2-.14-.47-.41a13.44,13.44,0,0,1-1-1l-.1-.1a1.15,1.15,0,0,0-.08-.14c-.09-.16-.21-.32-.31-.48s-.28-.49-.41-.75a4,4,0,0,1-.17-.36l0,0a11.66,11.66,0,0,1-.45-1.53c0-.1,0-.2-.05-.3s-.06-.53-.07-.6c0-.32,0-.64,0-.95,0-2.21,0-4.41,0-6.62h7.61A10.88,10.88,0,0,1,328.51,404.24ZM335.32,427v.16a16.45,16.45,0,0,1-.49,1.83,1.28,1.28,0,0,1-.07.21c-.09.19-.19.39-.3.58-.18.34-.39.67-.6,1,0,0-.3.39-.35.44s-.25.28-.38.42-.4.4-.62.58l-.26.23-.08.05a12.89,12.89,0,0,1-1.34.81l-.27.13c-.06,0-.48.18-.54.2a14.06,14.06,0,0,1-1.42.36l-.15,0h-.16l-.9,0H292.29c-.35,0-.69,0-1-.05.17,0-.84-.17-1-.23s-.55-.17-.83-.26l-.11,0,0,0a17,17,0,0,1-1.61-.91l-.2-.13c-.16-.14-.32-.27-.47-.42a13.31,13.31,0,0,1-1-1l-.09-.1-.09-.14c-.09-.17-.21-.32-.3-.48s-.29-.49-.42-.75-.12-.24-.17-.36l0,0a11.8,11.8,0,0,1-.45-1.54c0-.1,0-.2-.05-.3s-.06-.53-.07-.59c0-.32,0-.64,0-1,0-2.56,0-5.13,0-7.7,0-2.06-.06-4.13,0-6.19,0-.2,0-.4,0-.6a1,1,0,0,0,0-.16s0-.09,0-.15c.12-.47.21-.95.37-1.41,0-.07.22-.56.2-.55l.19-.39c.12-.21.23-.42.36-.62s.44-.64.45-.68a9.37,9.37,0,0,1,.8-.87c.17-.17.34-.32.52-.48l.23-.18c.35-.24.71-.47,1.09-.68l.55-.27c-.05,0,.55-.2.65-.23a10,10,0,0,1,1.41-.34l.18,0c.3,0,.6,0,.91,0h20.92v.14h0v.42h0v2c0,2.63-.19,5.37.44,7.94a14.66,14.66,0,0,0,10.27,10.49,21.83,21.83,0,0,0,5.81.5h5.63v.42C335.35,426.39,335.33,426.69,335.32,427Zm35.49-24.12v8.26c0,.3,0,.61,0,.91v.1l0,.06a15.09,15.09,0,0,1-.48,1.84s0,.13-.07.2-.19.39-.3.59-.39.66-.6,1c0,0-.3.39-.35.45s-.25.28-.38.41l-.62.59-.26.22-.08.05a11.36,11.36,0,0,1-1.34.81l-.27.13c-.06,0-.48.18-.54.2A14.06,14.06,0,0,1,364,419l-.16,0h-.15c-.3,0-.6,0-.9,0H341.9v-4.78c0-3.31-.23-6.47-1.93-9.43a14.71,14.71,0,0,0-12.59-7.27c-1.16,0-2.31,0-3.46,0h-4.16c0-.25,0-.49,0-.73s0-.4,0-.61a.86.86,0,0,0,0-.15s0-.09,0-.15c.12-.48.21-.95.37-1.42,0-.06.22-.56.2-.54.06-.14.13-.27.19-.4s.23-.41.35-.62.45-.64.46-.68a10.84,10.84,0,0,1,.8-.87l.52-.48.23-.17a9.45,9.45,0,0,1,1.09-.68l.55-.28s.55-.2.65-.23a9.65,9.65,0,0,1,1.41-.34l.18,0,.91,0h35.08q.57,0,1.14.06l.08,0a10.54,10.54,0,0,1,1.14.28c.19.05.37.12.55.18l.16,0,.12.07c.43.22.84.43,1.25.69l.46.32.23.2a11.4,11.4,0,0,1,1.28,1.32v0l.07.11c.15.25.31.48.45.73s.57,1.22.45.87c.15.42.29.85.4,1.28l.12.59s0,.48.06.6C370.9,398.69,370.81,400.79,370.81,402.88Z"/><circle class="cls-2" cx="780.01" cy="230.91" r="41.66"/></g></g></svg>