<svg xmlns="http://www.w3.org/2000/svg" xmlns:xlink="http://www.w3.org/1999/xlink" viewBox="0 0 1235.25 652.24"><defs><style>.cls-1,.cls-24{fill:none;}.cls-2{isolation:isolate;}.cls-3{clip-path:url(#clip-path);}.cls-4{opacity:0.24;}.cls-5,.cls-6{fill:#30475e;}.cls-6{opacity:0.07;}.cls-12,.cls-6{mix-blend-mode:multiply;}.cls-7{fill:#192531;}.cls-8{fill:#5279a1;}.cls-9{fill:url(#linear-gradient);}.cls-10,.cls-23{fill:#fafafa;}.cls-11{fill:url(#radial-gradient);}.cls-12{opacity:0.1;}.cls-13{fill:#cbaf87;}.cls-14{fill:#565656;}.cls-15{fill:#37474f;}.cls-16{fill:#ffccbc;}.cls-17{fill:#ffab91;}.cls-18{fill:#486a8c;}.cls-19{fill:url(#linear-gradient-2);}.cls-20{fill:url(#linear-gradient-3);}.cls-21{fill:#212121;}.cls-22{opacity:0.9;}.cls-23{opacity:0.6;}.cls-24{stroke:#30475e;stroke-miterlimit:10;stroke-width:3px;}.cls-25{fill:#fff;}.cls-26{fill:#293d51;}.cls-27{fill:url(#linear-gradient-4);}.cls-28{fill:#ffab00;}.cls-29{fill:url(#linear-gradient-5);}.cls-30{fill:url(#radial-gradient-2);}.cls-31{fill:url(#linear-gradient-6);}.cls-32{fill:url(#radial-gradient-3);}</style><clipPath id="clip-path" transform="translate(171.06 64.43)"><rect class="cls-1" width="750" height="500"/></clipPath><linearGradient id="linear-gradient" x1="197.2" y1="206.1" x2="257.89" y2="206.1" gradientUnits="userSpaceOnUse"><stop offset="0" stop-color="#0e679a"/><stop offset="0.21" stop-color="#1473a6"/><stop offset="0.6" stop-color="#2594c6"/><stop offset="1" stop-color="#3abced"/></linearGradient><radialGradient id="radial-gradient" cx="240.35" cy="217.78" r="138.95" gradientUnits="userSpaceOnUse"><stop offset="0" stop-color="#fff"/><stop offset="1" stop-color="#fafafa" stop-opacity="0"/></radialGradient><linearGradient id="linear-gradient-2" x1="605.14" y1="158.06" x2="603.27" y2="232.53" gradientUnits="userSpaceOnUse"><stop offset="0" stop-color="#cbaf87"/><stop offset="1"/></linearGradient><linearGradient id="linear-gradient-3" x1="620.55" y1="170.47" x2="627.85" y2="328.39" xlink:href="#linear-gradient-2"/><linearGradient id="linear-gradient-4" x1="144.56" y1="251.72" x2="146.3" y2="378.82" gradientUnits="userSpaceOnUse"><stop offset="0" stop-color="#7e8a97"/><stop offset="1"/></linearGradient><linearGradient id="linear-gradient-5" x1="21.48" y1="415.2" x2="82.17" y2="415.2" xlink:href="#linear-gradient"/><radialGradient id="radial-gradient-2" cx="64.63" cy="426.87" r="138.95" xlink:href="#radial-gradient"/><linearGradient id="linear-gradient-6" x1="669.68" y1="423.59" x2="730.37" y2="423.59" xlink:href="#linear-gradient"/><radialGradient id="radial-gradient-3" cx="712.83" cy="435.26" r="138.95" xlink:href="#radial-gradient"/></defs><g class="cls-2"><g id="Layer_2" data-name="Layer 2"><g id="BACKGROUND"><g class="cls-3"><g class="cls-4"><g class="cls-2"><polygon class="cls-5" points="738.01 62.48 429.13 241.98 427.76 241.72 605.87 138.21 607.24 137.95 737.1 61.95 738.01 62.48"/><polygon class="cls-5" points="606.78 137.68 506.06 80.58 328.4 183.83 121.01 304.35 362.63 443.84 119.19 304.35 326.58 183.83 506.05 79.53 606.78 137.68"/><polygon class="cls-5" points="1235.25 365.06 1004.01 499.44 891.78 434.64 1004.01 498.39 1233.43 365.06 865.52 152.65 1235.25 365.06"/><polygon class="cls-5" points="943.64 106.19 866.43 152.12 723.77 235.03 980.35 383.17 892.69 434.12 627.02 588.5 687.42 552.33 825.68 471.99 978.52 383.17 721.94 235.03 943.64 106.19"/></g><polygon class="cls-5" points="826.59 471.46 327.49 184.35 428.21 241.45 826.59 471.46"/><polygon class="cls-5" points="0 315.09 276.97 154.13 327.49 183.3 326.58 183.83 276.97 155.19 0.92 315.61 0 315.09"/><polygon class="cls-5" points="688.33 551.8 687.88 552.6 431.76 404.73 146.79 569.96 145.87 569.43 361.72 444.37 363.08 444.1 431.76 403.67 688.33 551.8"/></g></g></g><g id="OBJECTS"><g class="cls-3"><path class="cls-6" d="M144.36,154.16c-24.87,10.14-49,8.53-54-3.6s11.21-30.17,36.08-40.31,49-8.53,54,3.6S169.23,144,144.36,154.16Z" transform="translate(171.06 64.43)"/><path class="cls-7" d="M173.7,113.05V-3.53l-2.2-4.4L98.35,19.86l-.08,117.68v1.19h0a11.81,11.81,0,0,0,6,9.46h0a24.72,24.72,0,0,0,24.51,0l21.81-12.45a3.29,3.29,0,0,0,.44-.28l16.91-9.65A11.89,11.89,0,0,0,173.7,113.05Z" transform="translate(171.06 64.43)"/><path class="cls-8" d="M167.94-11.52h0a24.68,24.68,0,0,0-24.5,0L121.62.9a3.23,3.23,0,0,0-.43.29l-16.91,9.65a11.92,11.92,0,0,0,0,20.7h0a24.7,24.7,0,0,0,24.51,0l21.81-12.45a3.35,3.35,0,0,0,.44-.29l16.91-9.65A11.93,11.93,0,0,0,167.94-11.52Z" transform="translate(171.06 64.43)"/><path class="cls-5" d="M169.64,36.93,151.5,47.28l-.05,0a3.64,3.64,0,0,1-.35.24L127.76,60.87a25.46,25.46,0,0,1-12.58,3.34h0a25.45,25.45,0,0,1-12.6-3.37,11.75,11.75,0,0,1-4.22-4.09V60a13.78,13.78,0,0,0,3.24,2.55,27.46,27.46,0,0,0,13.59,3.63h0a27.49,27.49,0,0,0,13.57-3.6l23.33-13.31a4.21,4.21,0,0,0,.52-.34l18-10.29a14.12,14.12,0,0,0,3.07-2.37V33.12A11.8,11.8,0,0,1,169.64,36.93Z" transform="translate(171.06 64.43)"/><path class="cls-5" d="M169.64,65,151.5,75.36l-.05,0a3.5,3.5,0,0,1-.35.23L127.76,88.94a25.35,25.35,0,0,1-12.58,3.34h0a25.44,25.44,0,0,1-12.6-3.36,11.69,11.69,0,0,1-4.22-4.1V88.1a14,14,0,0,0,3.24,2.54,27.46,27.46,0,0,0,13.59,3.63h0a27.38,27.38,0,0,0,13.57-3.6l23.33-13.31a5.69,5.69,0,0,0,.52-.33l18-10.3a13.78,13.78,0,0,0,3.07-2.36V61.19A11.7,11.7,0,0,1,169.64,65Z" transform="translate(171.06 64.43)"/><path class="cls-5" d="M169.64,93.68,151.5,104l-.05,0a3.64,3.64,0,0,1-.35.24l-23.34,13.31A25.46,25.46,0,0,1,115.18,121h0a25.45,25.45,0,0,1-12.6-3.37,11.59,11.59,0,0,1-4.22-4.09v3.28a14,14,0,0,0,3.24,2.54A27.46,27.46,0,0,0,115.15,123h0a27.49,27.49,0,0,0,13.57-3.6L152.08,106a4.21,4.21,0,0,0,.52-.34l18-10.29A14.12,14.12,0,0,0,173.7,93V89.87A11.8,11.8,0,0,1,169.64,93.68Z" transform="translate(171.06 64.43)"/><path class="cls-6" d="M746.49,382.1c-24.87,10.13-49,8.52-54-3.6s11.21-30.18,36.08-40.32,49-8.52,54,3.6S771.36,372,746.49,382.1Z" transform="translate(171.06 64.43)"/><path class="cls-7" d="M775.83,341V224.4l-2.2-4.4-73.15,27.8-.08,117.67v1.19h0a11.8,11.8,0,0,0,6,9.46h0a24.67,24.67,0,0,0,24.51,0l21.82-12.44a4,4,0,0,0,.43-.29l16.91-9.65A11.88,11.88,0,0,0,775.83,341Z" transform="translate(171.06 64.43)"/><path class="cls-8" d="M770.07,216.41h0a24.7,24.7,0,0,0-24.5,0l-21.82,12.44c-.15.09-.29.19-.43.29l-16.91,9.65a11.93,11.93,0,0,0,0,20.71h0a24.72,24.72,0,0,0,24.51,0l21.82-12.45a4,4,0,0,0,.43-.28l16.91-9.65A11.93,11.93,0,0,0,770.07,216.41Z" transform="translate(171.06 64.43)"/><path class="cls-5" d="M771.77,264.87l-18.14,10.35,0,0a2.64,2.64,0,0,1-.35.23L729.89,288.8a25.32,25.32,0,0,1-12.58,3.34h0a25.44,25.44,0,0,1-12.6-3.36,11.75,11.75,0,0,1-4.22-4.09V288a13.74,13.74,0,0,0,3.23,2.54,27.35,27.35,0,0,0,13.59,3.63h0a27.38,27.38,0,0,0,13.57-3.6l23.33-13.31a5.69,5.69,0,0,0,.52-.33l18-10.3a13.78,13.78,0,0,0,3.07-2.36v-3.18A11.73,11.73,0,0,1,771.77,264.87Z" transform="translate(171.06 64.43)"/><path class="cls-5" d="M771.77,292.94l-18.14,10.35,0,0a2.71,2.71,0,0,1-.35.24l-23.34,13.31a25.42,25.42,0,0,1-12.58,3.33h0a25.34,25.34,0,0,1-12.6-3.36,11.75,11.75,0,0,1-4.22-4.09V316a13.53,13.53,0,0,0,3.23,2.55,27.45,27.45,0,0,0,13.59,3.62h0a27.48,27.48,0,0,0,13.57-3.59l23.33-13.32a4.13,4.13,0,0,0,.52-.33l18-10.29a14.12,14.12,0,0,0,3.07-2.37v-3.17A11.8,11.8,0,0,1,771.77,292.94Z" transform="translate(171.06 64.43)"/><path class="cls-5" d="M771.77,321.62,753.63,332l0,0a1.92,1.92,0,0,1-.35.23l-23.34,13.31a25.32,25.32,0,0,1-12.58,3.34h0a25.44,25.44,0,0,1-12.6-3.36,11.75,11.75,0,0,1-4.22-4.09v3.27a14,14,0,0,0,3.23,2.55,27.45,27.45,0,0,0,13.59,3.62h0a27.38,27.38,0,0,0,13.57-3.6L754.21,334a5.69,5.69,0,0,0,.52-.33l18-10.3a13.78,13.78,0,0,0,3.07-2.36v-3.17A11.8,11.8,0,0,1,771.77,321.62Z" transform="translate(171.06 64.43)"/><path class="cls-6" d="M509.16,581.14c-24.87,10.14-49,8.53-54-3.59s11.21-30.18,36.08-40.32,49-8.53,54,3.6S534,571,509.16,581.14Z" transform="translate(171.06 64.43)"/><path class="cls-7" d="M538.5,540V423.45l-2.2-4.4-73.15,27.8-.08,117.67v1.19h0a11.83,11.83,0,0,0,6,9.46h0a24.7,24.7,0,0,0,24.51,0l21.82-12.44c.15-.09.29-.19.43-.29l16.91-9.65A11.89,11.89,0,0,0,538.5,540Z" transform="translate(171.06 64.43)"/><path class="cls-8" d="M532.75,415.46h0a24.67,24.67,0,0,0-24.51,0l-21.82,12.44c-.15.09-.29.19-.43.29l-16.91,9.65a11.92,11.92,0,0,0,0,20.7h0a24.7,24.7,0,0,0,24.51,0l21.82-12.45.43-.28,16.91-9.66A11.92,11.92,0,0,0,532.75,415.46Z" transform="translate(171.06 64.43)"/><path class="cls-5" d="M534.44,463.91l-18.13,10.36,0,0-.36.24-23.34,13.31A25.43,25.43,0,0,1,480,491.19h0a25.45,25.45,0,0,1-12.6-3.37,11.67,11.67,0,0,1-4.22-4.09V487a14,14,0,0,0,3.23,2.54A27.46,27.46,0,0,0,480,493.18h0a27.49,27.49,0,0,0,13.57-3.6l23.33-13.31a4.21,4.21,0,0,0,.52-.34l18-10.29a14.12,14.12,0,0,0,3.07-2.37V460.1A11.8,11.8,0,0,1,534.44,463.91Z" transform="translate(171.06 64.43)"/><path class="cls-5" d="M534.44,492l-18.13,10.35,0,0a3.61,3.61,0,0,1-.36.23l-23.34,13.31A25.32,25.32,0,0,1,480,519.26h0a25.44,25.44,0,0,1-12.6-3.36,11.75,11.75,0,0,1-4.22-4.09v3.27a14,14,0,0,0,3.23,2.54A27.35,27.35,0,0,0,480,521.25h0a27.38,27.38,0,0,0,13.57-3.6l23.33-13.31a5.69,5.69,0,0,0,.52-.33l18-10.3a13.78,13.78,0,0,0,3.07-2.36v-3.18A11.73,11.73,0,0,1,534.44,492Z" transform="translate(171.06 64.43)"/><path class="cls-5" d="M534.44,520.66,516.31,531l0,0a3.61,3.61,0,0,1-.36.23L492.56,544.6A25.32,25.32,0,0,1,480,547.94h0a25.55,25.55,0,0,1-12.6-3.36,11.69,11.69,0,0,1-4.22-4.1v3.28a14,14,0,0,0,3.23,2.54A27.46,27.46,0,0,0,480,549.93h0a27.49,27.49,0,0,0,13.57-3.6L516.88,533a5.69,5.69,0,0,0,.52-.33l18-10.3A14.08,14.08,0,0,0,538.5,520v-3.18A11.8,11.8,0,0,1,534.44,520.66Z" transform="translate(171.06 64.43)"/><path class="cls-6" d="M23.11,399c-24.87,10.14-49,8.53-54-3.6S-19.66,365.18,5.21,355s49-8.53,54,3.59S48,388.81,23.11,399Z" transform="translate(171.06 64.43)"/><path class="cls-7" d="M52.45,357.84V241.25l-2.2-4.4-73.15,27.8L-23,382.32v1.2h0A11.78,11.78,0,0,0-17,393h0a24.7,24.7,0,0,0,24.51,0l21.81-12.45a4.73,4.73,0,0,0,.44-.28l16.91-9.66A11.87,11.87,0,0,0,52.45,357.84Z" transform="translate(171.06 64.43)"/><path class="cls-8" d="M46.69,233.27h0a24.68,24.68,0,0,0-24.5,0L.37,245.69a4.55,4.55,0,0,0-.43.28L-17,255.63a11.92,11.92,0,0,0,0,20.7h0a24.67,24.67,0,0,0,24.51,0l21.81-12.44a4.78,4.78,0,0,0,.44-.29L46.68,254A11.93,11.93,0,0,0,46.69,233.27Z" transform="translate(171.06 64.43)"/><path class="cls-5" d="M48.39,281.72,30.25,292.07l-.05,0a3.64,3.64,0,0,1-.35.24L6.51,305.66A25.45,25.45,0,0,1-6.07,309h0a25.34,25.34,0,0,1-12.6-3.36,11.75,11.75,0,0,1-4.22-4.09v3.27a14,14,0,0,0,3.24,2.55A27.45,27.45,0,0,0-6.1,311h0a27.38,27.38,0,0,0,13.57-3.6l23.33-13.31a5.69,5.69,0,0,0,.52-.33l18-10.29a14.12,14.12,0,0,0,3.07-2.37v-3.17A11.8,11.8,0,0,1,48.39,281.72Z" transform="translate(171.06 64.43)"/><path class="cls-5" d="M48.39,309.79,30.25,320.15l-.05,0a3.64,3.64,0,0,1-.35.24L6.51,333.73a25.46,25.46,0,0,1-12.58,3.34h0a25.45,25.45,0,0,1-12.6-3.37,11.75,11.75,0,0,1-4.22-4.09v3.27a13.78,13.78,0,0,0,3.24,2.55A27.46,27.46,0,0,0-6.1,339.06h0a27.49,27.49,0,0,0,13.57-3.6l23.33-13.31a4.21,4.21,0,0,0,.52-.34l18-10.29a14.12,14.12,0,0,0,3.07-2.37V306A11.8,11.8,0,0,1,48.39,309.79Z" transform="translate(171.06 64.43)"/><path class="cls-5" d="M48.39,338.47,30.25,348.82l-.05,0a3.64,3.64,0,0,1-.35.24L6.51,362.41a25.45,25.45,0,0,1-12.58,3.33h0a25.34,25.34,0,0,1-12.6-3.36,11.75,11.75,0,0,1-4.22-4.09v3.27a13.78,13.78,0,0,0,3.24,2.55A27.35,27.35,0,0,0-6.1,367.73h0A27.48,27.48,0,0,0,7.5,364.14l23.33-13.31a5.8,5.8,0,0,0,.52-.34l18-10.29a14.12,14.12,0,0,0,3.07-2.37v-3.17A11.8,11.8,0,0,1,48.39,338.47Z" transform="translate(171.06 64.43)"/><path class="cls-6" d="M569.67,104.52c-24.87,10.14-49,8.53-54-3.6s11.21-30.17,36.08-40.31,49-8.53,54,3.59S594.54,94.38,569.67,104.52Z" transform="translate(171.06 64.43)"/><path class="cls-7" d="M599,63.41V-53.18l-2.19-4.39L523.66-29.78l-.08,117.67v1.2h0a11.78,11.78,0,0,0,6,9.45h0a24.68,24.68,0,0,0,24.5,0l21.82-12.45a3.55,3.55,0,0,0,.43-.28l16.91-9.66A11.85,11.85,0,0,0,599,63.41Z" transform="translate(171.06 64.43)"/><path class="cls-8" d="M593.25-61.16h0a24.68,24.68,0,0,0-24.5,0L546.93-48.74a4.55,4.55,0,0,0-.43.28L529.59-38.8a11.92,11.92,0,0,0,0,20.7h0a24.65,24.65,0,0,0,24.5,0l21.82-12.44a3.58,3.58,0,0,0,.43-.29l16.91-9.65A11.92,11.92,0,0,0,593.25-61.16Z" transform="translate(171.06 64.43)"/><path class="cls-5" d="M595-12.71,576.81-2.36l0,0a3.64,3.64,0,0,1-.35.24L553.07,11.23a25.47,25.47,0,0,1-12.58,3.33h0a25.31,25.31,0,0,1-12.6-3.36,11.78,11.78,0,0,1-4.23-4.09v3.27a13.78,13.78,0,0,0,3.24,2.55,27.45,27.45,0,0,0,13.59,3.62h0A27.48,27.48,0,0,0,554.06,13L577.39-.36a5,5,0,0,0,.52-.33l18-10.29A14.06,14.06,0,0,0,599-13.35v-3.17A11.77,11.77,0,0,1,595-12.71Z" transform="translate(171.06 64.43)"/><path class="cls-5" d="M595,15.36,576.81,25.72l0,0a3.64,3.64,0,0,1-.35.24L553.07,39.3a25.48,25.48,0,0,1-12.58,3.34h0a25.43,25.43,0,0,1-12.6-3.37,11.62,11.62,0,0,1-4.23-4.09v3.28A14,14,0,0,0,526.87,41a27.46,27.46,0,0,0,13.59,3.63h0A27.49,27.49,0,0,0,554.06,41l23.33-13.31a5.13,5.13,0,0,0,.52-.34l18-10.29A14.06,14.06,0,0,0,599,14.72V11.55A11.77,11.77,0,0,1,595,15.36Z" transform="translate(171.06 64.43)"/><path class="cls-5" d="M595,44,576.81,54.39l0,0a3.64,3.64,0,0,1-.35.24L553.07,68a25.48,25.48,0,0,1-12.58,3.34h0A25.43,25.43,0,0,1,527.86,68a11.78,11.78,0,0,1-4.23-4.09v3.27a13.78,13.78,0,0,0,3.24,2.55,27.46,27.46,0,0,0,13.59,3.63h0a27.49,27.49,0,0,0,13.57-3.6L577.39,56.4c.17-.1.35-.22.52-.34l18-10.29A14.06,14.06,0,0,0,599,43.4V40.23A11.77,11.77,0,0,1,595,44Z" transform="translate(171.06 64.43)"/></g><path class="cls-5" d="M262,206.55a15.12,15.12,0,0,1-4.36,13.39l-.08.07c-6.69,6.33-17.84,10.11-29.83,10.11s-23.13-3.78-29.82-10.11l-.13-.12a15.12,15.12,0,0,1-4.31-13.55l.11-.65h9l50.89.1h8.44l0,.16v.09Z" transform="translate(171.06 64.43)"/><path class="cls-7" d="M262,207.09c0,4.38-2.12,8.46-5.77,11.85-6.14,5.71-16.6,9.47-28.46,9.47s-22.31-3.76-28.45-9.47c-3.65-3.39-5.78-7.47-5.78-11.85,0-11.78,15.33-21.33,34.23-21.33S262,195.31,262,207.09Z" transform="translate(171.06 64.43)"/><path class="cls-9" d="M257.89,206.1c0,3.89-1.88,7.51-5.12,10.51-5.44,5.07-14.71,8.4-25.22,8.4s-19.79-3.34-25.23-8.4c-3.23-3-5.12-6.62-5.12-10.51,0-10.44,13.59-18.9,30.35-18.9S257.89,195.66,257.89,206.1Z" transform="translate(171.06 64.43)"/><path class="cls-5" d="M257.89,206.1c0,3.89-1.88,7.51-5.12,10.51-5.44,5.07-14.71,8.4-25.22,8.4s-19.79-3.34-25.23-8.4c-3.23-3-5.12-6.62-5.12-10.51,0-10.44,13.59-18.9,30.35-18.9S257.89,195.66,257.89,206.1Z" transform="translate(171.06 64.43)"/><path class="cls-10" d="M228,194.8c-15,0-27.19,7.58-27.19,16.94a11,11,0,0,0,.84,4.2c.22.23.45.45.69.67,5.44,5.06,14.71,8.4,25.23,8.4s19.78-3.33,25.22-8.4a18.19,18.19,0,0,0,2.08-2.25,11,11,0,0,0,.33-2.62C255.18,202.38,243,194.8,228,194.8Z" transform="translate(171.06 64.43)"/><path class="cls-11" d="M227.87,54.45c-15.54,0-45.12,13.74-45.12,30.68,0,2.62,14,120.48,14.61,122.91.23.41,2.43,17.85,30.06,17,31.18-1,30.47-17.73,30.34-19.19.22-1.55,15.45-119.08,15.45-120.69C273.21,68.19,243.4,54.45,227.87,54.45Z" transform="translate(171.06 64.43)"/><g class="cls-12"><path class="cls-5" d="M108.35,320.15a8.5,8.5,0,0,0-.4,14.43L289.23,457.21a19,19,0,0,0,20.63.48L621,268.92c5-2.92,3.39-6.41-1.75-9.07L411.19,147.24a7.36,7.36,0,0,0-7.08,0Z" transform="translate(171.06 64.43)"/></g><path class="cls-5" d="M108.35,315.24a8.5,8.5,0,0,0-.4,14.43L289.23,452.29a19,19,0,0,0,20.63.49L621,264c5-2.93,3.39-6.42-1.75-9.07L411.19,142.33a7.39,7.39,0,0,0-7.08,0Z" transform="translate(171.06 64.43)"/><path class="cls-10" d="M129.28,310.44a7.76,7.76,0,0,0-.37,13.18l168,113.78a17.32,17.32,0,0,0,18.84.44L600,265.43c4.52-2.68,3.09-5.86-1.6-8.29L405.88,152.51a6.71,6.71,0,0,0-6.46,0Z" transform="translate(171.06 64.43)"/><path class="cls-13" d="M287.31,412.93l.91.43c1.47.7,2.89,1.37,4.36,1.91-1.47-.54-2.89-1.21-4.36-1.91Z" transform="translate(171.06 64.43)"/><path class="cls-13" d="M251.05,391a26.1,26.1,0,0,0,4,3.16c.39.27.79.55,1.17.83-.38-.28-.78-.56-1.17-.83A26.1,26.1,0,0,1,251.05,391Z" transform="translate(171.06 64.43)"/><path class="cls-13" d="M297.22,416.36a17.76,17.76,0,0,1-4.64-1.09,17.76,17.76,0,0,0,4.64,1.09,18.7,18.7,0,0,0,3.81-.06A18.7,18.7,0,0,1,297.22,416.36Z" transform="translate(171.06 64.43)"/><path class="cls-13" d="M261.18,400.8l.32.69c.23.52.46,1,.71,1.55-.25-.51-.48-1-.71-1.55Z" transform="translate(171.06 64.43)"/><path class="cls-13" d="M271.6,409c1.3.25,2.66.45,4,.65l1.73.26-1.73-.26C274.26,409.43,272.9,409.23,271.6,409Z" transform="translate(171.06 64.43)"/><polygon class="cls-13" points="510.85 466.92 512.27 468.01 512.27 468.01 510.85 466.92"/><path class="cls-13" d="M303.59,415.92c1.29-.24,2.57-.53,3.83-.82l1.7-.38-1.7.38C306.16,415.39,304.88,415.68,303.59,415.92Z" transform="translate(171.06 64.43)"/><path class="cls-13" d="M340.79,407a19.24,19.24,0,0,1,2.35-1.64,30.22,30.22,0,0,1,4.39-2,30.22,30.22,0,0,0-4.39,2A19.24,19.24,0,0,0,340.79,407Z" transform="translate(171.06 64.43)"/><path class="cls-13" d="M311.1,414.31c1.07-.2,2.14-.37,3.21-.47s2.32-.13,3.52-.12c-1.2,0-2.39,0-3.52.12S312.17,414.11,311.1,414.31Z" transform="translate(171.06 64.43)"/><path class="cls-13" d="M340.26,358.68c.87.17,1.71.36,2.51.58C342,359,341.13,358.85,340.26,358.68Z" transform="translate(171.06 64.43)"/><path class="cls-13" d="M356.07,399.39a5.06,5.06,0,0,0,.62-.6,4.57,4.57,0,0,0,.85-1.4,4.57,4.57,0,0,1-.85,1.4A5.06,5.06,0,0,1,356.07,399.39Z" transform="translate(171.06 64.43)"/><path class="cls-13" d="M329.6,356.76a31.19,31.19,0,0,0,3.22.73A31.19,31.19,0,0,1,329.6,356.76Z" transform="translate(171.06 64.43)"/><path class="cls-13" d="M275.41,356.92a14.64,14.64,0,0,1,2.53-1.64A14.64,14.64,0,0,0,275.41,356.92Z" transform="translate(171.06 64.43)"/><path class="cls-13" d="M350.6,366.68a16.47,16.47,0,0,0,1.3,2.45A16.47,16.47,0,0,1,350.6,366.68Z" transform="translate(171.06 64.43)"/><path class="cls-13" d="M310.94,351.36a53.67,53.67,0,0,0-6.49,1.21,52.57,52.57,0,0,1-6.9,1.25,52.57,52.57,0,0,0,6.9-1.25A53.67,53.67,0,0,1,310.94,351.36Z" transform="translate(171.06 64.43)"/><path class="cls-13" d="M294,354c-1.2,0-2.42-.05-3.62-.1-.91,0-1.83-.07-2.74-.08.91,0,1.83.05,2.74.08C291.61,353.9,292.83,353.94,294,354Z" transform="translate(171.06 64.43)"/><path class="cls-13" d="M362,380.88a3.85,3.85,0,0,0,.1-2.2,4.61,4.61,0,0,0-.7-1.38,4.61,4.61,0,0,1,.7,1.38A3.85,3.85,0,0,1,362,380.88Z" transform="translate(171.06 64.43)"/><path class="cls-13" d="M359.59,385.09l.33-.5c.33-.49.66-1,1-1.47-.3.49-.63,1-1,1.47Z" transform="translate(171.06 64.43)"/><polygon class="cls-13" points="507.5 467.74 507.85 467.81 508.55 469.11 508.55 469.11 507.85 467.81 507.5 467.74"/><polygon class="cls-13" points="443.11 430.43 443.82 431.74 443.11 430.43 443.11 430.43"/><polygon class="cls-13" points="490.03 471.67 490.07 472.99 490.03 471.67 490.03 471.67"/><polygon class="cls-13" points="446.87 428.25 446.87 428.25 444.64 428.69 442.75 427.87 442.75 427.87 444.64 428.69 446.87 428.25"/><polygon class="cls-13" points="494.16 472.04 491.92 472.48 490.6 471.91 491.92 472.48 494.16 472.04"/><rect class="cls-13" x="440.78" y="429.63" width="2.08"/><path class="cls-13" d="M274,358.13c.47-.42.94-.82,1.43-1.21C274.92,357.31,274.45,357.71,274,358.13Z" transform="translate(171.06 64.43)"/><polygon class="cls-13" points="511.6 465.63 511.6 465.62 509.37 466.06 507.48 465.25 509.37 466.06 511.6 465.63"/><rect class="cls-13" x="317" y="408.99" width="2.08" transform="translate(39.95 215.18) rotate(-22.23)"/><polygon class="cls-13" points="505.59 467.4 505.59 467.4 507.52 466.61 505.59 467.4"/><polygon class="cls-13" points="464.98 424.22 464.98 424.22 463.57 423.13 463.79 422.74 463.57 423.13 464.98 424.22"/><polygon class="cls-13" points="431.72 438 431.76 439.37 431.72 438 431.72 438"/><polygon class="cls-13" points="462.62 424.2 462.64 424.2 462.62 424.2 462.62 424.2"/><polygon class="cls-13" points="435.85 438.38 435.85 438.38 433.62 438.81 432.53 438.35 433.62 438.81 435.85 438.38"/><polygon class="cls-13" points="429.84 440.15 429.84 440.15 431.76 439.37 429.84 440.15"/><polygon class="cls-13" points="447.54 430.64 446.12 429.55 447.54 430.64 447.54 430.64"/><rect class="cls-13" x="459.27" y="422.18" height="2.07"/><polygon class="cls-13" points="464.32 421.83 464.32 421.83 462.08 422.27 460.19 421.45 460.19 421.45 462.08 422.27 464.32 421.83"/><path class="cls-13" d="M357.59,389.59a5.67,5.67,0,0,1,.18-1,6.68,6.68,0,0,1,.36-1,6.68,6.68,0,0,0-.36,1A5.67,5.67,0,0,0,357.59,389.59Z" transform="translate(171.06 64.43)"/><path class="cls-13" d="M330.74,413.48c.4-.09.79-.18,1.18-.29l.26-.1-.26.1C331.53,413.3,331.14,413.39,330.74,413.48Z" transform="translate(171.06 64.43)"/><path class="cls-13" d="M282.11,353.52a26.73,26.73,0,0,1,2.72-.22A26.73,26.73,0,0,0,282.11,353.52Z" transform="translate(171.06 64.43)"/><path class="cls-13" d="M324.16,353.94c1.4.66,2.83,1.34,4.31,1.88C327,355.28,325.56,354.6,324.16,353.94Z" transform="translate(171.06 64.43)"/><path class="cls-13" d="M340.59,358.24a19.51,19.51,0,0,1,6,2A19.51,19.51,0,0,0,340.59,358.24Z" transform="translate(171.06 64.43)"/><path class="cls-13" d="M258.29,366.12q.82-.37,1.71-.72Q259.12,365.75,258.29,366.12Z" transform="translate(171.06 64.43)"/><path class="cls-13" d="M305.45,351.82l-1.31.3-.31.07.31-.07Z" transform="translate(171.06 64.43)"/><path class="cls-13" d="M297.42,353.35a33.25,33.25,0,0,0,3.36-.5,33.25,33.25,0,0,1-3.36.5c-1.09.1-2.24.13-3.41.12C295.18,353.48,296.33,353.45,297.42,353.35Z" transform="translate(171.06 64.43)"/><path class="cls-13" d="M253.46,377c0-.66-.09-1.33-.17-2C253.37,375.63,253.44,376.3,253.46,377Z" transform="translate(171.06 64.43)"/><path class="cls-13" d="M360.26,385.41l.43-.64c.51-.76,1-1.52,1.44-2.29-.41.77-.93,1.53-1.44,2.29Z" transform="translate(171.06 64.43)"/><path class="cls-13" d="M352.12,368c-.35-.63-.64-1.29-.94-2a25,25,0,0,0-1.17-2.38,25,25,0,0,1,1.17,2.38C351.48,366.74,351.77,367.4,352.12,368Z" transform="translate(171.06 64.43)"/><path class="cls-13" d="M272.51,358.57l-.07.07-.1.09.1-.09Z" transform="translate(171.06 64.43)"/><path class="cls-13" d="M340.89,407.73c-.5.43-1,.87-1.47,1.3C339.9,408.6,340.39,408.16,340.89,407.73Z" transform="translate(171.06 64.43)"/><path class="cls-13" d="M311.38,414.77l-.59.11Z" transform="translate(171.06 64.43)"/><path class="cls-13" d="M330,414.11a27.74,27.74,0,0,1-2.93.26A27.74,27.74,0,0,0,330,414.11Z" transform="translate(171.06 64.43)"/><path class="cls-13" d="M252.61,393.23c-.42-.31-.82-.63-1.19-1C251.79,392.6,252.19,392.92,252.61,393.23Z" transform="translate(171.06 64.43)"/><path class="cls-13" d="M266.34,363.52c.67-.29,1.31-.6,1.91-.92C267.65,362.92,267,363.23,266.34,363.52Z" transform="translate(171.06 64.43)"/><path class="cls-13" d="M256.63,396.13c-.71-.55-1.49-1.1-2.26-1.64C255.14,395,255.92,395.58,256.63,396.13Z" transform="translate(171.06 64.43)"/><path class="cls-13" d="M260.55,401.3a17.19,17.19,0,0,0-1.36-2.59A17.19,17.19,0,0,1,260.55,401.3Z" transform="translate(171.06 64.43)"/><path class="cls-13" d="M281.89,411.34a37.27,37.27,0,0,0-4.76-1A37.27,37.27,0,0,1,281.89,411.34Z" transform="translate(171.06 64.43)"/><path class="cls-13" d="M269.31,361.25a14,14,0,0,1-1.18.76c-.41.24-.85.47-1.31.69.46-.22.9-.45,1.31-.69A14,14,0,0,0,269.31,361.25Z" transform="translate(171.06 64.43)"/><path class="cls-13" d="M251.05,391a5,5,0,0,1-1.25-2A5,5,0,0,0,251.05,391Z" transform="translate(171.06 64.43)"/><path class="cls-13" d="M249.68,388.26a5,5,0,0,1,.5-2.22A5,5,0,0,0,249.68,388.26Z" transform="translate(171.06 64.43)"/><path class="cls-13" d="M326.9,413.89c-.44,0-.89,0-1.34,0C326,413.91,326.46,413.91,326.9,413.89Z" transform="translate(171.06 64.43)"/><path class="cls-13" d="M254.3,377c0-.7-.1-1.4-.18-2.1C254.2,375.64,254.28,376.34,254.3,377Z" transform="translate(171.06 64.43)"/><path class="cls-13" d="M255.79,368.27a17.39,17.39,0,0,1,4.67-2.48A17.39,17.39,0,0,0,255.79,368.27Z" transform="translate(171.06 64.43)"/><path class="cls-13" d="M254,374.15c-.05-.53-.09-1.06-.09-1.59C253.94,373.09,254,373.62,254,374.15Z" transform="translate(171.06 64.43)"/><path class="cls-13" d="M358.45,389.47a5.35,5.35,0,0,1,.14-.8,8.25,8.25,0,0,1,.85-1.95,8.25,8.25,0,0,0-.85,1.95A5.35,5.35,0,0,0,358.45,389.47Z" transform="translate(171.06 64.43)"/><path class="cls-13" d="M260.87,400.16a10.94,10.94,0,0,0-1.61-2.53A10.94,10.94,0,0,1,260.87,400.16Z" transform="translate(171.06 64.43)"/><path class="cls-13" d="M261.44,403.21a9.55,9.55,0,0,0,3.83,4.25,22.72,22.72,0,0,0,7.36,2.21,22.72,22.72,0,0,1-7.36-2.21A9.55,9.55,0,0,1,261.44,403.21Z" transform="translate(171.06 64.43)"/><path class="cls-13" d="M251.82,381.93l-.65,1-.51.76.51-.76Z" transform="translate(171.06 64.43)"/><path class="cls-13" d="M253.47,377a7.61,7.61,0,0,1-.19,2,8.42,8.42,0,0,1-.86,1.94,8.42,8.42,0,0,0,.86-1.94A7.61,7.61,0,0,0,253.47,377Z" transform="translate(171.06 64.43)"/><path class="cls-13" d="M266.82,362.7c-1.39.66-3,1.25-4.5,1.82-.78.29-1.56.58-2.32.88.76-.3,1.54-.59,2.32-.88C263.86,364,265.43,363.36,266.82,362.7Z" transform="translate(171.06 64.43)"/><path class="cls-13" d="M358.46,391.67a12.34,12.34,0,0,1,0-2A12.34,12.34,0,0,0,358.46,391.67Z" transform="translate(171.06 64.43)"/><path class="cls-13" d="M316,414.23c.61,0,1.22,0,1.84,0C317.23,414.2,316.62,414.21,316,414.23Z" transform="translate(171.06 64.43)"/><path class="cls-13" d="M356,400.25a7.22,7.22,0,0,0,1.46-1.24,5.07,5.07,0,0,0,.91-1.48,5.07,5.07,0,0,1-.91,1.48A7.22,7.22,0,0,1,356,400.25Z" transform="translate(171.06 64.43)"/><path class="cls-13" d="M347.24,404l2.3-.88,1.17-.43-1.17.43Z" transform="translate(171.06 64.43)"/><path class="cls-13" d="M340.59,358.24c-1.34-.26-2.74-.47-4.11-.67-1.67-.25-3.27-.49-4.75-.81,1.48.32,3.08.56,4.75.81C337.85,357.77,339.25,358,340.59,358.24Z" transform="translate(171.06 64.43)"/><polygon class="cls-13" points="457.49 450.46 457.49 450.46 454.44 448.69 450.42 451.03 450.42 451.03 454.44 448.69 457.49 450.46"/><polygon class="cls-13" points="455.62 451.25 455.41 451.37 455.62 451.25 453.75 450.17 453.75 450.17 455.62 451.25"/><polygon class="cls-13" points="454.29 452.4 454.29 452.4 452.09 451.13 452.64 450.81 452.09 451.13 454.29 452.4"/><polygon class="cls-13" points="463.49 454.8 460.24 456.69 460.24 456.69 463.49 454.8"/><polygon class="cls-13" points="462.03 453.08 465.55 455.11 462.03 453.08 461.27 453.52 462.56 454.26 461.27 453.52 462.03 453.08"/><path class="cls-13" d="M276.89,382.84a4,4,0,0,1,1-.39,4,4,0,0,0-1,.39,1.43,1.43,0,0,0-.87,1.23A1.43,1.43,0,0,1,276.89,382.84Z" transform="translate(171.06 64.43)"/><path class="cls-13" d="M282.11,384.28a1,1,0,0,0-.19-.72,1,1,0,0,1,.19.72Z" transform="translate(171.06 64.43)"/><path class="cls-13" d="M277.27,384.14a.77.77,0,0,1,.31-.58A.77.77,0,0,0,277.27,384.14Z" transform="translate(171.06 64.43)"/><polygon class="cls-13" points="463.95 437.78 477.12 430.13 463.95 437.78 467.02 439.55 463.95 437.78"/><path class="cls-13" d="M277.89,382.45a4.6,4.6,0,0,1,1.11-.11A4.6,4.6,0,0,0,277.89,382.45Z" transform="translate(171.06 64.43)"/><path class="cls-13" d="M279.38,385.86l-.05-.67a3.51,3.51,0,0,1-.81-.06,3.51,3.51,0,0,0,.81.06Z" transform="translate(171.06 64.43)"/><path class="cls-13" d="M277.84,384.88a2.12,2.12,0,0,0,.68.25,2.12,2.12,0,0,1-.68-.25,1.59,1.59,0,0,1-.43-.35A1.59,1.59,0,0,0,277.84,384.88Z" transform="translate(171.06 64.43)"/><polygon class="cls-13" points="464.86 459.36 465.39 459.05 464.86 459.36 464.86 459.36"/><polygon class="cls-13" points="516.62 457.27 516.62 457.27 518.54 456.48 516.62 457.27"/><polygon class="cls-13" points="519.58 458.98 520 458.63 519.58 458.98 519.58 458.98"/><polygon class="cls-13" points="488.7 456.67 480.83 461.25 488.7 456.67 488.7 456.67"/><polygon class="cls-13" points="492.75 456.93 492.75 456.93 488.55 454.5 492.75 456.93"/><polygon class="cls-13" points="518.5 455.12 518.5 455.12 520.39 455.93 518.5 455.12"/><polygon class="cls-13" points="522.63 455.5 520.39 455.93 522.63 455.5 522.63 455.5"/><polygon class="cls-13" points="486.75 455.54 486.75 455.54 488.55 454.5 486.75 455.54"/><polygon class="cls-13" points="473.51 459.71 469.5 462.04 473.51 459.71 473.51 459.71"/><polygon class="cls-13" points="472.55 459.15 471.62 458.61 472.55 459.15 472.55 459.15"/><polygon class="cls-13" points="468.19 459.59 468.19 459.59 468.93 459.16 467.06 458.08 468.93 459.16 468.19 459.59"/><polygon class="cls-13" points="473.37 463.41 473.37 463.41 471.17 462.14 471.71 461.83 471.17 462.14 473.37 463.41"/><polygon class="cls-13" points="472.82 461.18 474.7 462.26 474.7 462.26 472.82 461.18 473.69 460.68 473.69 460.68 472.82 461.18"/><polygon class="cls-13" points="463.92 458.82 463.92 458.82 467.94 456.49 463.92 458.82"/><polygon class="cls-13" points="521.88 456.79 523.29 457.89 521.88 456.79 521.88 456.79"/><path class="cls-13" d="M268.19,377.34a19,19,0,0,1,2-3.1A19,19,0,0,0,268.19,377.34Z" transform="translate(171.06 64.43)"/><path class="cls-13" d="M267,380.56a14.62,14.62,0,0,1,.71-2.15A14.62,14.62,0,0,0,267,380.56Z" transform="translate(171.06 64.43)"/><path class="cls-13" d="M266.65,382.74a13.74,13.74,0,0,1,.35-2.18A13.74,13.74,0,0,0,266.65,382.74Z" transform="translate(171.06 64.43)"/><path class="cls-13" d="M278,367.72c7.65-4.44,17.71-6.66,27.79-6.66-10.08,0-20.14,2.22-27.79,6.66a27.63,27.63,0,0,0-7.82,6.52A27.63,27.63,0,0,1,278,367.72Z" transform="translate(171.06 64.43)"/><path class="cls-13" d="M313.54,376.89a5.07,5.07,0,0,1,.35.46A5.07,5.07,0,0,0,313.54,376.89Z" transform="translate(171.06 64.43)"/><path class="cls-13" d="M310.69,374a4.43,4.43,0,0,0,.52.6A4.43,4.43,0,0,1,310.69,374Z" transform="translate(171.06 64.43)"/><path class="cls-13" d="M314.17,377.87a1.86,1.86,0,0,1,.18.68A1.86,1.86,0,0,0,314.17,377.87Z" transform="translate(171.06 64.43)"/><path class="cls-13" d="M272.12,395.42l0,0Z" transform="translate(171.06 64.43)"/><path class="cls-13" d="M285.54,403.25c-.85-.3-1.68-.62-2.5-1C283.86,402.63,284.69,403,285.54,403.25Z" transform="translate(171.06 64.43)"/><path class="cls-13" d="M267,386.88a14.27,14.27,0,0,1-.31-1.81A14.27,14.27,0,0,0,267,386.88Z" transform="translate(171.06 64.43)"/><path class="cls-13" d="M291.85,405.07l-1.54-.38Z" transform="translate(171.06 64.43)"/><path class="cls-13" d="M267.66,389a14.58,14.58,0,0,1-.55-1.61A14.58,14.58,0,0,0,267.66,389Z" transform="translate(171.06 64.43)"/><path class="cls-13" d="M270.77,394c-.32-.37-.62-.74-.9-1.12C270.15,393.23,270.45,393.6,270.77,394Z" transform="translate(171.06 64.43)"/><path class="cls-13" d="M313.05,376.35Z" transform="translate(171.06 64.43)"/><path class="cls-13" d="M310.44,373.56a.57.57,0,0,1,0-.18A.57.57,0,0,0,310.44,373.56Z" transform="translate(171.06 64.43)"/><path class="cls-13" d="M305.7,378.17a5.27,5.27,0,0,0,.66.35,5.27,5.27,0,0,1-.66-.35,7.91,7.91,0,0,1-2-1.59A7.91,7.91,0,0,0,305.7,378.17Z" transform="translate(171.06 64.43)"/><path class="cls-13" d="M302.69,374.85a4.57,4.57,0,0,0,1,1.73,4.57,4.57,0,0,1-1-1.73l-3.33.73a2.84,2.84,0,0,0,.28.7,2.84,2.84,0,0,1-.28-.7Z" transform="translate(171.06 64.43)"/><path class="cls-13" d="M320.74,375.26a7.17,7.17,0,0,0-2.82-3A7.17,7.17,0,0,1,320.74,375.26Z" transform="translate(171.06 64.43)"/><path class="cls-13" d="M307,378.79a5.15,5.15,0,0,0,1.09.28A5.15,5.15,0,0,1,307,378.79Z" transform="translate(171.06 64.43)"/><path class="cls-13" d="M279.33,385.19a3.51,3.51,0,0,1-.81-.06,2.12,2.12,0,0,1-.68-.25,1.59,1.59,0,0,1-.43-.35.69.69,0,0,1-.14-.39.77.77,0,0,1,.31-.58,2.2,2.2,0,0,1,.25-.17,2.69,2.69,0,0,1,2.58,0,1.22,1.22,0,0,1,.44.39.76.76,0,0,1,.11.47l1.15,0a1,1,0,0,0-.19-.72,2.35,2.35,0,0,0-.77-.66,4,4,0,0,0-1-.41,4.33,4.33,0,0,0-1.13-.15,4.6,4.6,0,0,0-1.11.11,4,4,0,0,0-1,.39,1.43,1.43,0,0,0-.87,1.23,1,1,0,0,0,.08.33,1.62,1.62,0,0,0,.49.63,2.91,2.91,0,0,0,.41.28,4.24,4.24,0,0,0,2.38.55Z" transform="translate(171.06 64.43)"/><polygon class="cls-13" points="486.75 455.54 488.7 456.67 488.7 456.67 488.7 456.67 480.83 461.25 483.08 462.55 492.75 456.93 488.55 454.5 486.75 455.54"/><polygon class="cls-13" points="467.02 439.55 480.19 431.9 477.12 430.13 463.95 437.78 467.02 439.55"/><path class="cls-13" d="M306.6,371.9a1.6,1.6,0,0,0-.3,1.67,4.38,4.38,0,0,0,.92,1.38q.24.27.51.54l.55.51c.36.34.72.67,1,1,.52.54.87,1,.76,1.4a.62.62,0,0,1-.2.32l-.2.14a2.5,2.5,0,0,1-1.6.24,5.15,5.15,0,0,1-1.09-.28l-.61-.27a5.27,5.27,0,0,1-.66-.35,7.91,7.91,0,0,1-2-1.59,4.57,4.57,0,0,1-1-1.73l-3.33.73a2.84,2.84,0,0,0,.28.7,9.41,9.41,0,0,0,3.59,3.3,13.35,13.35,0,0,0,2.8,1.24,10.08,10.08,0,0,0,5,.35,6.36,6.36,0,0,0,1.91-.71c1.06-.62,1.44-1.26,1.41-1.91a1.86,1.86,0,0,0-.18-.68,2.92,2.92,0,0,0-.28-.52,5.07,5.07,0,0,0-.35-.46c-.15-.18-.32-.36-.49-.54h0c-.26-.27-.54-.53-.81-.78s-.73-.66-1-1a4.43,4.43,0,0,1-.52-.6,1.22,1.22,0,0,1-.16-.26.66.66,0,0,1-.09-.19.57.57,0,0,1,0-.18c0-.23.1-.44.41-.62a2.53,2.53,0,0,1,.33-.16,3.22,3.22,0,0,1,1.84,0,7,7,0,0,1,1.85.77,6.86,6.86,0,0,1,2.17,1.92,6.52,6.52,0,0,1,.48.8l3.25-.8a7.17,7.17,0,0,0-2.82-3l-.61-.37c-3.77-2.18-7.45-2.14-9.69-.84A3.74,3.74,0,0,0,306.6,371.9Z" transform="translate(171.06 64.43)"/><polygon class="cls-13" points="468.19 459.59 468.19 459.59 468.93 459.16 467.06 458.08 468.12 457.46 470.24 458.69 470.99 458.25 467.94 456.49 463.92 458.82 463.92 458.82 464.86 459.36 464.86 459.36 465.39 459.05 466.32 458.51 468.19 459.59"/><path class="cls-13" d="M360.53,388.84c.92-3.45,5.44-7,4.49-10.43s-7.14-6-9.93-9.11-2.58-7.44-7-10-12-2.46-17.25-4c-5.45-1.6-9.85-5.18-15.76-5.72s-12,2.09-18,2.64-13.1-.9-18.53.71c-5.24,1.55-7.47,5.72-11.84,8.27s-11.58,3.84-14.24,6.88-.25,7.31-1.16,10.74-5.45,7-4.49,10.43,7.13,5.95,9.93,9.1,2.56,7.45,7,10,12,2.46,17.26,4c5.44,1.61,9.84,5.19,15.75,5.73s12-2.09,18-2.64,13.11.9,18.53-.71c5.24-1.55,7.47-5.72,11.84-8.27s11.58-3.85,14.24-6.88S359.62,392.26,360.53,388.84Zm-1.94-.17a5.35,5.35,0,0,0-.14.8l0,.19a12.34,12.34,0,0,0,0,2c0,.34.07.68.11,1,.07.54.13,1.09.16,1.63a7.22,7.22,0,0,1-.39,3.2,5.07,5.07,0,0,1-.91,1.48,7.22,7.22,0,0,1-1.46,1.24,21.55,21.55,0,0,1-4.11,2l-1.15.45-1.17.43-2.3.88a26.62,26.62,0,0,0-3.51,1.63,18.82,18.82,0,0,0-2.84,2.07c-.5.43-1,.87-1.47,1.3-2,1.8-4,3.67-7.12,4.58a17.5,17.5,0,0,1-2.33.5,27.74,27.74,0,0,1-2.93.26c-.93,0-1.86,0-2.81,0s-1.89-.05-2.83-.08c-1.17-.05-2.37-.09-3.55-.1-.62,0-1.23,0-1.84,0s-1.06,0-1.57.09c-1,.09-2,.26-3.06.45l-.59.11c-1,.21-2.05.44-3.07.67-3.47.79-7.07,1.61-10.63,1.29a19.1,19.1,0,0,1-4.93-1.16c-.78-.28-1.53-.6-2.27-.93s-1.47-.67-2.19-1c-.93-.44-1.88-.89-2.84-1.3a28.53,28.53,0,0,0-3-1.09,37.27,37.27,0,0,0-4.76-1l-1.74-.26c-.92-.14-1.84-.27-2.76-.43a22.72,22.72,0,0,1-7.36-2.21,9.55,9.55,0,0,1-3.83-4.25c-.14-.27-.26-.53-.39-.8l-.36-.8c0-.1-.09-.21-.14-.31a17.19,17.19,0,0,0-1.36-2.59,8.93,8.93,0,0,0-.66-.86c-.27-.29-.56-.58-.88-.87s-.66-.57-1-.85c-.71-.55-1.49-1.1-2.26-1.64-.59-.41-1.19-.83-1.76-1.26s-.82-.63-1.19-1a7,7,0,0,1-2.44-3.21c-.5-1.8.52-3.62,1.68-5.4l.51-.76.65-1c.21-.32.41-.65.6-1a8.42,8.42,0,0,0,.86-1.94,7.61,7.61,0,0,0,.19-2,.17.17,0,0,1,0-.07c0-.66-.09-1.33-.17-2l-.09-.82a10,10,0,0,1,.08-3.24,5.23,5.23,0,0,1,1.16-2.25,7.15,7.15,0,0,1,1.45-1.24c.29-.2.59-.38.91-.56s1-.5,1.49-.74,1.12-.49,1.71-.72c.76-.3,1.54-.59,2.32-.88,1.54-.57,3.11-1.16,4.5-1.82.46-.22.9-.45,1.31-.69a14,14,0,0,0,1.18-.76c.38-.27.75-.55,1.1-.84.67-.55,1.31-1.12,1.93-1.68l.1-.09.07-.07a19.62,19.62,0,0,1,5.94-4.13q.54-.21,1.11-.39a17.46,17.46,0,0,1,2.55-.53,26.73,26.73,0,0,1,2.72-.22c1.38-.05,2.8,0,4.22,0l1.41.05c1.17,0,2.37.09,3.55.1s2.32,0,3.41-.12a33.25,33.25,0,0,0,3.36-.5c1-.2,2-.43,3.05-.66l.31-.07,1.31-.3c.87-.19,1.75-.38,2.64-.55s1.78-.29,2.67-.39a21.49,21.49,0,0,1,4-.05c.44,0,.87.1,1.3.17a22.08,22.08,0,0,1,4.78,1.44c.38.15.75.31,1.12.48q1.11.49,2.19,1c1.4.66,2.83,1.34,4.31,1.88q.73.29,1.5.51c.56.16,1.15.3,1.76.43,1.48.32,3.08.56,4.75.81,1.37.2,2.77.41,4.11.67a19.51,19.51,0,0,1,6,2,9.06,9.06,0,0,1,3.42,3.47,25,25,0,0,1,1.17,2.38c.3.68.59,1.34.94,2a9.6,9.6,0,0,0,1.22,1.79,18.51,18.51,0,0,0,3,2.54l1.15.82c.59.41,1.19.83,1.76,1.26,1.72,1.28,3.21,2.64,3.63,4.17a5.17,5.17,0,0,1-.75,3.87c-.41.77-.93,1.53-1.44,2.29l-.43.64c-.29.44-.57.87-.82,1.31A8.25,8.25,0,0,0,358.59,388.67Z" transform="translate(171.06 64.43)"/><path class="cls-13" d="M283.24,381.7a10.18,10.18,0,0,0,10.18-.16c3.12-1.82,3.14-3.75.44-5.31A7.27,7.27,0,0,0,287,376c-1.83,1.06-1.54,2.6.33,3.68a6.71,6.71,0,0,0,3.3.9,5.6,5.6,0,0,1-5.56.05,2.69,2.69,0,0,1-1.34-1.33l-2.49.47A4.69,4.69,0,0,0,283.24,381.7Zm6.23-2.72c-1-.57-1.09-1.28-.21-1.8a3.15,3.15,0,0,1,3.07.11c1.07.61,1.08,1.33.25,1.81A3.26,3.26,0,0,1,289.47,379Z" transform="translate(171.06 64.43)"/><path class="cls-13" d="M303.47,381.78c-2.39-1.38-6-1.35-9.18.5s-3.22,3.94-.83,5.32a9.35,9.35,0,0,0,9.18-.5C305.84,385.25,305.88,383.17,303.47,381.78Zm-3.1,4c-2.19,1.28-3.88,1.36-5,.71s-1-1.62,1.21-2.9,3.89-1.36,5-.72S302.57,384.51,300.37,385.79Z" transform="translate(171.06 64.43)"/><path class="cls-13" d="M331,379.84c-4.18-2.42-10.15-2.51-14.06-.23s-3.75,5.73.44,8.14,10.13,2.52,14.07.23S335.17,382.24,331,379.84Zm-2.66,6.35a8.79,8.79,0,0,1-8.36.05c-2.37-1.36-2.44-3.39.06-4.84a8.81,8.81,0,0,1,8.37-.06C330.78,382.71,330.85,384.73,328.34,386.19Z" transform="translate(171.06 64.43)"/><path class="cls-13" d="M289,387.5l-1.75-1-4,2.33.93.54,1.12-.65.81.47.05,0-.34,1.1,1,.58.39-1.27a2.82,2.82,0,0,0,2.09-.26C290.18,388.84,290.07,388.13,289,387.5Zm-.65,1.32a1.51,1.51,0,0,1-1.55-.09l-.77-.44,1.4-.81.76.44C288.75,388.24,288.78,388.56,288.34,388.82Z" transform="translate(171.06 64.43)"/><polygon class="cls-13" points="464.79 455.55 465.55 455.11 462.03 453.08 461.27 453.52 462.56 454.26 459.31 456.15 460.24 456.69 460.24 456.69 463.49 454.8 464.79 455.55"/><polygon class="cls-13" points="466.04 455.39 462.03 457.73 462.97 458.27 466.98 455.94 466.04 455.39"/><path class="cls-13" d="M302.91,393.05c2.4,1.39,6,1.36,9.17-.5s3.24-3.93.84-5.32-6-1.35-9.18.51S300.51,391.67,302.91,393.05Zm3.11-4c2.2-1.28,3.89-1.36,5-.71s1,1.62-1.21,2.9-3.88,1.36-5,.71S303.82,390.33,306,389.05Z" transform="translate(171.06 64.43)"/><polygon class="cls-13" points="472.55 459.15 471.62 458.61 467.61 460.95 468.54 461.49 472.55 459.15 472.55 459.15"/><polygon class="cls-13" points="473.37 463.41 471.17 462.14 471.71 461.83 472.1 461.6 473.98 462.68 474.7 462.26 474.7 462.26 472.82 461.18 473.69 460.68 473.69 460.68 475.82 461.9 476.56 461.47 473.51 459.71 473.51 459.71 469.5 462.04 472.63 463.84 473.37 463.41 473.37 463.41"/><path class="cls-13" d="M308.15,398.57l-1.83-1.06-4,2.33,1.83,1.06a4.34,4.34,0,0,0,4.23.12C309.59,400.31,309.47,399.33,308.15,398.57Zm-.73,1.9a2.59,2.59,0,0,1-2.57,0l-.85-.49,2.49-1.45.85.49C308.14,399.45,308.19,400,307.42,400.47Z" transform="translate(171.06 64.43)"/><path class="cls-13" d="M359.92,384.59c.33-.49.66-1,1-1.47a10,10,0,0,0,1.09-2.24,3.85,3.85,0,0,0,.1-2.2,4.61,4.61,0,0,0-.7-1.38c-.17-.22-.35-.44-.55-.66a14.65,14.65,0,0,0-1.4-1.27c-.26-.21-.53-.42-.82-.63-.56-.42-1.15-.84-1.75-1.26l-1.17-.83c-.77-.56-1.52-1.13-2.18-1.71q-.5-.45-.9-.9a7.6,7.6,0,0,1-.7-.91,16.47,16.47,0,0,1-1.3-2.45l-.23-.5a15.65,15.65,0,0,0-2.13-3.76,7.91,7.91,0,0,0-2.24-1.87,13.7,13.7,0,0,0-3.23-1.29c-.8-.22-1.64-.41-2.51-.58l-1.32-.23c-.88-.15-1.78-.28-2.67-.41-1.15-.17-2.32-.35-3.45-.55a31.19,31.19,0,0,1-3.22-.73c-.53-.16-1.05-.33-1.56-.52-1.52-.57-3-1.26-4.4-1.93-2.94-1.39-5.7-2.71-9-3a19.1,19.1,0,0,0-3.7.06,53.67,53.67,0,0,0-6.49,1.21,52.57,52.57,0,0,1-6.9,1.25c-.56.06-1.14.09-1.73.11s-1.19,0-1.79,0c-1.2,0-2.42-.05-3.62-.1-.91,0-1.83-.07-2.74-.08-1.37,0-2.73,0-4,.08a17.77,17.77,0,0,0-3.69.63,12.57,12.57,0,0,0-2,.8,14.64,14.64,0,0,0-2.53,1.64c-.49.39-1,.79-1.43,1.21l-.84.76a25.35,25.35,0,0,1-4.42,3.46c-.15.09-.32.16-.47.25-.6.32-1.24.63-1.91.92-1.15.49-2.37,1-3.57,1.4l-1.17.44-1.14.43a17.39,17.39,0,0,0-4.67,2.48c-.22.2-.43.4-.62.61a5.33,5.33,0,0,0-1.23,3.68c0,.53,0,1.06.09,1.59l.09.79c.08.7.16,1.4.18,2.1a6.94,6.94,0,0,1-.21,2,14.46,14.46,0,0,1-2.14,4,20.47,20.47,0,0,0-1.77,3,5,5,0,0,0-.5,2.22,3,3,0,0,0,.12.72,5,5,0,0,0,1.25,2,26.1,26.1,0,0,0,4,3.16c.39.27.79.55,1.17.83a18.93,18.93,0,0,1,3.08,2.61,10.94,10.94,0,0,1,1.61,2.53c.11.21.21.43.31.64l.32.69c.23.52.46,1,.71,1.55a10.22,10.22,0,0,0,2.05,2.88,8.05,8.05,0,0,0,1.6,1.2A18.71,18.71,0,0,0,271.6,409c1.3.25,2.66.45,4,.65l1.73.26c1.16.18,2.3.38,3.38.62.54.12,1.06.25,1.56.4a34.53,34.53,0,0,1,5.05,2l.91.43c1.47.7,2.89,1.37,4.36,1.91a17.76,17.76,0,0,0,4.64,1.09,18.7,18.7,0,0,0,3.81-.06c.85-.09,1.71-.22,2.56-.38,1.29-.24,2.57-.53,3.83-.82l1.7-.38c.66-.15,1.32-.28,2-.41,1.07-.2,2.14-.37,3.21-.47s2.32-.13,3.52-.12,2.42,0,3.62.1l2.74.08h1.37c.45,0,.9,0,1.34,0a24.55,24.55,0,0,0,3.84-.41c.4-.09.79-.18,1.18-.29l.26-.1c2.75-.88,4.6-2.55,6.55-4.32l1-.91,1.05-.9a19.24,19.24,0,0,1,2.35-1.64,30.22,30.22,0,0,1,4.39-2l1.56-.59a31.43,31.43,0,0,0,6.23-2.8,7.31,7.31,0,0,0,.75-.56,5.06,5.06,0,0,0,.62-.6,4.57,4.57,0,0,0,.85-1.4,5.62,5.62,0,0,0,.35-1.51,14.65,14.65,0,0,0-.15-3.16c0-.34-.08-.69-.11-1a11.26,11.26,0,0,1,0-2.09,5.67,5.67,0,0,1,.18-1,6.68,6.68,0,0,1,.36-1,16.9,16.9,0,0,1,1.46-2.5Zm-96.83-8.27-1.36,1.11-.7-1.3-2.25-.41h0l1.92-.79,0-1.36h0l.81.35,1.08.46,2.23-.43h0l-.74,1.29,1.41,1.1Zm26.08-17.93h0l0-1.37h0l1.89.82,2.23-.44h0l-.52.91-.22.38,1.41,1.1h0l-2.34,0h0l-1.35,1.12-.71-1.31-2.25-.4h0Zm-17.45,6.42h0l0-1.37h0l1.89.82,2.24-.44h0l-.75,1.29,1.41,1.1h0l-2.35,0-1.36,1.12-.71-1.31h0l-2.25-.4h0ZM321.4,410,320,411.1l-.7-1.31-2.26-.4h0l1.93-.79h0v0l0-1.33h0l.57.25,1.32.57,2.23-.44-.74,1.29,1.41,1.1Zm19.81-6.4-2.36,0-1.36,1.12h0l-.71-1.3-.34-.07-1.91-.34h0l1.92-.79,0-1.37,1.89.82,2.23-.44h0l-.75,1.3,1.42,1.09Zm.46-10.15a21.87,21.87,0,0,1-1.79,2,30,30,0,0,1-6,4.53,47.53,47.53,0,0,1-13,5,64.64,64.64,0,0,1-14.8,1.67,67.29,67.29,0,0,1-7.52-.42,63.5,63.5,0,0,1-6.69-1.12l-1.54-.38q-2.46-.62-4.77-1.44c-.85-.3-1.68-.62-2.5-1a43.14,43.14,0,0,1-4.83-2.34,30.72,30.72,0,0,1-6.09-4.53l0,0c-.47-.47-.91-.94-1.32-1.42s-.62-.74-.9-1.12a17.28,17.28,0,0,1-2.21-3.88,14.58,14.58,0,0,1-.55-1.61l-.12-.48a14.27,14.27,0,0,1-.31-1.81c0-.41-.06-.82-.07-1.23s0-.73,0-1.1a13.74,13.74,0,0,1,.35-2.18,14.62,14.62,0,0,1,.71-2.15c.14-.36.31-.71.48-1.07a19,19,0,0,1,2-3.1,27.63,27.63,0,0,1,7.82-6.52c7.65-4.44,17.71-6.66,27.79-6.66s20.16,2.22,27.85,6.66a31.48,31.48,0,0,1,5,3.57c.37.32.71.64,1,1a20.85,20.85,0,0,1,2.58,3c.24.34.47.69.68,1a17,17,0,0,1,1.09,2.12C346.22,383.39,345.42,388.71,341.67,393.43Zm8.2,0-.93.76-.43.35h0l-.7-1.3-2.26-.41h0l1.93-.79,0-1.36h0l1.89.81,2.23-.43h0l-.74,1.29h0l1.41,1.09Z" transform="translate(171.06 64.43)"/><polygon class="cls-13" points="454.29 452.4 452.09 451.13 452.64 450.81 453.03 450.59 454.9 451.67 455.41 451.37 455.62 451.25 453.75 450.17 453.75 450.17 454.62 449.66 456.74 450.89 457.49 450.46 457.49 450.46 454.44 448.69 450.42 451.03 450.42 451.03 453.55 452.83 454.29 452.4 454.29 452.4"/><path class="cls-14" d="M299,320.89c1,.59,1,1.54,0,2.12a4,4,0,0,1-3.67,0l-72.27-41.72a1.13,1.13,0,0,1,0-2.13,4,4,0,0,1,3.66,0Z" transform="translate(171.06 64.43)"/><g class="cls-2"><path class="cls-14" d="M441,238.35a1.12,1.12,0,0,1,0,2.12,4,4,0,0,1-3.66,0l-72.27-41.72a1.13,1.13,0,0,1,0-2.13,4.07,4.07,0,0,1,3.66,0Z" transform="translate(171.06 64.43)"/><path class="cls-13" d="M332,242.44a1.21,1.21,0,0,1,.72,1c0,.79-1.09,1.43-2.45,1.43H301.07l0-6.18c0-.79,1.1-1.43,2.46-1.43a3.56,3.56,0,0,1,1.75.42,1.23,1.23,0,0,1,.73,1l0,3.32h24.23A3.56,3.56,0,0,1,332,242.44Z" transform="translate(171.06 64.43)"/><path class="cls-14" d="M317.77,238.88c1.48.85,1.69,2.16.62,3.14H306l0-3.32a1.23,1.23,0,0,0-.73-1,3.56,3.56,0,0,0-1.75-.42c-1.36,0-2.46.64-2.46,1.43l0,6.18h12.56L310.05,247a6.8,6.8,0,0,1-6.18,0l-7.79-4.5c-1.71-1-1.72-2.59,0-3.58l7.73-4.5a6.82,6.82,0,0,1,6.19,0Z" transform="translate(171.06 64.43)"/><path class="cls-13" d="M306.19,257.42a1.27,1.27,0,0,1,.73,1c0,.8-1.1,1.44-2.46,1.43H275.29l0-6.19c0-.79,1.1-1.42,2.47-1.43a3.52,3.52,0,0,1,1.74.42,1.25,1.25,0,0,1,.73,1l0,3.33h24.24A3.64,3.64,0,0,1,306.19,257.42Z" transform="translate(171.06 64.43)"/><path class="cls-14" d="M292,253.87c1.48.85,1.69,2.16.63,3.14h-12.4l0-3.33a1.25,1.25,0,0,0-.73-1,3.52,3.52,0,0,0-1.74-.42c-1.37,0-2.47.64-2.47,1.43l0,6.19h12.55l-3.57,2.07a6.82,6.82,0,0,1-6.19,0l-7.79-4.49c-1.71-1-1.72-2.6,0-3.59l7.74-4.49a6.8,6.8,0,0,1,6.18,0Z" transform="translate(171.06 64.43)"/><path class="cls-14" d="M547.25,261.93c1,.59,1,1.54,0,2.12a4,4,0,0,1-3.67,0L397.69,179.81a1.13,1.13,0,0,1,0-2.13,4,4,0,0,1,3.66,0Z" transform="translate(171.06 64.43)"/><path class="cls-14" d="M540.77,265.69a1.12,1.12,0,0,1,0,2.13,4,4,0,0,1-3.66,0L391.22,183.57c-1-.59-1-1.54,0-2.12a4,4,0,0,1,3.68,0Z" transform="translate(171.06 64.43)"/><path class="cls-14" d="M346.82,265.44c.63.37.63.95,0,1.31l-1.35.79a2.5,2.5,0,0,1-2.26,0l-20.8-12a.69.69,0,0,1,0-1.31l1.35-.79a2.5,2.5,0,0,1,2.26,0Z" transform="translate(171.06 64.43)"/><path class="cls-14" d="M393.2,266.13a1.13,1.13,0,0,1,0,2.13,4.09,4.09,0,0,1-3.67,0l-72.26-41.73a1.12,1.12,0,0,1,0-2.12,4,4,0,0,1,3.67,0Z" transform="translate(171.06 64.43)"/><path class="cls-14" d="M534.3,269.45a1.13,1.13,0,0,1,0,2.13,4,4,0,0,1-3.67,0L384.74,187.33c-1-.59-1-1.53,0-2.12a4,4,0,0,1,3.67,0Z" transform="translate(171.06 64.43)"/><path class="cls-14" d="M527.82,273.22c1,.59,1,1.54,0,2.12a4,4,0,0,1-3.67,0L378.26,191.1c-1-.59-1-1.54,0-2.13a4.06,4.06,0,0,1,3.67,0Z" transform="translate(171.06 64.43)"/><path class="cls-14" d="M375.81,274.52a.7.7,0,0,1,0,1.32l-1.35.78a2.47,2.47,0,0,1-2.26,0L329,251.69a.69.69,0,0,1,0-1.31l1.35-.79a2.52,2.52,0,0,1,2.27,0Z" transform="translate(171.06 64.43)"/><path class="cls-14" d="M521.34,277a1.12,1.12,0,0,1,0,2.13,4.06,4.06,0,0,1-3.67,0L371.78,194.86c-1-.59-1-1.54,0-2.12a4,4,0,0,1,3.68,0Z" transform="translate(171.06 64.43)"/><path class="cls-14" d="M321,280.43a.69.69,0,0,1,0,1.31l-1.34.78a2.49,2.49,0,0,1-2.27,0l-20.8-12c-.63-.36-.64-.94,0-1.31l1.35-.78a2.5,2.5,0,0,1,2.26,0Z" transform="translate(171.06 64.43)"/><path class="cls-13" d="M407.81,286.22a1.25,1.25,0,0,1,.73,1c0,.79-1.09,1.43-2.46,1.43H376.91l0-6.18c0-.79,1.1-1.43,2.46-1.43a3.56,3.56,0,0,1,1.75.42,1.29,1.29,0,0,1,.73,1v3.32h24.23A3.54,3.54,0,0,1,407.81,286.22Z" transform="translate(171.06 64.43)"/><path class="cls-14" d="M393.6,282.66c1.48.85,1.69,2.16.62,3.14H381.83v-3.32a1.29,1.29,0,0,0-.73-1,3.56,3.56,0,0,0-1.75-.42c-1.36,0-2.47.64-2.46,1.43l0,6.18h12.55l-3.58,2.08a6.8,6.8,0,0,1-6.18,0l-7.79-4.49c-1.71-1-1.72-2.6,0-3.59l7.74-4.49a6.79,6.79,0,0,1,6.19,0Z" transform="translate(171.06 64.43)"/><path class="cls-14" d="M350,289.51c.63.37.63.95,0,1.31l-1.34.79a2.52,2.52,0,0,1-2.27,0l-43.18-24.93c-.62-.37-.63-1,0-1.32l1.34-.78a2.52,2.52,0,0,1,2.27,0Z" transform="translate(171.06 64.43)"/><path class="cls-14" d="M499.44,289.71c1,.59,1,1.54,0,2.13a4.06,4.06,0,0,1-3.67,0L349.88,207.59c-1-.59-1-1.54,0-2.12a4,4,0,0,1,3.67,0Z" transform="translate(171.06 64.43)"/><path class="cls-14" d="M493,293.47a1.13,1.13,0,0,1,0,2.13,4,4,0,0,1-3.67,0L343.4,211.36a1.13,1.13,0,0,1,0-2.13,4,4,0,0,1,3.68,0Z" transform="translate(171.06 64.43)"/><path class="cls-14" d="M486.48,297.24c1,.59,1,1.54,0,2.12a4,4,0,0,1-3.67,0L336.93,215.12c-1-.59-1-1.54,0-2.13a4,4,0,0,1,3.66,0Z" transform="translate(171.06 64.43)"/><path class="cls-14" d="M480,301c1,.59,1,1.54,0,2.13a4.06,4.06,0,0,1-3.67,0L330.45,218.88c-1-.59-1-1.54,0-2.12a4,4,0,0,1,3.67,0Z" transform="translate(171.06 64.43)"/><path class="cls-13" d="M382,301.21a1.23,1.23,0,0,1,.73,1c0,.79-1.1,1.43-2.46,1.43H351.12l0-6.18c0-.79,1.09-1.43,2.46-1.43a3.56,3.56,0,0,1,1.75.42,1.22,1.22,0,0,1,.73,1v3.32h24.24A3.5,3.5,0,0,1,382,301.21Z" transform="translate(171.06 64.43)"/><path class="cls-14" d="M367.81,297.65c1.48.85,1.69,2.16.63,3.14H356v-3.32a1.22,1.22,0,0,0-.73-1,3.56,3.56,0,0,0-1.75-.42c-1.37,0-2.46.64-2.46,1.43l0,6.18h12.55l-3.57,2.07a6.76,6.76,0,0,1-6.19,0l-7.78-4.49c-1.72-1-1.73-2.59,0-3.58l7.73-4.5a6.82,6.82,0,0,1,6.19,0Z" transform="translate(171.06 64.43)"/><path class="cls-14" d="M473.53,304.77c1,.59,1,1.54,0,2.13a4.06,4.06,0,0,1-3.67,0L324,222.65c-1-.59-1-1.54,0-2.13a4.06,4.06,0,0,1,3.67,0Z" transform="translate(171.06 64.43)"/><path class="cls-14" d="M422.66,309.23a.69.69,0,0,1,0,1.31l-1.35.78a2.52,2.52,0,0,1-2.27,0l-20.8-12a.69.69,0,0,1,0-1.31l1.36-.78a2.44,2.44,0,0,1,2.26,0Z" transform="translate(171.06 64.43)"/><path class="cls-14" d="M451.64,318.31a.69.69,0,0,1,0,1.31l-1.35.79a2.52,2.52,0,0,1-2.27,0l-43.17-24.93a.7.7,0,0,1,0-1.32l1.35-.78a2.47,2.47,0,0,1,2.26,0Z" transform="translate(171.06 64.43)"/><path class="cls-14" d="M396.87,324.21a.7.7,0,0,1,0,1.32l-1.35.78a2.5,2.5,0,0,1-2.26,0l-20.8-12c-.63-.37-.64-.95,0-1.31l1.34-.79a2.52,2.52,0,0,1,2.27,0Z" transform="translate(171.06 64.43)"/><path class="cls-14" d="M425.85,333.3c.63.36.64.94,0,1.31l-1.34.78a2.52,2.52,0,0,1-2.27,0l-43.18-24.93a.69.69,0,0,1,0-1.31l1.35-.78a2.44,2.44,0,0,1,2.26,0Z" transform="translate(171.06 64.43)"/><path class="cls-14" d="M405.21,344.47a1.12,1.12,0,0,1,0,2.13,4,4,0,0,1-3.66,0L255.66,262.35c-1-.59-1-1.54,0-2.13a4.08,4.08,0,0,1,3.68,0Z" transform="translate(171.06 64.43)"/><path class="cls-14" d="M398.74,348.23a1.13,1.13,0,0,1,0,2.13,4,4,0,0,1-3.68,0l-145.9-84.24c-1-.59-1-1.55,0-2.13a4,4,0,0,1,3.67,0Z" transform="translate(171.06 64.43)"/><path class="cls-14" d="M392.26,352c1,.59,1,1.54,0,2.12a4,4,0,0,1-3.67,0L242.7,269.88c-1-.59-1-1.54,0-2.13a4.06,4.06,0,0,1,3.67,0Z" transform="translate(171.06 64.43)"/><path class="cls-14" d="M385.78,355.76a1.12,1.12,0,0,1,0,2.13,4.06,4.06,0,0,1-3.67,0L236.22,273.64c-1-.59-1-1.54,0-2.12a4,4,0,0,1,3.68,0Z" transform="translate(171.06 64.43)"/><path class="cls-14" d="M379.31,359.52c1,.59,1,1.54,0,2.13a4,4,0,0,1-3.68,0l-145.9-84.24a1.12,1.12,0,0,1,0-2.13,4,4,0,0,1,3.67,0Z" transform="translate(171.06 64.43)"/></g><path class="cls-6" d="M628.52,321.12c20.89,12.06,33.55,29.22,28.3,38.33s-26.46,6.72-47.34-5.34-33.56-29.22-28.3-38.33S607.63,309.06,628.52,321.12Z" transform="translate(171.06 64.43)"/><path class="cls-15" d="M617.87,318.58a25.56,25.56,0,0,0,.58,3.13,13.42,13.42,0,0,1,.46,4.89c-.26,1.14-3.52,2.77-5.33,3a11.39,11.39,0,0,0-5.64,3.47c-1.47,1.87-5.39,3.26-7.91,3s-5.38-.89-6-1.91.24-2.16,5.54-5.94,8.85-6.06,10.52-9.57Z" transform="translate(171.06 64.43)"/><path class="cls-15" d="M632.42,346.81a8.37,8.37,0,0,1-5.91,3.15,23.72,23.72,0,0,1-3.67.15c-1.3,0-3.29-.78-3.17-2.39a2.75,2.75,0,0,1,.68-1.36c2.08-2.69,4.31-5.26,6.21-8.08,2.14-3.17,4.26-6.17,5-10.95l7.95.09c0,.67.21,1.61.33,2.49s.36,1.75.56,2.62c.39,1.73.66,3.54-.23,5.16-.67,1.22-2,1.9-3.06,2.78C635.11,342.16,633.94,344.64,632.42,346.81Z" transform="translate(171.06 64.43)"/><path class="cls-16" d="M575.52,176.54l15.29,19.66a3.59,3.59,0,0,0,5.69,0l4.11-5.41-5.88-8.57-1.06,1.7-17.4-12.73Z" transform="translate(171.06 64.43)"/><path class="cls-16" d="M576.27,171.16,576,170a5,5,0,0,0-2.16-3.06s0-3.83-.64-4.65c-.94-1.25-2,2.35-1.92,3.22a11,11,0,0,0,.15,1.39l-2.3-.33a1.53,1.53,0,0,0-1.7,1.39l-.37,4.41a2.63,2.63,0,0,0,1.67,2.56c.76.3,1.74-.3,2.34-.74l.74.95a5,5,0,0,0,3.46,1.4h.26Z" transform="translate(171.06 64.43)"/><polygon class="cls-17" points="742.31 233.32 742.94 235.59 745.5 238.07 742.91 236.67 742.12 238.36 742.22 236.26 742.31 233.32"/><path class="cls-18" d="M617.66,214.41l2,13.8-2,13.69-.88,27.74L619.67,287l-2,32.53a3.39,3.39,0,0,1-2.78,3.14l-.29.06a3.41,3.41,0,0,1-4-2.92L605,277.28l-5.71-44.07.31-17.08Z" transform="translate(171.06 64.43)"/><path class="cls-19" d="M593.67,182.89l8.06-36.48a6.58,6.58,0,0,1,6.66-5.87,7.33,7.33,0,0,1,7.68,8.85l-10.33,43.13a2.75,2.75,0,0,1-4.83,1.07C598.37,190.39,596.53,184.69,593.67,182.89Z" transform="translate(171.06 64.43)"/><path class="cls-18" d="M639.15,220.14l.4,1.48a47.59,47.59,0,0,1,0,24.51l-.4,1.5-.88,27.74,2.89,17.33-1.43,35.24a3.4,3.4,0,0,1-3.54,3.25l-1.25-.05a3.39,3.39,0,0,1-3.25-3L626.5,283l-12.33-45-1.5-15.61Z" transform="translate(171.06 64.43)"/><path class="cls-20" d="M601.39,156.51c-1.13,16.09-4.09,41.2-3,63.63.36,5.61,26.7,15.23,42.75,1.27-4.86-28.66-1.21-44.35,2.83-67.15a10,10,0,0,0-3.71-9.64L627,135.75l-8.88.68-6.92,2.2C608.42,139.5,602.15,145.72,601.39,156.51Zm13.1,36v0Z" transform="translate(171.06 64.43)"/><path class="cls-21" d="M609.34,119.1a24.57,24.57,0,0,1-2.79-8.75c-.29-2.41-1.48-5-.45-7.16A6.74,6.74,0,0,1,618,102.6a12.64,12.64,0,0,1,8.61.91,6.47,6.47,0,0,1,2.53,1.87,3.12,3.12,0,0,1,.51,3,5.1,5.1,0,0,1,3.11,2.68,7.22,7.22,0,0,1,.34,5.2,21.39,21.39,0,0,1-2.22,4.84c-1.51,2.67-3.92,5.2-5.63,7.75C619.15,127.24,612.35,124.63,609.34,119.1Z" transform="translate(171.06 64.43)"/><path class="cls-17" d="M614.17,136.67l.4-5,11.75-4.81.29,4C623.44,134.35,618.71,137.26,614.17,136.67Z" transform="translate(171.06 64.43)"/><path class="cls-16" d="M626.61,130.85l.42,5.78-8,6.16a2.52,2.52,0,0,1-2.14.45,2.49,2.49,0,0,1-1.48-1.06l-1.1-1.67a2.34,2.34,0,0,1-.38-1.28l.2-2.56C618.71,137.26,623.44,134.35,626.61,130.85Z" transform="translate(171.06 64.43)"/><path class="cls-16" d="M608.59,110.07h15l.5,5,1.09,2v5l1.46-.49c.26-.59.53-3.27,1.19-3.44,3.55-.87,1.75,4,1.48,5a1.53,1.53,0,0,1-2.28.84v3.33a5.33,5.33,0,0,1-2,4.17c-1.91,1.54-5,3.48-8.64,3.48a7.67,7.67,0,0,1-7.49-5l-.78-13.57Z" transform="translate(171.06 64.43)"/><polygon class="cls-5" points="756.42 244.01 773.72 254 778.65 277.62 777.7 278.18 763.29 268.77 755.48 244.58 756.42 244.01"/><polygon class="cls-7" points="755.48 244.58 772.78 254.57 777.7 278.18 762.34 269.34 755.48 244.58"/><path class="cls-16" d="M644,150.9l4.45,43.44a3.77,3.77,0,0,1-2.41,4.08L614.18,207l-1.31-4.72,21.28-11.07c1.53-.71,1.09-1.34.83-3l-5.42-35.06a6.58,6.58,0,0,1,4.16-7.84A7.33,7.33,0,0,1,644,150.9Z" transform="translate(171.06 64.43)"/><path class="cls-13" d="M634.63,191l-5.07-37.8a6.58,6.58,0,0,1,4.16-7.84A7.33,7.33,0,0,1,644,150.9l5.27,43.15a4.34,4.34,0,0,1-.59,2.86C645.2,202.58,639.11,191.88,634.63,191Z" transform="translate(171.06 64.43)"/><path class="cls-16" d="M597.33,198a.88.88,0,0,1-.62-.38l-.6-.91,9.39.65,10,4.93L614.18,207l-6-.45-4.68-2.7-3.91,1.6a.85.85,0,0,1-.73,0L598,205l5-2.42v-.33l-4.86,1.44a.93.93,0,0,1-.76-.13l-.81-.59,6.42-2.33v-.28l-6.76.32a.87.87,0,0,1-.72-.33l-.6-.75,8.07-.83v-.07Z" transform="translate(171.06 64.43)"/><g class="cls-22"><path class="cls-23" d="M156.44,69.27l54.37-31.39c1.79-1,3.25-.19,3.25,1.88V79.11a7.17,7.17,0,0,1-3.25,5.62l-54.37,31.39c-1.79,1-3.24.2-3.24-1.87V74.89A7.18,7.18,0,0,1,156.44,69.27Z" transform="translate(171.06 64.43)"/><path class="cls-24" d="M156.44,69.27l54.37-31.39c1.79-1,3.25-.19,3.25,1.88V79.11a7.17,7.17,0,0,1-3.25,5.62l-54.37,31.39c-1.79,1-3.24.2-3.24-1.87V74.89A7.18,7.18,0,0,1,156.44,69.27Z" transform="translate(171.06 64.43)"/><path class="cls-14" d="M207.36,47.75l-13.53,7.82h0L159.89,75.16A3.58,3.58,0,0,0,158.27,78v.09c0,1,.73,1.45,1.62.93l28.4-16.39h0l19.05-11A3.59,3.59,0,0,0,209,48.78v-.09C209,47.65,208.26,47.23,207.36,47.75Z" transform="translate(171.06 64.43)"/><path class="cls-14" d="M159.89,93.2,182,80.44c.89-.52,1.62-.1,1.62.93v.1a3.58,3.58,0,0,1-1.62,2.8L159.89,97c-.89.52-1.62.1-1.62-.94V96A3.61,3.61,0,0,1,159.89,93.2Z" transform="translate(171.06 64.43)"/><path class="cls-14" d="M188.31,76.8l19.05-11c.9-.52,1.63-.1,1.63.93v.1a3.59,3.59,0,0,1-1.63,2.81l-19.05,11c-.9.52-1.62.1-1.62-.94v-.09A3.58,3.58,0,0,1,188.31,76.8Z" transform="translate(171.06 64.43)"/><path class="cls-14" d="M207.36,56.77l-5.94,3.42h0l-1.19.69-7,4-.21.14-5.39,3.12-.16.07L180.91,72l-21,12.15A3.61,3.61,0,0,0,158.27,87v.09c0,1,.73,1.45,1.62.94l17.27-10,.08,0,3.38-2,20-11.55,6.76-3.88A3.58,3.58,0,0,0,209,57.8v-.09C209,56.68,208.26,56.26,207.36,56.77Z" transform="translate(171.06 64.43)"/><path class="cls-14" d="M159.89,102.33l19.29-11.12c.9-.51,1.62-.09,1.62.94v.09a3.55,3.55,0,0,1-1.62,2.81l-19.29,11.12c-.89.51-1.62.09-1.62-.94v-.09A3.58,3.58,0,0,1,159.89,102.33Z" transform="translate(171.06 64.43)"/><path class="cls-14" d="M184.56,88.11l10.15-5.89c.89-.52,1.62-.11,1.62.93v.09a3.61,3.61,0,0,1-1.62,2.81L184.56,92c-.9.52-1.62.1-1.62-.93v-.1A3.58,3.58,0,0,1,184.56,88.11Z" transform="translate(171.06 64.43)"/><path class="cls-14" d="M200.47,78.88l6.89-4c.9-.52,1.63-.1,1.63.94V76a3.59,3.59,0,0,1-1.63,2.81l-6.89,4c-.9.52-1.63.09-1.63-.94v-.09A3.58,3.58,0,0,1,200.47,78.88Z" transform="translate(171.06 64.43)"/></g><path class="cls-6" d="M185.37,159.77c-16.92,9.91-31.41,16.61-32.37,15s12-11,28.89-20.92,31.41-16.61,32.37-15S202.29,149.86,185.37,159.77Z" transform="translate(171.06 64.43)"/><g class="cls-22"><path class="cls-23" d="M174.93,129.66l65.82-38c2.17-1.26,3.93-.24,3.93,2.26v47.65a8.66,8.66,0,0,1-3.93,6.8l-65.82,38c-2.17,1.25-3.93.24-3.93-2.27V136.46A8.68,8.68,0,0,1,174.93,129.66Z" transform="translate(171.06 64.43)"/><path class="cls-24" d="M174.93,129.66l65.82-38c2.17-1.26,3.93-.24,3.93,2.26v47.65a8.66,8.66,0,0,1-3.93,6.8l-65.82,38c-2.17,1.25-3.93.24-3.93-2.27V136.46A8.68,8.68,0,0,1,174.93,129.66Z" transform="translate(171.06 64.43)"/><path class="cls-14" d="M236.58,103.6l-16.39,9.46h0l-41.06,23.71a4.34,4.34,0,0,0-2,3.4v.11c0,1.25.88,1.76,2,1.14l34.38-19.85h0l23.07-13.32a4.36,4.36,0,0,0,2-3.4v-.12C238.54,103.48,237.66,103,236.58,103.6Z" transform="translate(171.06 64.43)"/><path class="cls-14" d="M179.11,158.63l26.77-15.46c1.08-.62,2-.11,2,1.14v.11a4.34,4.34,0,0,1-2,3.4l-26.77,15.46c-1.09.62-2,.12-2-1.14V162A4.34,4.34,0,0,1,179.11,158.63Z" transform="translate(171.06 64.43)"/><path class="cls-14" d="M213.51,138.77l23.07-13.32c1.08-.62,2-.12,2,1.14v.11a4.36,4.36,0,0,1-2,3.4l-23.07,13.32c-1.09.62-2,.12-2-1.14v-.11A4.34,4.34,0,0,1,213.51,138.77Z" transform="translate(171.06 64.43)"/><path class="cls-14" d="M236.58,114.52l-7.2,4.14,0,0-1.44.83-8.53,4.9a2.2,2.2,0,0,0-.25.17l-6.53,3.78-.19.08L204.56,133l-25.45,14.71a4.32,4.32,0,0,0-2,3.4v.11c0,1.25.88,1.76,2,1.13L200,140.27l.1,0,4.09-2.38,24.2-14,8.18-4.7a4.36,4.36,0,0,0,2-3.4v-.11C238.54,114.41,237.66,113.9,236.58,114.52Z" transform="translate(171.06 64.43)"/><path class="cls-14" d="M179.11,169.68l23.35-13.46c1.08-.62,2-.11,2,1.14v.11a4.36,4.36,0,0,1-2,3.4l-23.35,13.45c-1.09.63-2,.12-2-1.13v-.11A4.32,4.32,0,0,1,179.11,169.68Z" transform="translate(171.06 64.43)"/><path class="cls-14" d="M209,152.47l12.29-7.14c1.08-.63,2-.12,2,1.13v.11a4.36,4.36,0,0,1-2,3.4L209,157.11c-1.09.63-2,.12-2-1.13v-.11A4.33,4.33,0,0,1,209,152.47Z" transform="translate(171.06 64.43)"/><path class="cls-14" d="M228.23,141.29l8.35-4.8c1.08-.62,2-.11,2,1.14v.11a4.34,4.34,0,0,1-2,3.4l-8.35,4.8c-1.09.62-2,.11-2-1.14v-.11A4.34,4.34,0,0,1,228.23,141.29Z" transform="translate(171.06 64.43)"/></g><path class="cls-6" d="M209.59,201.77c-16.92,9.91-31.42,16.61-32.38,15s12-11,28.89-20.92,31.42-16.61,32.38-15S226.5,191.86,209.59,201.77Z" transform="translate(171.06 64.43)"/><g class="cls-22"><path class="cls-23" d="M305,65.57l54.37-31.39c1.79-1,3.24-.19,3.25,1.88V75.41A7.17,7.17,0,0,1,359.34,81L305,112.42c-1.79,1-3.24.2-3.24-1.87V71.19A7.18,7.18,0,0,1,305,65.57Z" transform="translate(171.06 64.43)"/><path class="cls-24" d="M305,65.57l54.37-31.39c1.79-1,3.24-.19,3.25,1.88V75.41A7.17,7.17,0,0,1,359.34,81L305,112.42c-1.79,1-3.24.2-3.24-1.87V71.19A7.18,7.18,0,0,1,305,65.57Z" transform="translate(171.06 64.43)"/><path class="cls-14" d="M355.89,44.05l-13.54,7.82h0L308.42,71.46a3.58,3.58,0,0,0-1.62,2.8v.1c0,1,.73,1.45,1.62.93l28.4-16.39h0l19.05-11a3.58,3.58,0,0,0,1.62-2.81V45C357.51,44,356.79,43.53,355.89,44.05Z" transform="translate(171.06 64.43)"/><path class="cls-14" d="M308.42,89.5l22.11-12.76c.9-.52,1.63-.1,1.63.93v.09a3.56,3.56,0,0,1-1.63,2.81L308.42,93.34c-.89.52-1.62.1-1.62-.94v-.09A3.61,3.61,0,0,1,308.42,89.5Z" transform="translate(171.06 64.43)"/><path class="cls-14" d="M336.84,73.1l19.05-11c.9-.52,1.62-.1,1.62.93v.1a3.55,3.55,0,0,1-1.62,2.8l-19.05,11c-.9.51-1.63.09-1.63-.94v-.09A3.59,3.59,0,0,1,336.84,73.1Z" transform="translate(171.06 64.43)"/><path class="cls-14" d="M355.89,53.07,350,56.49h0l-1.19.69-7,4.05-.21.14-5.39,3.12-.16.07-6.48,3.76-21,12.15a3.6,3.6,0,0,0-1.62,2.81v.09c0,1,.73,1.45,1.62.94l17.27-10,.08,0,3.38-2,20-11.55,6.76-3.88a3.57,3.57,0,0,0,1.62-2.81V54C357.51,53,356.79,52.56,355.89,53.07Z" transform="translate(171.06 64.43)"/><path class="cls-14" d="M308.42,98.63l19.29-11.12c.9-.51,1.62-.09,1.62.94v.09a3.57,3.57,0,0,1-1.62,2.81l-19.29,11.11c-.89.52-1.62.1-1.62-.93v-.09A3.58,3.58,0,0,1,308.42,98.63Z" transform="translate(171.06 64.43)"/><path class="cls-14" d="M333.08,84.41l10.16-5.9c.89-.51,1.62-.1,1.62.94v.09a3.61,3.61,0,0,1-1.62,2.81l-10.16,5.9c-.89.52-1.61.1-1.61-.93v-.1A3.6,3.6,0,0,1,333.08,84.41Z" transform="translate(171.06 64.43)"/><path class="cls-14" d="M349,75.18l6.9-4c.9-.52,1.62-.1,1.62.94v.09a3.55,3.55,0,0,1-1.62,2.8L349,79c-.89.51-1.62.09-1.62-.94V78A3.6,3.6,0,0,1,349,75.18Z" transform="translate(171.06 64.43)"/></g><path class="cls-6" d="M333.9,144.68c-16.92,9.91-31.41,16.61-32.38,15s12-11,28.9-20.92,31.41-16.61,32.37-15S350.82,134.77,333.9,144.68Z" transform="translate(171.06 64.43)"/><g class="cls-22"><path class="cls-23" d="M245.62,127.22l78.59-45.37c2.59-1.5,4.68-.29,4.68,2.7v56.89a10.34,10.34,0,0,1-4.68,8.12l-78.59,45.37c-2.59,1.5-4.69.29-4.69-2.7V135.34A10.35,10.35,0,0,1,245.62,127.22Z" transform="translate(171.06 64.43)"/><path class="cls-24" d="M245.62,127.22l78.59-45.37c2.59-1.5,4.68-.29,4.68,2.7v56.89a10.34,10.34,0,0,1-4.68,8.12l-78.59,45.37c-2.59,1.5-4.69.29-4.69-2.7V135.34A10.35,10.35,0,0,1,245.62,127.22Z" transform="translate(171.06 64.43)"/><path class="cls-14" d="M319.22,96.11,299.65,107.4h0l-49,28.31a5.2,5.2,0,0,0-2.34,4.06v.13c0,1.5,1.05,2.11,2.34,1.36l41-23.7h0l27.54-15.91a5.14,5.14,0,0,0,2.34-4.06v-.13C321.56,96,320.52,95.36,319.22,96.11Z" transform="translate(171.06 64.43)"/><path class="cls-14" d="M250.6,161.81l32-18.46c1.29-.74,2.34-.14,2.34,1.36v.13a5.19,5.19,0,0,1-2.34,4.06l-32,18.45c-1.29.75-2.34.15-2.34-1.35v-.13A5.19,5.19,0,0,1,250.6,161.81Z" transform="translate(171.06 64.43)"/><path class="cls-14" d="M291.68,138.1l27.54-15.91c1.3-.74,2.34-.14,2.34,1.36v.13a5.16,5.16,0,0,1-2.34,4.06l-27.54,15.9c-1.3.75-2.35.15-2.35-1.35v-.13A5.17,5.17,0,0,1,291.68,138.1Z" transform="translate(171.06 64.43)"/><path class="cls-14" d="M319.22,109.15l-8.6,4.93-.05,0-1.71,1L298.67,121c-.1.06-.2.14-.3.21l-7.79,4.5a2.4,2.4,0,0,0-.23.11L281,131.21,250.6,148.77a5.17,5.17,0,0,0-2.34,4.06V153c0,1.49,1.05,2.1,2.34,1.35l25-14.42.12-.06,4.88-2.83,28.89-16.7,9.77-5.61a5.17,5.17,0,0,0,2.34-4v-.14C321.56,109,320.51,108.4,319.22,109.15Z" transform="translate(171.06 64.43)"/><path class="cls-14" d="M250.6,175l27.88-16.07c1.3-.74,2.35-.14,2.35,1.36v.13a5.17,5.17,0,0,1-2.35,4.06L250.6,180.54c-1.29.75-2.34.14-2.34-1.35v-.13A5.17,5.17,0,0,1,250.6,175Z" transform="translate(171.06 64.43)"/><path class="cls-14" d="M286.25,154.45l14.68-8.52c1.29-.76,2.34-.15,2.34,1.34v.14a5.2,5.2,0,0,1-2.34,4.06L286.25,160c-1.29.75-2.34.15-2.34-1.34v-.14A5.2,5.2,0,0,1,286.25,154.45Z" transform="translate(171.06 64.43)"/><path class="cls-14" d="M309.25,141.11l10-5.73c1.29-.75,2.34-.14,2.34,1.35v.14a5.17,5.17,0,0,1-2.34,4l-10,5.73c-1.3.75-2.35.14-2.35-1.35v-.14A5.15,5.15,0,0,1,309.25,141.11Z" transform="translate(171.06 64.43)"/></g><path class="cls-6" d="M286.55,189.15c-27.12,15.88-49.84,27.51-50.74,26s20.35-15.67,47.47-31.55,49.83-27.52,50.73-26S313.67,173.26,286.55,189.15Z" transform="translate(171.06 64.43)"/><path class="cls-6" d="M170.14,405.42c20,9.45,32.39,25,27.78,34.71s-24.5,10-44.45.51-32.39-25-27.79-34.71S150.19,396,170.14,405.42Z" transform="translate(171.06 64.43)"/><path class="cls-25" d="M136.32,416.37a30.93,30.93,0,0,1-.68,3.74c-.39,1.61-.48,3.73,1.35,4.31s3.9.39,5.07-1.18c1.46-2,2.21-4.42,4.33-6.33s4.53-3.91,5.26-6.83c.66-2.64.24-4.28-1.57-4.55-2.27-.33-5.87,1.58-7.72,2.94C141,409.45,136.32,416.37,136.32,416.37Z" transform="translate(171.06 64.43)"/><path class="cls-25" d="M159.86,423.14s-.13,2.2-.25,3.95-.69,4.68-.17,5.74,4.11,1.59,7.27.38c2-.79,7-2.32,8.37-1.57a7,7,0,0,0,7.5-.72c2.72-1.91,5.73-4.35,6.18-5.83s-1-1.59-7.6-2.28-11.52-1.05-14.1-3.74Z" transform="translate(171.06 64.43)"/><g class="cls-2"><path class="cls-7" d="M269.31,268.82c.15.27.28.55.42.83s.23.47.34.72.18.43.26.65.2.49.28.75.15.45.22.68l.21.76c.06.23.11.47.16.71s.11.52.16.79.07.48.1.72.08.57.1.86l.06.73,0,.89v.74c0,.36,0,.73,0,1.09s0,.45,0,.68c0,.41-.09.83-.15,1.25,0,.2-.05.4-.08.59a2.33,2.33,0,0,1-.05.28c-.07.43-.16.87-.26,1.3,0,.12,0,.24-.08.36-.11.51-.25,1-.4,1.54,0,.09-.05.19-.08.28-.12.39-.25.78-.38,1.18s-.22.63-.34.95-.22.59-.34.88-.26.65-.4,1-.26.6-.4.9l-.47,1-.45.91-.54,1-.7,1.25c-.47.78-1,1.56-1.48,2.33-.14.23-.3.45-.45.67-.4.59-.82,1.18-1.25,1.76l-.44.59q-.85,1.13-1.77,2.22l-.33.39c-.52.61-1.06,1.22-1.6,1.82l-.69.74q-.45.48-.93,1c-.26.28-.53.55-.8.81s-.64.64-1,.95l-.83.79-1,.93-.86.76c-.35.31-.71.61-1.07.91l-.83.69c-.78.64-1.57,1.27-2.37,1.88l-.35.26c-.7.53-1.41,1-2.14,1.55-.27.2-.55.39-.83.58-.46.33-.93.64-1.41,1l-.89.58c-.5.33-1,.64-1.51.95l-.85.53-1.33.78-.93.54-1.45.79-.86.47-1.35.69-.93.47-1.48.7-.84.4c-.58.27-1.17.52-1.75.77l-.59.26c-.78.33-1.57.65-2.35,1l-.37.14c-.69.26-1.37.52-2,.76l-.85.29-1.59.53-.82.25-1.75.52-1,.26-1.6.42-.92.21c-.85.2-1.7.38-2.55.55l-.45.09c-1,.18-2,.34-2.94.47l-1.18.16-.94.11-1.34.12-.88.07c-.49,0-1,.06-1.47.08l-.72,0c-.73,0-1.46,0-2.17,0-12-.15-20.41-4.48-24.24-11.36l7.19,12.9c3.83,6.88,12.22,11.21,24.23,11.36.72,0,1.45,0,2.17,0l.74,0c.48,0,1,0,1.46-.08l.88-.07c.44,0,.89-.07,1.33-.12l.95-.11.9-.11.28-.05c1-.13,1.95-.29,2.94-.47l.45-.09c.85-.17,1.7-.35,2.55-.55.15,0,.29-.05.43-.09l.48-.12c.54-.13,1.07-.27,1.61-.42l1-.26,1.75-.52.65-.19.17-.06,1.59-.53.84-.29c.69-.24,1.38-.5,2.06-.76l.35-.13h0c.78-.3,1.57-.62,2.35-.95l.53-.24c.61-.25,1.21-.52,1.81-.79l0,0,.81-.38,1.46-.7c.32-.15.63-.32,1-.48l1.34-.68.11-.06.75-.41,1.45-.79.93-.54,1.33-.78.24-.15c.21-.12.41-.25.61-.38l1.51-.94.89-.59c.48-.32.95-.63,1.41-1l.5-.33.33-.24c.73-.51,1.44-1,2.14-1.56l.35-.26c.8-.61,1.59-1.24,2.37-1.87l.22-.18.61-.52c.36-.3.72-.6,1.07-.91l.85-.76,1-.93.82-.78,1-1c.27-.26.54-.53.8-.8s.62-.65.93-1c.13-.15.27-.28.41-.43l.27-.31c.55-.6,1.09-1.21,1.61-1.82l.33-.39q.92-1.1,1.77-2.22l.43-.59c.44-.58.86-1.17,1.26-1.76l.45-.66c.51-.78,1-1.55,1.48-2.34l.37-.65c.12-.2.22-.4.33-.6l.54-1,.45-.91c.16-.33.32-.65.47-1s.27-.6.4-.9.27-.64.4-1,.23-.59.34-.88.23-.64.34-.95c0-.13.1-.26.14-.39l.24-.79a2.29,2.29,0,0,0,.08-.28c.15-.51.28-1,.4-1.54,0-.12.06-.24.08-.36.1-.43.18-.87.26-1.3,0-.09,0-.18,0-.27a.69.69,0,0,0,0-.13c0-.16,0-.31.06-.47.06-.42.11-.84.15-1.25,0-.23,0-.45,0-.67s0-.74,0-1.1c0-.1,0-.2,0-.3s0-.29,0-.43l0-.9-.06-.73c0-.29-.06-.58-.1-.86,0-.13,0-.26,0-.39s-.05-.22-.07-.33c0-.27-.09-.53-.15-.79s-.1-.48-.16-.71l-.21-.76c0-.14-.08-.28-.12-.42s-.07-.17-.1-.26c-.09-.26-.18-.51-.28-.75s-.17-.44-.26-.65-.22-.48-.34-.72-.13-.29-.2-.43-.14-.27-.22-.4h0Z" transform="translate(171.06 64.43)"/><ellipse class="cls-26" cx="223.21" cy="294.5" rx="52.77" ry="30.57" transform="translate(55.94 210.32) rotate(-29.13)"/></g><polygon class="cls-17" points="349.3 306.93 352.36 310.98 333.56 325.42 329.23 316.34 349.3 306.93"/><path class="cls-17" d="M194.11,231.41a.94.94,0,0,0,.45-.61l.23-1.11-8.8,4.23-7.75,8.58,2.9,4.12,5.83-2.75,3.47-4.4,4.38.05a.9.9,0,0,0,.7-.31l.65-.75-5.71-.43-.13-.32,5.24-.48a.94.94,0,0,0,.68-.41l.55-.87-7.08.2-.11-.27,6.64-2.28a.9.9,0,0,0,.58-.59l.29-.95L189,234.34l0-.06Z" transform="translate(171.06 64.43)"/><polyline class="cls-17" points="355.96 301.12 361.75 296.85 361.75 298.3 359.54 300.58 357.17 305.24 353.82 306.93"/><path class="cls-5" d="M225.58,299.07h0a18.69,18.69,0,0,1-25.85-5.48l-39.8-61.2a18.7,18.7,0,0,1,5.48-25.86h0A18.69,18.69,0,0,1,191.26,212l39.8,61.21A18.69,18.69,0,0,1,225.58,299.07Z" transform="translate(171.06 64.43)"/><path class="cls-17" d="M146.36,218.79l1.34-12.6-9.57.3-.82,4.48C139.32,215.23,142.65,219,146.36,218.79Z" transform="translate(171.06 64.43)"/><path class="cls-16" d="M137.31,211l-1.71,10.36,6,3.79a1.57,1.57,0,0,0,1.63.73,2.19,2.19,0,0,0,1.34-1l1.12-1.76a3.45,3.45,0,0,0,.5-1.4l.21-2.88C142.65,219,139.32,215.23,137.31,211Z" transform="translate(171.06 64.43)"/><path class="cls-16" d="M158.89,193.49l-8.41-1.11-1.28,5.47L147.68,200l-.72,5.57-1.57-.76c-.2-.7-.11-3.74-.82-4-3.84-1.51-2.55,4.23-2.38,5.31a1.72,1.72,0,0,0,2.42,1.28l-.22,1.64c-.82,6.26,2.34,11.5,8.65,11.16C154.73,220.05,158.89,193.49,158.89,193.49Z" transform="translate(171.06 64.43)"/><path class="cls-7" d="M143.59,294.49l2.26,15.56,3.8,14.2,1.43,34-7.43,53.32a5.67,5.67,0,0,1-4.62,5.22l-1.51.29a1.34,1.34,0,0,1-1.56-1.18l-2.72-29.37a45.44,45.44,0,0,1,6-27.07l1.64-2.8L125,322A38.22,38.22,0,0,1,123,309l.23-12.57Z" transform="translate(171.06 64.43)"/><path class="cls-7" d="M167.83,301l.44,1.67c2.42,9.05,2.69,62.86,2.69,62.86l-2.61,54.12a4.63,4.63,0,0,1-4.81,4.4l-2-.08a2.22,2.22,0,0,1-2.12-1.95l-3.53-30a45.36,45.36,0,0,1,3.3-23l1.82-4.29-17.64-33.77a78.4,78.4,0,0,1-4.69-20.2l-.7-7.19Z" transform="translate(171.06 64.43)"/><path class="cls-27" d="M138,220.24c-8.22-.81-17.41,6.55-15,14.16,16.67,52,4.86,40.49-1.89,68.83,18.1,15.74,50.31,4.55,48.23-1.43-18.14-52.12,1.82-37.82-4.4-56.74C164.34,243.26,155.57,222,138,220.24Z" transform="translate(171.06 64.43)"/><path class="cls-28" d="M159.37,184.9a14.57,14.57,0,0,1-8.06,22c-3.34,6.74-6.56,13.84-7.88,21.25a75.89,75.89,0,0,1-2.19,10.69c-1.16,3.45-3.18,6.77-6.31,8.63-4.79,2.84-11.33,1.49-15.36-2.33s-5.76-9.64-5.59-15.2,2-10.93,4.32-16,5-10,6.9-15.18c1.52-4.07,2.61-8.38,5-12a19.3,19.3,0,0,1,14-8.39C149.81,177.83,156.27,180.2,159.37,184.9Z" transform="translate(171.06 64.43)"/><path class="cls-16" d="M192.86,266.45l-25.76,1c-1.81.16-1.73-.66-2.38-2.36L153.37,235.5c-4,1.16-7.75,2.68-10.87,5.72l15.9,35.85a4.06,4.06,0,0,0,4.43,2.52l31.32-8Z" transform="translate(171.06 64.43)"/><path class="cls-16" d="M211.67,262.48a1,1,0,0,0,.67-.4l.66-1-10.1.49-10.85,5.08,1.12,5.1,6.66-.29,5.09-2.8,4.16,1.82a1,1,0,0,0,.79,0l.92-.45-5.28-2.71V267l5.19,1.65a1,1,0,0,0,.82-.12l.88-.61-6.84-2.65v-.3l7.25.49a.93.93,0,0,0,.79-.33l.66-.79-8.66-1.08v-.08Z" transform="translate(171.06 64.43)"/><path class="cls-5" d="M86.28,415.65A15.09,15.09,0,0,1,81.92,429l-.08.08C75.15,435.44,64,439.22,52,439.22s-23.13-3.78-29.82-10.11l-.13-.13a15.12,15.12,0,0,1-4.31-13.54l.11-.65h9l50.89.1h8.44l0,.16v.09Z" transform="translate(171.06 64.43)"/><path class="cls-7" d="M86.25,416.18c0,4.39-2.13,8.47-5.78,11.86-6.14,5.71-16.59,9.47-28.45,9.47S29.7,433.75,23.56,428c-3.64-3.39-5.77-7.47-5.77-11.86,0-11.77,15.32-21.32,34.23-21.32S86.25,404.41,86.25,416.18Z" transform="translate(171.06 64.43)"/><path class="cls-29" d="M82.17,415.2c0,3.89-1.89,7.51-5.12,10.51-5.45,5.06-14.71,8.39-25.23,8.39S32,430.77,26.6,425.71c-3.24-3-5.12-6.62-5.12-10.51,0-10.44,13.58-18.9,30.34-18.9S82.17,404.76,82.17,415.2Z" transform="translate(171.06 64.43)"/><path class="cls-5" d="M82.17,415.2c0,3.89-1.89,7.51-5.12,10.51-5.45,5.06-14.71,8.39-25.23,8.39S32,430.77,26.6,425.71c-3.24-3-5.12-6.62-5.12-10.51,0-10.44,13.58-18.9,30.34-18.9S82.17,404.76,82.17,415.2Z" transform="translate(171.06 64.43)"/><path class="cls-10" d="M52.25,403.89c-15,0-27.19,7.59-27.19,16.95a11,11,0,0,0,.84,4.2l.7.67c5.44,5.06,14.71,8.39,25.22,8.39s19.78-3.33,25.23-8.39a20.77,20.77,0,0,0,2.08-2.25,11,11,0,0,0,.32-2.62C79.45,411.48,67.27,403.89,52.25,403.89Z" transform="translate(171.06 64.43)"/><path class="cls-30" d="M52.14,263.55C36.6,263.55,7,277.28,7,294.23c0,2.62,14.05,120.48,14.62,122.91.23.41,2.43,17.85,30.05,17,31.19-1,30.48-17.72,30.34-19.18.22-1.55,15.46-119.08,15.46-120.69C97.49,277.28,67.68,263.55,52.14,263.55Z" transform="translate(171.06 64.43)"/><path class="cls-5" d="M734.48,424a15.09,15.09,0,0,1-4.36,13.38l-.08.08c-6.69,6.33-17.84,10.11-29.83,10.11s-23.13-3.78-29.82-10.11a.8.8,0,0,0-.13-.13A15.12,15.12,0,0,1,666,423.83l.11-.65h9l50.89.1h8.44l0,.16v.09Z" transform="translate(171.06 64.43)"/><path class="cls-7" d="M734.45,424.57c0,4.39-2.13,8.47-5.78,11.86-6.14,5.71-16.59,9.47-28.45,9.47s-22.32-3.76-28.46-9.47C668.12,433,666,429,666,424.57c0-11.77,15.32-21.32,34.23-21.32S734.45,412.8,734.45,424.57Z" transform="translate(171.06 64.43)"/><path class="cls-31" d="M730.37,423.59c0,3.89-1.89,7.5-5.12,10.51-5.45,5.06-14.71,8.39-25.23,8.39s-19.78-3.33-25.22-8.39c-3.24-3-5.12-6.62-5.12-10.51,0-10.44,13.58-18.91,30.34-18.91S730.37,413.15,730.37,423.59Z" transform="translate(171.06 64.43)"/><path class="cls-5" d="M730.37,423.59c0,3.89-1.89,7.5-5.12,10.51-5.45,5.06-14.71,8.39-25.23,8.39s-19.78-3.33-25.22-8.39c-3.24-3-5.12-6.62-5.12-10.51,0-10.44,13.58-18.91,30.34-18.91S730.37,413.15,730.37,423.59Z" transform="translate(171.06 64.43)"/><path class="cls-10" d="M700.45,412.28c-15,0-27.19,7.59-27.19,16.94a11.1,11.1,0,0,0,.84,4.21l.7.67c5.44,5.06,14.71,8.39,25.22,8.39s19.78-3.33,25.23-8.39a20.77,20.77,0,0,0,2.08-2.25,11,11,0,0,0,.32-2.63C727.65,419.87,715.47,412.28,700.45,412.28Z" transform="translate(171.06 64.43)"/><path class="cls-32" d="M700.34,271.94c-15.54,0-45.12,13.73-45.12,30.67,0,2.63,14,120.48,14.62,122.92.23.41,2.43,17.85,30,17,31.19-1,30.48-17.73,30.34-19.18.22-1.55,15.46-119.08,15.46-120.7C745.69,285.67,715.88,271.94,700.34,271.94Z" transform="translate(171.06 64.43)"/></g></g></g></svg>