<svg xmlns="http://www.w3.org/2000/svg" xmlns:xlink="http://www.w3.org/1999/xlink" viewBox="0 0 2814.58 2788.04"><defs><style>.cls-1{fill:none;}.cls-2{isolation:isolate;}.cls-3,.cls-41{fill:#f4f7fa;}.cls-4,.cls-45{fill:#d8dee8;}.cls-44,.cls-5,.cls-78{fill:#fff;}.cls-6{fill:#9d3060;}.cls-7{fill:#c281e8;}.cls-8{fill:url(#linear-gradient);}.cls-9{fill:#a67ff7;}.cls-10{fill:url(#linear-gradient-2);}.cls-11{clip-path:url(#clip-path);}.cls-12{fill:url(#linear-gradient-3);}.cls-13{fill:url(#linear-gradient-4);}.cls-14{fill:url(#linear-gradient-5);}.cls-15{clip-path:url(#clip-path-2);}.cls-16{fill:#ffc244;}.cls-17{fill:url(#linear-gradient-6);}.cls-18{fill:url(#linear-gradient-7);}.cls-19{fill:url(#linear-gradient-8);}.cls-20{fill:url(#linear-gradient-9);}.cls-21{fill:url(#linear-gradient-10);}.cls-22{fill:url(#linear-gradient-11);}.cls-23{fill:url(#linear-gradient-12);}.cls-24{fill:url(#linear-gradient-13);}.cls-25{fill:url(#linear-gradient-14);}.cls-26{fill:url(#linear-gradient-15);}.cls-27,.cls-37,.cls-57,.cls-70,.cls-75,.cls-80{opacity:0.3;}.cls-27,.cls-37,.cls-57,.cls-70,.cls-75,.cls-76,.cls-80{mix-blend-mode:multiply;}.cls-27{fill:url(#linear-gradient-16);}.cls-28{fill:url(#linear-gradient-17);}.cls-29{fill:url(#linear-gradient-18);}.cls-30{fill:url(#linear-gradient-19);}.cls-31{fill:url(#linear-gradient-20);}.cls-32{fill:url(#linear-gradient-21);}.cls-33{fill:url(#linear-gradient-22);}.cls-34{fill:url(#linear-gradient-23);}.cls-35{fill:url(#linear-gradient-24);}.cls-36{fill:url(#linear-gradient-25);}.cls-37{fill:url(#linear-gradient-26);}.cls-38{fill:url(#linear-gradient-27);}.cls-39{fill:url(#linear-gradient-28);}.cls-40{fill:#b7c0ce;}.cls-41{opacity:0.81;}.cls-42{fill:#bfc8d6;}.cls-43{fill:url(#linear-gradient-29);}.cls-44{opacity:0.48;}.cls-44,.cls-78{mix-blend-mode:soft-light;}.cls-45{opacity:0.47;}.cls-46{fill:url(#linear-gradient-30);}.cls-47{fill:url(#linear-gradient-31);}.cls-48{fill:url(#linear-gradient-32);}.cls-49{fill:url(#linear-gradient-33);}.cls-50{fill:url(#linear-gradient-34);}.cls-51{fill:url(#linear-gradient-35);}.cls-52{fill:url(#linear-gradient-36);}.cls-53{fill:url(#linear-gradient-37);}.cls-54{fill:url(#linear-gradient-38);}.cls-55{fill:#26264f;}.cls-56{fill:url(#linear-gradient-39);}.cls-57{fill:url(#linear-gradient-40);}.cls-58{fill:url(#linear-gradient-41);}.cls-59{fill:url(#linear-gradient-42);}.cls-60{fill:url(#linear-gradient-43);}.cls-61{fill:url(#linear-gradient-44);}.cls-62{fill:url(#linear-gradient-45);}.cls-63{fill:url(#linear-gradient-46);}.cls-64{fill:url(#linear-gradient-47);}.cls-65{fill:url(#linear-gradient-48);}.cls-66{fill:url(#linear-gradient-49);}.cls-67{fill:url(#linear-gradient-50);}.cls-68{fill:url(#linear-gradient-51);}.cls-69{fill:url(#linear-gradient-52);}.cls-70{fill:url(#linear-gradient-53);}.cls-71{fill:url(#linear-gradient-54);}.cls-72{fill:url(#linear-gradient-55);}.cls-73{fill:url(#linear-gradient-56);}.cls-74{fill:url(#linear-gradient-57);}.cls-75{fill:url(#linear-gradient-58);}.cls-76,.cls-81{opacity:0.65;}.cls-76{fill:url(#linear-gradient-59);}.cls-77{fill:url(#linear-gradient-60);}.cls-78{opacity:0.26;}.cls-79{fill:url(#linear-gradient-61);}.cls-80{fill:url(#linear-gradient-62);}.cls-81{fill:url(#linear-gradient-63);}.cls-82{fill:url(#linear-gradient-64);}</style><linearGradient id="linear-gradient" x1="1914.66" y1="658.89" x2="2354.39" y2="658.89" gradientTransform="matrix(1.01, -0.02, 0, 1, -1, 3.51)" gradientUnits="userSpaceOnUse"><stop offset="0" stop-color="#ff9085"/><stop offset="1" stop-color="#fb6fbb"/></linearGradient><linearGradient id="linear-gradient-2" x1="1212.67" y1="634.4" x2="1422.11" y2="634.4" xlink:href="#linear-gradient"/><clipPath id="clip-path"><path class="cls-1" d="M744.84,619V720.93L1012,724.17V594c-70.84-33.17-110.69-30.28-134.08-21.17-26.29,10.24-41.51,32.13-85.31,42A184.18,184.18,0,0,1,744.84,619Z"/></clipPath><linearGradient id="linear-gradient-3" x1="710.86" y1="596.15" x2="935.78" y2="795.66" xlink:href="#linear-gradient"/><linearGradient id="linear-gradient-4" x1="767.91" y1="543.61" x2="989.57" y2="740.22" xlink:href="#linear-gradient"/><linearGradient id="linear-gradient-5" x1="804.62" y1="510.79" x2="1025.66" y2="706.85" xlink:href="#linear-gradient"/><clipPath id="clip-path-2"><path class="cls-1" d="M1884.65,1138.94c26.31-16.89,47.38-20,62.17-19.55,18.73.63,24.74,7,45,4.86,20.7-2.21,22.3-9.71,45.43-13a130.16,130.16,0,0,1,44.62,2c26.47,5.81,27.5,15,43.83,14.57,15.06-.38,16.18-8.26,46-20.32,14.07-5.7,27.2-11,44.61-12.26,19-1.35,20.31,3.75,44.4,3.72a194.28,194.28,0,0,0,43.63-5.38c25.68-5.7,29-34.64,46.32-36.89,10.29-1.33,25.93-1.63,46.11,4.84V1208.2l-511.55,6Z"/></clipPath><linearGradient id="linear-gradient-6" x1="1190.08" y1="1108.37" x2="1700.92" y2="1108.37" xlink:href="#linear-gradient"/><linearGradient id="linear-gradient-7" x1="1069.88" y1="2386.12" x2="1608.2" y2="1319.72" gradientUnits="userSpaceOnUse"><stop offset="0.01" stop-color="#d8dee8"/><stop offset="1" stop-color="#97a6b7"/></linearGradient><linearGradient id="linear-gradient-8" x1="-631.06" y1="-257.62" x2="-1167.38" y2="385.96" gradientTransform="translate(2108.91 609.21) rotate(-24.1)" gradientUnits="userSpaceOnUse"><stop offset="0" stop-color="#311944"/><stop offset="1" stop-color="#a03976"/></linearGradient><linearGradient id="linear-gradient-9" x1="-1012.3" y1="147.57" x2="-1281.91" y2="393.98" gradientTransform="translate(2108.91 609.21) rotate(-24.1)" gradientUnits="userSpaceOnUse"><stop offset="0" stop-color="#ffc444"/><stop offset="1" stop-color="#f36f56"/></linearGradient><linearGradient id="linear-gradient-10" x1="844.18" y1="1312.26" x2="1455.01" y2="1312.26" gradientUnits="userSpaceOnUse"><stop offset="0" stop-color="#e38ddd"/><stop offset="1" stop-color="#9571f6"/></linearGradient><linearGradient id="linear-gradient-11" x1="1250.09" y1="2477.94" x2="1332.21" y2="2477.94" gradientTransform="matrix(-1, 0.09, 0.09, 1, 1604.8, -122.16)" gradientUnits="userSpaceOnUse"><stop offset="0" stop-color="#444b8c"/><stop offset="1" stop-color="#26264f"/></linearGradient><linearGradient id="linear-gradient-12" x1="815" y1="2441.35" x2="851.03" y2="2366.78" gradientTransform="matrix(-1, 0.07, 0.07, 1, 1178.68, -30.72)" xlink:href="#linear-gradient-9"/><linearGradient id="linear-gradient-13" x1="858.32" y1="2442.99" x2="945.56" y2="2442.99" gradientTransform="matrix(-0.98, 0.21, 0.21, 0.98, 1182.53, -125.9)" xlink:href="#linear-gradient-11"/><linearGradient id="linear-gradient-14" x1="702.47" y1="2447.07" x2="739.26" y2="2370.92" gradientTransform="matrix(-0.99, 0.15, 0.15, 0.99, 1151.76, -68.57)" xlink:href="#linear-gradient-9"/><linearGradient id="linear-gradient-15" x1="1227.92" y1="2234.42" x2="995.22" y2="1709.87" gradientTransform="translate(-263.1 3.91) rotate(3.06)" gradientUnits="userSpaceOnUse"><stop offset="0" stop-color="#311944"/><stop offset="1" stop-color="#893976"/></linearGradient><linearGradient id="linear-gradient-16" x1="1191.83" y1="2250.42" x2="959.14" y2="1725.87" xlink:href="#linear-gradient-15"/><linearGradient id="linear-gradient-17" x1="683.09" y1="2321.9" x2="450.38" y2="1797.33" gradientTransform="translate(-129.56 60.79) rotate(-3.98)" xlink:href="#linear-gradient-15"/><linearGradient id="linear-gradient-18" x1="525.94" y1="1146.23" x2="614.73" y2="2605.35" xlink:href="#linear-gradient-10"/><linearGradient id="linear-gradient-19" x1="1097.81" y1="838.07" x2="1106.97" y2="594.1" gradientTransform="translate(-85.03 -32.14) rotate(26.56)" xlink:href="#linear-gradient-9"/><linearGradient id="linear-gradient-20" x1="291.43" y1="928.5" x2="229.33" y2="770.78" gradientTransform="matrix(-1, -0.05, -0.05, 1, 871.54, 229.71)" gradientUnits="userSpaceOnUse"><stop offset="0" stop-color="#311944"/><stop offset="1" stop-color="#6b3976"/></linearGradient><linearGradient id="linear-gradient-21" x1="298.32" y1="812.41" x2="295.47" y2="1042.51" gradientTransform="matrix(1, -0.01, 0.01, 1, 286.72, 222.82)" xlink:href="#linear-gradient-9"/><linearGradient id="linear-gradient-22" x1="272.46" y1="936.05" x2="210.3" y2="778.17" xlink:href="#linear-gradient-20"/><linearGradient id="linear-gradient-23" x1="211.62" y1="840.92" x2="214.85" y2="869.74" gradientTransform="matrix(-1, -0.05, -0.05, 1, 871.54, 229.71)" gradientUnits="userSpaceOnUse"><stop offset="0" stop-color="#ffc444"/><stop offset="1" stop-color="#f36f56"/></linearGradient><linearGradient id="linear-gradient-24" x1="359.24" y1="1554.45" x2="375.76" y2="1604.86" gradientTransform="matrix(1, 0, 0, 1, 0, 0)" xlink:href="#linear-gradient-9"/><linearGradient id="linear-gradient-25" x1="187.74" y1="1166.81" x2="276.53" y2="2625.93" xlink:href="#linear-gradient-10"/><linearGradient id="linear-gradient-26" x1="521.38" y1="1146.51" x2="610.16" y2="2605.63" xlink:href="#linear-gradient-10"/><linearGradient id="linear-gradient-27" x1="3502.18" y1="1044.98" x2="3515.09" y2="1234.09" gradientTransform="translate(-2920.56)" xlink:href="#linear-gradient-20"/><linearGradient id="linear-gradient-28" x1="3467.25" y1="1421.74" x2="3467.25" y2="996.95" gradientTransform="translate(-2920.56)" xlink:href="#linear-gradient-20"/><linearGradient id="linear-gradient-29" x1="1678.25" y1="1702.11" x2="1980.84" y2="1702.11" gradientTransform="matrix(1, 0, 0, 1, 0, 0)" xlink:href="#linear-gradient"/><linearGradient id="linear-gradient-30" x1="2650.74" y1="2342.81" x2="2666.93" y2="2548.93" gradientTransform="translate(-626.26)" gradientUnits="userSpaceOnUse"><stop offset="0" stop-color="#26264f"/><stop offset="1" stop-color="#444b8c"/></linearGradient><linearGradient id="linear-gradient-31" x1="1723.02" y1="2160.31" x2="1719.62" y2="1913.77" gradientTransform="translate(734.23 33.49) rotate(9.85)" xlink:href="#linear-gradient-9"/><linearGradient id="linear-gradient-32" x1="2448.17" y1="2329.02" x2="2464.36" y2="2535.15" xlink:href="#linear-gradient-30"/><linearGradient id="linear-gradient-33" x1="1521.09" y1="2181.36" x2="1517.69" y2="1934.83" gradientTransform="translate(734.23 33.49) rotate(9.85)" xlink:href="#linear-gradient-9"/><linearGradient id="linear-gradient-34" x1="2427.56" y1="1905.11" x2="2335.08" y2="2042.71" gradientTransform="matrix(1, 0, 0, 1, 0, 0)" xlink:href="#linear-gradient-11"/><linearGradient id="linear-gradient-35" x1="1840.91" y1="2208.08" x2="2504.63" y2="2208.08" gradientTransform="matrix(1, 0, 0, 1, 0, 0)" xlink:href="#linear-gradient-11"/><linearGradient id="linear-gradient-36" x1="2195.82" y1="1709.99" x2="2491.25" y2="1992.08" gradientTransform="matrix(1, 0, 0, 1, 0, 0)" xlink:href="#linear-gradient"/><linearGradient id="linear-gradient-37" x1="1842.56" y1="1798.67" x2="1835.82" y2="1829.42" gradientTransform="matrix(1, 0, 0, 1, 0, 0)" xlink:href="#linear-gradient-9"/><linearGradient id="linear-gradient-38" x1="5509.72" y1="816.4" x2="5693.97" y2="1048.21" gradientTransform="translate(-2879.72 -824.25) rotate(14.93)" xlink:href="#linear-gradient-9"/><linearGradient id="linear-gradient-39" x1="5518.54" y1="804.74" x2="5724.25" y2="1063.54" gradientTransform="translate(-2879.72 -824.25) rotate(14.93)" xlink:href="#linear-gradient-9"/><linearGradient id="linear-gradient-40" x1="2114.98" y1="1794.6" x2="2410.34" y2="2076.63" gradientTransform="matrix(1, 0, 0, 1, 0, 0)" xlink:href="#linear-gradient"/><linearGradient id="linear-gradient-41" x1="2128.26" y1="1761.52" x2="2463.32" y2="2081.45" gradientTransform="matrix(1, 0, 0, 1, 0, 0)" xlink:href="#linear-gradient"/><linearGradient id="linear-gradient-42" x1="-2132.3" y1="2091.04" x2="-2090.52" y2="2128.2" gradientTransform="translate(3082.03 139.68) rotate(-8.05)" xlink:href="#linear-gradient-11"/><linearGradient id="linear-gradient-43" x1="-2411.39" y1="3170.52" x2="-2411.39" y2="3097.73" gradientTransform="translate(3873.69 -507.06) rotate(2.85)" xlink:href="#linear-gradient-9"/><linearGradient id="linear-gradient-44" x1="-2128.1" y1="2086.32" x2="-2086.32" y2="2123.48" gradientTransform="translate(3082.03 139.68) rotate(-8.05)" xlink:href="#linear-gradient-11"/><linearGradient id="linear-gradient-45" x1="-1991.35" y1="2533.97" x2="-1949.57" y2="2571.14" gradientTransform="translate(3123.88)" xlink:href="#linear-gradient-11"/><linearGradient id="linear-gradient-46" x1="-2106.92" y1="3550.17" x2="-2106.92" y2="3477.38" gradientTransform="translate(3925.8 -504.51) rotate(11.1)" xlink:href="#linear-gradient-9"/><linearGradient id="linear-gradient-47" x1="-1987.15" y1="2529.25" x2="-1945.37" y2="2566.41" gradientTransform="translate(3123.88)" xlink:href="#linear-gradient-11"/><linearGradient id="linear-gradient-48" x1="-4396.67" y1="1770.08" x2="-4478.83" y2="1607.97" gradientTransform="translate(5732.96)" xlink:href="#linear-gradient"/><linearGradient id="linear-gradient-49" x1="-4503.38" y1="1752.77" x2="-4528.91" y2="1869.36" gradientTransform="translate(5732.96)" xlink:href="#linear-gradient-9"/><linearGradient id="linear-gradient-50" x1="-4272.61" y1="1742.74" x2="-3977.26" y2="2024.77" gradientTransform="translate(5732.96)" xlink:href="#linear-gradient-10"/><linearGradient id="linear-gradient-51" x1="-692.87" y1="2524.17" x2="-508.63" y2="2755.97" gradientTransform="translate(2853.24 -824.25) rotate(14.93)" xlink:href="#linear-gradient-9"/><linearGradient id="linear-gradient-52" x1="-684.05" y1="2512.51" x2="-478.35" y2="2771.31" gradientTransform="translate(2853.24 -824.25) rotate(14.93)" xlink:href="#linear-gradient-9"/><linearGradient id="linear-gradient-53" x1="-4381.65" y1="1856.93" x2="-4086.3" y2="2138.96" gradientTransform="translate(5732.96)" xlink:href="#linear-gradient-10"/><linearGradient id="linear-gradient-54" x1="-4337.5" y1="1810.69" x2="-4042.15" y2="2092.72" gradientTransform="translate(5732.96)" xlink:href="#linear-gradient-10"/><linearGradient id="linear-gradient-55" x1="-4069.4" y1="2075.52" x2="-4311.51" y2="2248.46" gradientTransform="translate(5732.96)" xlink:href="#linear-gradient-11"/><linearGradient id="linear-gradient-56" x1="-4591.58" y1="2287.29" x2="-3992" y2="2287.29" gradientTransform="translate(5732.96)" xlink:href="#linear-gradient-11"/><linearGradient id="linear-gradient-57" x1="3962.1" y1="2651.47" x2="4411.01" y2="2651.47" gradientTransform="matrix(-1, 0, 0, 1, 5812.95, 0)" gradientUnits="userSpaceOnUse"><stop offset="0" stop-color="#aa80f9"/><stop offset="1" stop-color="#6165d7"/></linearGradient><linearGradient id="linear-gradient-58" x1="-4723.14" y1="2629.45" x2="-4345.94" y2="2629.45" gradientTransform="translate(6196.79)" xlink:href="#linear-gradient-57"/><linearGradient id="linear-gradient-59" x1="-4595.35" y1="2455.13" x2="-4545.44" y2="2455.13" gradientTransform="translate(6196.79)" xlink:href="#linear-gradient-57"/><linearGradient id="linear-gradient-60" x1="-4322.63" y1="2402.05" x2="-4414.14" y2="2282.81" gradientTransform="translate(6196.79)" xlink:href="#linear-gradient-15"/><linearGradient id="linear-gradient-61" x1="2194.22" y1="2507.32" x2="2595.33" y2="2507.32" gradientTransform="matrix(1, 0, 0, 1, 0, 0)" xlink:href="#linear-gradient-57"/><linearGradient id="linear-gradient-62" x1="2332.63" y1="2487.64" x2="2669.66" y2="2487.64" gradientTransform="translate(-74.33)" xlink:href="#linear-gradient-57"/><linearGradient id="linear-gradient-63" x1="2446.81" y1="2331.88" x2="2491.41" y2="2331.88" gradientTransform="translate(-74.33)" xlink:href="#linear-gradient-57"/><linearGradient id="linear-gradient-64" x1="2690.5" y1="2284.46" x2="2608.73" y2="2177.91" gradientTransform="translate(-74.33)" xlink:href="#linear-gradient-15"/></defs><g class="cls-2"><g id="Layer_2" data-name="Layer 2"><g id="Illustration"><path class="cls-3" d="M1451.08.64C730.56-21,106.44,511.65,12.15,1210.6c-103.1,764.2,464.33,1451.8,1162.53,1561.93,868.45,137,1710.8-655.48,1635.16-1515.18C2752.86,609.64,2183.51,22.68,1451.08.64Z"/><path class="cls-4" d="M2632.53,1577.29V207.59c0-28.08-23.14-52-51.51-53.13L227.86,59.86c-35.81-1.43-65.2,23.31-65.2,55V1628.58Z"/><path class="cls-5" d="M235.45,325.52V1508c0,29.52,27.28,52.89,60.53,51.94l2233.3-63.51c26.65-.76,48.41-22.91,48.41-49.24V392.55Z"/><path class="cls-3" d="M2577.69,392.55v-121c0-25.78-21.31-47.67-47.42-48.65L294.74,139.47c-32.57-1.21-59.29,21.44-59.29,50.35v135.7Z"/><path class="cls-6" d="M398.86,233.46c0,10.16-9.26,18.1-20.7,17.74s-20.75-8.91-20.75-19.1,9.3-18.13,20.75-17.74S398.86,223.3,398.86,233.46Z"/><path class="cls-6" d="M488.08,236.39c0,10.1-9.15,18-20.45,17.64s-20.52-8.86-20.52-19,9.19-18,20.52-17.64S488.08,226.29,488.08,236.39Z"/><path class="cls-6" d="M576.26,239.29c0,10-9,17.89-20.21,17.54S535.77,248,535.77,238s9.08-17.93,20.28-17.55S576.26,229.24,576.26,239.29Z"/><path class="cls-3" d="M2411.92,907.64l-532.4-1.91c-14.23-.05-25.79-11.13-25.79-24.75V505.73c0-13.62,11.56-24.37,25.79-24l532.4,13.18c13.47.33,24.38,11.32,24.38,24.54V883.78A24.07,24.07,0,0,1,2411.92,907.64Z"/><polygon class="cls-5" points="1851.08 763.7 1851.08 774.58 2438.77 780.52 2438.77 769.96 1851.08 763.7"/><path class="cls-7" d="M2067.91,830.86l-146.36-1.08a1.73,1.73,0,0,1-1.75-1.69V809.74a1.69,1.69,0,0,1,1.75-1.65l146.36,1.23a1.71,1.71,0,0,1,1.72,1.68v18.21A1.68,1.68,0,0,1,2067.91,830.86Z"/><path class="cls-4" d="M2245.15,872.74,1921.55,871a1.72,1.72,0,0,1-1.75-1.68V851a1.7,1.7,0,0,1,1.75-1.66l323.6,2.07a1.68,1.68,0,0,1,1.68,1.66v18.05A1.64,1.64,0,0,1,2245.15,872.74Z"/><path class="cls-8" d="M1933.06,711.86a7.73,7.73,0,0,1-6.51-11.89c40-62.68,84.71-96.5,132.81-100.54,30.61-2.57,53.64,7.85,75.92,17.92,19.71,8.91,40.09,18.12,66.72,18.9,49.31,1.44,100.57-27.22,152.25-85.19a7.73,7.73,0,1,1,11.54,10.28c-54.87,61.55-110.24,91.8-164.24,90.37-29.72-.88-51.54-10.74-72.64-20.27-21.42-9.68-41.65-18.82-68.26-16.6-43,3.61-83.78,35-121.07,93.45A7.71,7.71,0,0,1,1933.06,711.86Z"/><path class="cls-5" d="M2230.18,644.46c0,11.47-9.56,20.62-21.37,20.43s-21.41-9.66-21.41-21.16,9.59-20.64,21.41-20.43S2230.18,633,2230.18,644.46Z"/><path class="cls-9" d="M2209.17,668.81h-.42c-13.93-.22-25.27-11.47-25.27-25.08a24,24,0,0,1,7.23-17.19,25.21,25.21,0,0,1,18.17-7.16c13.91.25,25.22,11.5,25.22,25.08a23.92,23.92,0,0,1-7.21,17.17A25.05,25.05,0,0,1,2209.17,668.81Zm-.76-41.59a17.3,17.3,0,0,0-12.21,4.91,16.15,16.15,0,0,0-4.88,11.6c0,9.35,7.87,17.09,17.56,17.24a17.3,17.3,0,0,0,12.51-4.92,16.17,16.17,0,0,0,4.87-11.59c0-9.33-7.86-17.07-17.52-17.24Z"/><polygon class="cls-4" points="2110.95 553.7 1924.03 549.7 1924.03 519.06 2110.95 523.35 2110.95 553.7"/><polygon class="cls-7" points="2314.03 692.34 2239.83 691.26 2239.83 668.23 2314.03 669.39 2314.03 692.34"/><path class="cls-3" d="M1019.69,1406.79l-612.33,12.58c-16.41.34-29.73-11.24-29.73-25.86V990.64c0-14.62,13.32-26.46,29.73-26.45l612.33.38c15.47,0,28,11.5,28,25.66v390.33C1047.67,1394.73,1035.16,1406.47,1019.69,1406.79Z"/><polygon class="cls-5" points="1048.79 1252.24 374.32 1261.12 374.32 1272.8 1048.79 1263.55 1048.79 1252.24"/><polygon class="cls-4" points="994.16 1136.6 452.12 1140.72 452.12 1011.5 994.16 1010.64 994.16 1136.6"/><polygon class="cls-4" points="994.16 1205.4 452.12 1211.31 452.12 1165.7 994.16 1160.94 994.16 1205.4"/><path class="cls-4" d="M623.75,1327.4l-171.07,2.82a1.88,1.88,0,0,1-2-1.76v-19.7a2,2,0,0,1,2-1.83l171.07-2.63a1.85,1.85,0,0,1,2,1.75v19.54A1.91,1.91,0,0,1,623.75,1327.4Z"/><path class="cls-4" d="M783.39,1368.37l-330.71,6.12a1.87,1.87,0,0,1-2-1.75V1353a2,2,0,0,1,2-1.83l330.71-5.76a1.82,1.82,0,0,1,2,1.73v19.39A1.9,1.9,0,0,1,783.39,1368.37Z"/><path class="cls-3" d="M1742.56,905.24l-570.12-2c-15.26-.05-27.64-11.53-27.64-25.63V489.06c0-14.1,12.38-25.22,27.64-24.85l570.12,14.11c14.41.36,26.07,11.73,26.07,25.41V880.57C1768.63,894.25,1757,905.29,1742.56,905.24Z"/><polygon class="cls-5" points="1771.94 762.86 1143.8 756.16 1143.8 767.42 1771.94 773.77 1771.94 762.86"/><polygon class="cls-5" points="1521 470.1 1521 768.07 1532.77 768.19 1532.77 470.39 1521 470.1"/><path class="cls-7" d="M1442.3,826.24l-221.43-1.64a1.82,1.82,0,0,1-1.87-1.74v-19a1.79,1.79,0,0,1,1.87-1.71L1442.3,804a1.78,1.78,0,0,1,1.83,1.72v18.79A1.77,1.77,0,0,1,1442.3,826.24Z"/><path class="cls-4" d="M1501.59,868.79l-280.72-1.5a1.81,1.81,0,0,1-1.87-1.74v-19a1.79,1.79,0,0,1,1.87-1.72l280.72,1.8a1.78,1.78,0,0,1,1.82,1.72v18.73A1.76,1.76,0,0,1,1501.59,868.79Z"/><polygon class="cls-4" points="1735.9 577.76 1564.85 574.37 1564.85 510.83 1735.9 514.75 1735.9 577.76"/><polygon class="cls-4" points="1735.9 729.44 1564.85 727.34 1564.85 601.43 1735.9 604.59 1735.9 729.44"/><path class="cls-5" d="M1330.29,573.05c26.56.53,48.12,21,48.12,45.73a41.48,41.48,0,0,1-4.78,19.26l56.16,25.41a95.28,95.28,0,0,0,10.52-43.59c0-56.46-49.21-103.49-110-104.86h-.48v58.07Z"/><path class="cls-10" d="M1373.63,638c-7.76,14.9-24.23,25.08-43.34,24.79-26.64-.41-48.35-20.93-48.35-45.73s21.46-44.31,47.87-44V515c-61-1.13-110.74,44.08-110.74,101,0,57.07,50,104.12,111.22,104.88,44,.55,81.9-23,99.5-57.43Z"/><path class="cls-3" d="M1047.67,877.1c0,14.17-12.51,25.61-28,25.55l-612.33-2.19c-16.41-.06-29.73-12-29.73-26.58V471c0-14.62,13.32-26.15,29.73-25.74l612.33,15.15c15.47.39,28,12.18,28,26.35Z"/><polygon class="cls-5" points="1048.79 755.15 374.32 747.97 374.32 759.64 1048.79 766.46 1048.79 755.15"/><polygon class="cls-5" points="699.53 449.66 699.53 759.63 712.26 759.76 712.26 449.98 699.53 449.66"/><polygon class="cls-4" points="642.31 636.04 452.12 632.99 452.12 485.31 642.31 489.67 642.31 636.04"/><polygon class="cls-4" points="642.31 716 452.12 713.66 452.12 661.53 642.31 664.33 642.31 716"/><path class="cls-7" d="M546.26,819.62l-93.58-.69a1.93,1.93,0,0,1-2-1.81v-19.7a1.89,1.89,0,0,1,2-1.78l93.58.8a1.9,1.9,0,0,1,2,1.8v19.61A1.88,1.88,0,0,1,546.26,819.62Z"/><path class="cls-4" d="M825.14,865.19l-372.46-2a1.92,1.92,0,0,1-2-1.8V841.7a1.89,1.89,0,0,1,2-1.78l372.46,2.39a1.86,1.86,0,0,1,1.94,1.77v19.35A1.85,1.85,0,0,1,825.14,865.19Z"/><polygon class="cls-5" points="819.25 714.51 765.89 713.85 765.89 492.5 819.25 493.73 819.25 714.51"/><polygon class="cls-5" points="908.07 715.62 855.16 714.96 855.16 494.55 908.07 495.77 908.07 715.62"/><polygon class="cls-5" points="996.15 716.72 943.67 716.06 943.67 496.58 996.15 497.79 996.15 716.72"/><g class="cls-11"><polygon class="cls-12" points="819.25 714.51 765.89 713.85 765.89 598.9 819.25 599.85 819.25 714.51"/><polygon class="cls-13" points="908.07 715.62 855.16 714.96 855.16 545.7 908.07 546.78 908.07 715.62"/><polygon class="cls-14" points="996.15 716.72 943.67 716.06 943.67 566.91 996.15 567.94 996.15 716.72"/></g><path class="cls-3" d="M2411.92,1378.17l-532.4,10.94c-14.23.3-25.79-10.51-25.79-24.13V989.74c0-13.62,11.56-24.66,25.79-24.65l532.4.33a24.18,24.18,0,0,1,24.38,24v364.35C2436.3,1367,2425.39,1377.89,2411.92,1378.17Z"/><polygon class="cls-5" points="1851.08 1241.67 1851.08 1252.54 2438.77 1244.48 2438.77 1233.92 1851.08 1241.67"/><path class="cls-7" d="M2021.23,1304.43l-99.68,1.64a1.68,1.68,0,0,1-1.75-1.65v-18.35a1.75,1.75,0,0,1,1.75-1.7l99.68-1.53a1.67,1.67,0,0,1,1.73,1.64v18.26A1.74,1.74,0,0,1,2021.23,1304.43Z"/><path class="cls-4" d="M2125.73,1343.53l-204.18,3.78a1.67,1.67,0,0,1-1.75-1.64v-18.35a1.75,1.75,0,0,1,1.75-1.7l204.18-3.56a1.65,1.65,0,0,1,1.71,1.63v18.16A1.72,1.72,0,0,1,2125.73,1343.53Z"/><polygon class="cls-5" points="1939.96 1202.02 1909.19 1202.37 1909.19 1013.82 1939.96 1013.76 1939.96 1202.02"/><polygon class="cls-5" points="1985.58 1201.51 1954.95 1201.85 1954.95 1013.73 1985.58 1013.68 1985.58 1201.51"/><polygon class="cls-5" points="2031 1201 2000.51 1201.34 2000.51 1013.65 2031 1013.59 2031 1201"/><polygon class="cls-5" points="2076.21 1200.49 2045.86 1200.83 2045.86 1013.57 2076.21 1013.51 2076.21 1200.49"/><polygon class="cls-5" points="2121.22 1199.98 2091.01 1200.32 2091.01 1013.48 2121.22 1013.43 2121.22 1199.98"/><polygon class="cls-5" points="2166.02 1199.48 2135.94 1199.82 2135.94 1013.4 2166.02 1013.35 2166.02 1199.48"/><polygon class="cls-5" points="2210.62 1198.98 2180.68 1199.31 2180.68 1013.32 2210.62 1013.27 2210.62 1198.98"/><polygon class="cls-5" points="2255.02 1198.48 2225.21 1198.81 2225.21 1013.24 2255.02 1013.19 2255.02 1198.48"/><polygon class="cls-5" points="2299.22 1197.98 2269.54 1198.31 2269.54 1013.16 2299.22 1013.11 2299.22 1197.98"/><polygon class="cls-5" points="2343.22 1197.48 2313.68 1197.82 2313.68 1013.08 2343.22 1013.02 2343.22 1197.48"/><polygon class="cls-5" points="2387.02 1196.99 2357.61 1197.32 2357.61 1013 2387.02 1012.95 2387.02 1196.99"/><g class="cls-15"><polygon class="cls-16" points="1939.96 1202.02 1909.19 1202.37 1909.19 1104.44 1939.96 1104.25 1939.96 1202.02"/><polygon class="cls-16" points="1985.58 1201.51 1954.95 1201.85 1954.95 1057.38 1985.58 1057.26 1985.58 1201.51"/><polygon class="cls-16" points="2031 1201 2000.51 1201.34 2000.51 1073.79 2031 1073.64 2031 1201"/><polygon class="cls-16" points="2076.21 1200.49 2045.86 1200.83 2045.86 1072.16 2076.21 1072.01 2076.21 1200.49"/><polygon class="cls-16" points="2121.22 1199.98 2091.01 1200.32 2091.01 1056.84 2121.22 1056.72 2121.22 1199.98"/><polygon class="cls-16" points="2166.02 1199.48 2135.94 1199.82 2135.94 1073.14 2166.02 1072.99 2166.02 1199.48"/><polygon class="cls-16" points="2210.62 1198.98 2180.68 1199.31 2180.68 1062.39 2210.62 1062.26 2210.62 1198.98"/><polygon class="cls-16" points="2255.02 1198.48 2225.21 1198.81 2225.21 1075.86 2255.02 1075.71 2255.02 1198.48"/><polygon class="cls-16" points="2299.22 1197.98 2269.54 1198.31 2269.54 1072.49 2299.22 1072.35 2299.22 1197.98"/><polygon class="cls-16" points="2343.22 1197.48 2313.68 1197.82 2313.68 1055.95 2343.22 1055.83 2343.22 1197.48"/><polygon class="cls-16" points="2387.02 1196.93 2357.61 1197.32 2357.61 1038.43 2387.02 1038.28 2387.02 1196.93"/></g><path class="cls-3" d="M1742.56,1391.93l-570.12,11.72c-15.26.31-27.64-10.87-27.64-25V990.17c0-14.1,12.38-25.52,27.64-25.51l570.12.35c14.41,0,26.07,11.1,26.07,24.78v376.84C1768.63,1380.31,1757,1391.63,1742.56,1391.93Z"/><polygon class="cls-5" points="1771.94 1242.71 1143.8 1250.98 1143.8 1262.24 1771.94 1253.63 1771.94 1242.71"/><path class="cls-7" d="M1409.26,1314.49l-188.39,3.1a1.78,1.78,0,0,1-1.87-1.7v-19a1.85,1.85,0,0,1,1.87-1.76l188.39-2.89a1.75,1.75,0,0,1,1.83,1.69v18.81A1.82,1.82,0,0,1,1409.26,1314.49Z"/><path class="cls-4" d="M1561.07,1354l-340.2,6.3a1.77,1.77,0,0,1-1.87-1.7v-19a1.83,1.83,0,0,1,1.87-1.76l340.2-5.93a1.72,1.72,0,0,1,1.8,1.67v18.68A1.79,1.79,0,0,1,1561.07,1354Z"/><path class="cls-17" d="M1204.07,1145.58a7.74,7.74,0,0,1-6.79-11.42c21.42-39.52,45.59-60.92,71.83-63.6,16.36-1.68,28.3,4.18,39.84,9.85s22.65,11.1,39,9.39c12.34-1.31,18.44-5.73,26.17-11.34,8.34-6,17.78-12.88,35.8-17.3,19.69-4.84,31.68-2.36,45.57.51,9.9,2,21.12,4.36,37.73,4.21,23.43-.2,36.13-5,52.22-11.14,12-4.56,25.58-9.72,45.9-13.85,35.34-7.18,73.23-7.33,112.6-.42a7.73,7.73,0,0,1-2.67,15.23c-37.46-6.57-73.41-6.45-106.85.34-19.09,3.88-32.06,8.81-43.49,13.15-16.84,6.4-31.38,11.92-57.58,12.15-18.23.18-30.33-2.33-41-4.53-13-2.69-22.46-4.63-38.75-.64-15.08,3.7-22.88,9.35-30.41,14.81-8.45,6.12-17.18,12.45-33.63,14.19-20.77,2.18-34.91-4.75-47.39-10.88-10.47-5.14-19.54-9.57-31.45-8.35-20.85,2.13-41,20.83-59.81,55.59A7.74,7.74,0,0,1,1204.07,1145.58Z"/><polygon class="cls-4" points="1705.03 1197.07 1510.33 1199.18 1510.33 1121.9 1705.03 1120.53 1705.03 1197.07"/><path class="cls-4" d="M1321.94,1028.88l-101.07.25a1.8,1.8,0,0,1-1.87-1.73v-19a1.8,1.8,0,0,1,1.87-1.73l101.07-.15a1.78,1.78,0,0,1,1.85,1.72v18.9A1.8,1.8,0,0,1,1321.94,1028.88Z"/><path class="cls-18" d="M162.66,1628.58v302.3c0,31.69,29.39,56.37,65.2,54.86L2581,1886.26c28.37-1.2,51.51-25.16,51.51-53.25v-264.5Z"/><polygon class="cls-19" points="1163.88 1320.95 1477.35 692.93 1480.5 693.03 1175.35 1329.19 1163.88 1320.95"/><path class="cls-20" d="M1180.86,1282.7l9.91-29.85-.35-27.87a27.38,27.38,0,0,1,3.51-13.76l3.87-6.89a21.12,21.12,0,0,1,9.79-8.94l19-8.51s-.53,7.69-5.51,11-10.55,21.14-10.55,21.14l5.14,15.62,14.53-25.4,11.17-36.72,6.57,14.67a22.88,22.88,0,0,1,1,15.94l-9,29.93a32.83,32.83,0,0,1-13.43,18l-4.27,2.8a38.7,38.7,0,0,0-16.87,25.48l-4.53,25.06Z"/><path class="cls-21" d="M1181.19,1259.47c-103.55,41.24-170,25.1-201,13.47-38.89-14.6-76.17-41.39-76.17-41.39-52.65-37.84-73.25-75.49-125.15-83.65a121,121,0,0,0-28.23-1.12c-74.85,6.63-158.18,105.69-147.47,171.57,18.58,114.22,336.57,231.86,511.19,104.71,56.21-40.93,84.36-97.61,98.71-136.11Z"/><path class="cls-22" d="M505.2,2445.85c-4.26,3.92-4.53,13.06-4.7,19-.08,2.68-.12,4,.23,4.93,2.59,6.72,15.9,6.63,36.85,7.48,33.1,1.36,43,3.35,45.33-1.7,2.13-4.73-4.17-11.89-4.88-12.68-3.8-4.24-8.24-5.59-16.8-7.84-15.83-4.16-26.48-6.32-29.71-7C511.37,2444,508,2443.28,505.2,2445.85Z"/><path class="cls-23" d="M528.42,2412.84l1.29,37.68c-1,1.76-12.47,6.6-21.07,1.47l-6.5-37.32Z"/><path class="cls-24" d="M784,2440.64c-5.69,5.65-7.5,16.51-3.11,22.15s11.43,1.93,31,3.56c21,1.75,26.17,7,40.64,3.83,5.84-1.29,16.22-4.61,16.25-8.73,0-2.9-5.08-4.67-22.07-11.39-24.12-9.54-24-10-29.16-11.13C804.59,2436.07,791.55,2433.18,784,2440.64Z"/><path class="cls-25" d="M799.31,2407.13l8.65,35.58c-.89,1.83-11.93,7.52-20.9,3.07L773.24,2411Z"/><path class="cls-26" d="M746.74,1635.35a3284.84,3284.84,0,0,0,62.14,782.51L768,2426.55c-32.37-33.58-72.68-85.89-89.64-157.66-10.53-44.55-5-66.86-10.32-121.25-8.41-86.59-32.34-133-55.86-203.72-21.13-63.55-45.16-156.44-54.14-279.38Z"/><path class="cls-27" d="M727.92,2185.62c-15-59.41-43.89-75.11-44.92-131.18-.73-39.66,13.52-42.9,12.58-80.86-1.44-57.58-35.17-87.78-52.11-124-17.9-38.26-24.76-99.7,23.47-201.9l-108.89,16.85c9,122.94,33,215.83,54.14,279.38,23.52,70.72,47.45,117.13,55.86,203.72,5.28,54.39-.21,76.7,10.32,121.25,17,71.77,57.27,124.07,89.64,157.66l10.4-2.21c-35-41.77-47.35-79.07-50.49-109.34C722.81,2265.75,743,2245.51,727.92,2185.62Z"/><path class="cls-28" d="M610.59,1628q-24.32,223.8-44.52,456.14-15.09,174.3-27,344.31l-41.43,2.88a479.76,479.76,0,0,1-37-113.05c-11.51-59.52-6.26-94.21-9.43-155.43-3.56-68.65-13.24-84.09-27.19-171.2-28.3-176.79-42.46-265.19,2.44-317.31C441.08,1657.41,486.17,1615.42,610.59,1628Z"/><path class="cls-29" d="M253,1164c74.59-25.29,188.4-53.31,327.58-47.58A896.36,896.36,0,0,1,785.45,1149q11.13,62.31,22.27,124.6a1483.55,1483.55,0,0,1-2.42,164.71c-4.68,66.65-9.26,67.65-20,161.73-17.48,153.39-10.17,193.46-41,211.89-20.05,12-27.3-2.49-129.62-12.63-68.6-6.8-103.62-10-138.36,1.8-47.31,16-63.14,42.89-82.66,34.14-18.72-8.39-21.1-40.7-23.36-97-3.49-86.9-3.27-146-3.59-167.11-1.48-97-26.05-171.08-57.51-266A1281.61,1281.61,0,0,0,253,1164Z"/><path class="cls-30" d="M571.36,1020.33a285.44,285.44,0,0,1-8.13,56.68c-3.76,15-6.1,18.82-9,21.86-4.33,4.57-10.73,8.25-46.13,15.05-19.26,3.7-21.7,3.44-22.22,5.3-2.54,9.1,47.63,43.23,101.59,38.53,33-2.87,63.84-20,62.54-29.9s-34.34-6.43-43.15-24.83c-6.12-12.8,2.43-30,12.21-44.19C611.25,1042,579.2,1037.11,571.36,1020.33Z"/><path class="cls-31" d="M631.68,1033.21c8.28-9.86,9.72-27.77,1.41-39.59-7.15-10.17-19.15-12.2-26.33-13.42-20.81-3.54-47.7,3.79-57.92,22.57-6.05,11.13,4.46,35.49,6.08,39.86,1.83,4.93,5.53,6.79,8.84,10.63,4.58,5.32,11.75,13.76,23.44,27.88a87.32,87.32,0,0,1,5.52-14A75.93,75.93,0,0,1,603.56,1051C615.18,1038.29,623.83,1042.56,631.68,1033.21Z"/><path class="cls-32" d="M570.11,1068.88s12.56,23.32,40.06,23c24.63-.28,31.16-55.13,16.11-67.64-5-4.18-15.41-6.35-24-4.42-5.11,1.14-6.92,3.14-15.3,4.84-7.73,1.57-9.83.61-12.24,2.42-3,2.27-5.43,8.1-1.48,24.44-4.43-5-10-7.11-14-5.44a8.46,8.46,0,0,0-3.44,3C552,1055.19,557.28,1063.53,570.11,1068.88Z"/><path class="cls-33" d="M573.76,1023.73c1.13,1-2.72,5.17-3.32,11.4-1.17,12.11,10.33,27.32,22.79,29.23,7.36,1.12,9.64-3.23,21.95-3.87a56,56,0,0,1,17.8,2c3.14,13.51-1.19,26.58-10.41,32.26-9.93,6.12-21.94,1.45-27-.51-3.36-1.31-14.13-5.47-19.32-15.83-5.41-10.79.79-16.79-5.68-24.24-3.27-3.76-7.72-5.55-11.77-12.71a33.6,33.6,0,0,1-2.24-4.79C563.28,1030.28,572.11,1022.36,573.76,1023.73Z"/><path class="cls-34" d="M623.81,1066.93s-5.45,2.49-14.58,1.48c-.44-.05-.94.06-1,.28-.26.86,5.41,5.07,10.91,3.84,3.9-.88,7.08-4.36,6.61-5.31C625.55,1066.82,624.67,1066.82,623.81,1066.93Z"/><path class="cls-35" d="M321.81,1571.14l24.69-1.38s27.06-22.64,39.37-21.23,30.73,10,33,11.75-6.74,11.83-15.73,10.86-29,3.87-32.62,11.78-19.14,12.7-21.79,8.06l-33.19,6.58Z"/><path class="cls-36" d="M329.28,1562.5c1.73,20.26-2.68,34-10,43.45-32.63,41.81-143.54,24.71-209.46-31.3C61,1533.19,35.14,1468.82,36.1,1411.13c1.86-112.56,106.17-222.85,261.34-261l68.91,206c-95.67,1.46-153.79,73.57-145.17,125C227.6,1519.56,272.33,1554.06,329.28,1562.5Z"/><path class="cls-37" d="M704.56,1761.54c-50.32-21.48-50-65.92-97-84.46-67.07-26.47-141.17,35-152.74,18-12-17.74,76.46-72.14,64.69-125.79-9.36-42.63-71.14-35.08-104.23-93.44-31.39-55.36-.95-106.55-28.75-125.79-10-6.9-27.55-9.62-60.89,5,23.25,72.6,39.92,136.62,41.13,216,.32,21.14.1,80.21,3.59,167.11,2.26,56.34,4.64,88.65,23.36,97,19.52,8.75,35.35-18.13,82.66-34.14,34.74-11.76,69.76-8.6,138.36-1.8,102.32,10.14,109.57,24.61,129.62,12.63,13.06-7.81,19.27-19.54,23.42-42.09C747.24,1772,725.48,1770.46,704.56,1761.54Z"/><path class="cls-38" d="M567.43,1158s6.19,33.07,15.87,33.72a164.44,164.44,0,0,1,16.78,1.93l10.83-40.44a115,115,0,0,1-12.79,3.16A117,117,0,0,1,567.43,1158Z"/><path class="cls-39" d="M578.71,1188.93s-21.55,241.89-97.06,280.61c1.93,7.75,0,70.68,0,70.68s70.39-21.2,74.4-19.8,85.26-133.26,44-326.8Z"/><path class="cls-40" d="M1719.11,2446a3.62,3.62,0,0,1-3.59-3.28l-65.37-706.44a3.61,3.61,0,0,1,7.19-.66l58.17,628.65V1720.32a3.61,3.61,0,1,1,7.21,0v722.07a3.6,3.6,0,0,1-3.44,3.6Z"/><polygon class="cls-41" points="2448.03 1797.59 1730.91 1719.02 353.19 1781.64 1074.75 1868.05 2448.03 1797.59"/><polygon class="cls-40" points="1074.75 1868.05 2448.03 1797.59 2448.03 1831.62 1074.75 1902.08 353.19 1815.67 353.19 1781.64 1074.75 1868.05"/><path class="cls-40" d="M1079.62,2692.38h-.14a3.6,3.6,0,0,1-3.46-3.6v-795a3.61,3.61,0,1,1,7.21,0v702.59l55-702.87a3.61,3.61,0,1,1,7.19.56l-62.16,795A3.61,3.61,0,0,1,1079.62,2692.38Z"/><path class="cls-40" d="M361.07,2551.16h-.14a3.61,3.61,0,0,1-3.47-3.61V1813.8a3.61,3.61,0,0,1,7.22,0v641.75l50.41-642a3.61,3.61,0,0,1,7.19.57l-57.61,733.76A3.62,3.62,0,0,1,361.07,2551.16Z"/><path class="cls-40" d="M2441.23,2551.16a3.61,3.61,0,0,1-3.59-3.31l-61.18-733.75a3.61,3.61,0,1,1,7.19-.6l54,647.39V1831.62a3.61,3.61,0,0,1,7.21,0v715.93a3.61,3.61,0,0,1-3.46,3.61Z"/><path class="cls-42" d="M2157.55,1811.19l-492.73-3.67v10.85a6,6,0,0,0,5.06,5.9l139.33,21.36a22.6,22.6,0,0,0,5,.2l338-24.36a5.77,5.77,0,0,0,5.36-5.75Z"/><path class="cls-42" d="M1978.74,1793.26l-308.83,19.84c-5.52.36-10-3.41-10-8.43V1603.91c0-5,4.5-9.07,10-9.07h308.83a8.21,8.21,0,0,1,8.23,8.2v181.49A8.88,8.88,0,0,1,1978.74,1793.26Z"/><path class="cls-4" d="M1983.66,1793.26l-308.82,19.84c-5.53.36-10-3.41-10-8.43V1603.91c0-5,4.49-9.07,10-9.07h308.82a8.21,8.21,0,0,1,8.24,8.2v181.49A8.88,8.88,0,0,1,1983.66,1793.26Z"/><path class="cls-43" d="M1974,1780.46,1686.4,1797.7c-4.49.27-8.15-2.83-8.15-6.92V1615c0-4.09,3.66-7.42,8.15-7.43l287.64-1.09a6.75,6.75,0,0,1,6.8,6.72v160.1A7.28,7.28,0,0,1,1974,1780.46Z"/><path class="cls-5" d="M1840.16,1600.33a3.56,3.56,0,1,1-3.56-3.38A3.49,3.49,0,0,1,1840.16,1600.33Z"/><path class="cls-44" d="M1910.51,1738.29c-23.93-11.65-42.75,3.12-60.91-11.46-11-8.83-5.6-15.42-19.15-28.62-15-14.63-24.77-9.71-39.85-22.87-19.06-16.64-9.53-29.59-25.95-41.54-19.92-14.5-41.41-1.08-60.37-15-8.18-6-12.67-14.71-15-24h-18.56a5.63,5.63,0,0,0-5.89,5.33v208.25c0,2.94,2.64,5.16,5.89,4.95L1987.07,1793a5.2,5.2,0,0,0,3.81-2.11c-23.16-.76-37.39-7.79-46.48-15.06C1926.61,1761.66,1929.69,1747.64,1910.51,1738.29Z"/><path class="cls-5" d="M1996,1792.7l-331.15,20.89,144.39,22.14a22,22,0,0,0,5,.2l343.34-24.74-156.31-18.34A29,29,0,0,0,1996,1792.7Z"/><polygon class="cls-45" points="1713.14 1813.77 1988.83 1796.12 2074.16 1806.06 1800.84 1824.92 1713.14 1813.77"/><path class="cls-46" d="M2058.69,2445.4s-72.43,5-73.49,9.76,49.16,23,66.71,23.7,32-4.51,30.4-11.94-7.73-26.13-7.73-26.13Z"/><path class="cls-47" d="M2055.27,2413.22,2054,2447.4s11,6.22,19.76,2.65l9.73-36.05Z"/><path class="cls-48" d="M1856.13,2431.62s-72.44,5-73.5,9.76,49.16,23,66.71,23.69,32-4.5,30.4-11.94S1872,2427,1872,2427Z"/><path class="cls-49" d="M1852.7,2399.43l-1.28,34.19s11,6.22,19.76,2.64l9.73-36Z"/><path class="cls-50" d="M2047.58,2418.05l40.6,4.51c18.28-20.26,45.57-55.59,60.15-105.26,28.12-95.77-12.6-164.79,13.54-182,37-24.31,117.17,115.66,245.87,112.06,52.81-1.47,121.73-27.33,148.22-83.66,4-8.5,23.64-53,4.51-94.74-19.75-43.08-117.73-61.82-312.89-97.57-83.77-15.34-126.07-23-143.07-14.88C1984.06,2014.05,2034.29,2339.19,2047.58,2418.05Z"/><path class="cls-51" d="M1840.93,2418.63l42,7.31c17-25.05,42.74-64.29,71.52-114.08,60-103.8,58.89-124.88,86.61-138.25,58.68-28.27,103,48.12,248.13,69.18,47.47,6.89,152.85,22.19,195.49-34.59,17.29-23,27.22-61.81,13.54-94.74-24.53-59-105.31-51.93-371.44-103.76-103.78-20.21-117.93-23.81-143.07-14.87C1843.31,2044.75,1840.58,2350.44,1840.93,2418.63Z"/><path class="cls-52" d="M2131.67,1605.81c13.82-33.79,43.47-53.22,58.85-63.29a128.05,128.05,0,0,1,22-11.78c55.69-22.73,111.29-21.17,121.21-20.43,24,1.81,83.45,6.25,127.46,44.39,21.31,18.46,38.33,44.23,63.16,189.48,34.63,202.57,6.53,181.8,33.84,263.91,14.45,43.45,37,93.3,13.15,125.13-7.69,10.29-18.68,13.24-41.08,23.32-83.68,37.65-158.71,31.16-204.31,26.65-50.17-5-75.52-7.81-88.82-25.54-21.25-28.32.62-64.3,4.44-126.58,2.74-44.71-7.43-80.15-27.76-151C2166.57,1715.32,2105.2,1670.53,2131.67,1605.81Z"/><path class="cls-53" d="M1895.88,1807.52l-53.47-10.28a32.3,32.3,0,0,0-11.64-.11l-46.25,7.95s30.07,12.1,55.64,8.3,53.49,10.59,53.49,10.59Z"/><path class="cls-54" d="M2250,1472.87c-9-13.59,4.46-39.73,9.79-50.07.18-.36.42-.82.92-1.75,8.18-15.09,10.27-17.15,14.18-19.76l5.42-3.35.64-.24c3.49-1.24,15.35-1.6,17.75-1.09,7.68,1.64,15.86,32.92,13.53,77.15q.46,2.52.92,5.1,1.82,10.47,2.91,20.52c.71,6.4,9.79,6.26,16.22,5.85,26.09-1.67,38.86.55,40,4.44,2.08,7.28-28.87,31.09-67.09,36.44-51.29.38-93-5.08-88.52-13.16,2-3.58,41.73-14,52.9-24.26,10.24-9.42,9.4-19.15,10.25-26.11C2274.45,1482.86,2256.81,1483.23,2250,1472.87Z"/><path class="cls-55" d="M2264.36,1385.38c-4.22,9.3,6,28,9.79,30.68a23.07,23.07,0,0,1,5,5.42,7.2,7.2,0,0,1,.78,1.62c3,8.64-10.73,18.8-8.08,22.66,1.92,2.81,11.25-.94,12.36,1.48s-6.71,7-5.52,9.73c.9,2.06,5.67.17,8.68,3.33,2.33,2.44,2.6,5.9,2.65,7.63.37,12.27-27.46,56.6-33.26,76.6-6.15,21.22,4.85,41.41,44.81,97.2,56.84,79.36,85.26,119,101.06,130.39,77.23,55.44,168,48.64,205.27,42.86,44.74-7,137.16-21.31,166.92-92.49,34.21-81.81-33.15-193.77-102.26-212.78-31.6-8.7-48.43,4.51-89.47-9.78-45.33-15.77-39.84-43.66-81.81-60.14-56-22-92.09,17.31-130.23-11.29-20.75-15.56-17.33-32.65-42.86-45.11C2303,1371.09,2269.88,1373.19,2264.36,1385.38Z"/><path class="cls-56" d="M2276.74,1442.54c3.36-4.61,9.26-.28,9.29,5.7s-5.75,12.17-11.36,11S2272.22,1448.75,2276.74,1442.54Z"/><path class="cls-57" d="M2369.29,2124.34c-14.76-29.39,21.41-68.45-2.22-113.26-20.07-38-56.53-29.52-73.29-64.4-20.24-42.12,23.79-73.6,22.21-137.68-1.88-76.61-67.8-153.29-106.59-146.57-25.1,4.35-28.33,41.8-46,82.79,15.63,34.27,33.89,77.19,50.43,134.84,20.33,70.87,30.5,106.3,27.76,151-3.82,62.28-25.69,98.27-4.44,126.58,13.3,17.73,38.65,20.57,88.82,25.54,45.6,4.51,120.63,11,204.31-26.65,10.59-4.77,18.52-8.34,25-11.86C2424.54,2164.32,2381,2147.65,2369.29,2124.34Z"/><path class="cls-58" d="M1882.26,1823.12q2.28-10.23,4.55-20.46c102.73,18.41,147.66-2.26,169.36-26.42,19.92-22.17,11.42-33.62,43.3-118.25,30.37-80.6,64.81-101.32,82.17-108.81,9.69-4.19,16.38-7,24.43-5,37,9,49.24,105.49,38.86,177.66-5.85,40.65-17.32,120.38-82.72,158.22-1.21.7-3.11,1.8-5.62,3.14-8.24,4.41-41,20.15-105.42,8.52C1975.17,1878,1901,1834.46,1882.26,1823.12Z"/><path class="cls-59" d="M1275.12,2527.65c1.19-6.54,22.34-12.47,32.81-3.7,5.2,4.36,8.78,13.19,5.77,17.17-1.09,1.45,3.39,4-.9,4.06C1298.55,2545.34,1273.93,2534.16,1275.12,2527.65Z"/><path class="cls-60" d="M1298.25,2527.69l21.94,1.09c-7.6-13.82,1.54-51.41,1.54-51.41l-23.7.7s.59,10.91,2,27.12C1300.56,2510.74,1299.64,2519.1,1298.25,2527.69Z"/><path class="cls-61" d="M1295.36,2527.36s26.19-6,29-.84,5,19.1-11.58,18.66S1293.88,2531.76,1295.36,2527.36Z"/><path class="cls-62" d="M1141.52,2554.33c2.09-6.32,23.87-9.23,33,.93,4.54,5,6.85,14.28,3.31,17.81-1.29,1.28,2.8,4.44-1.46,3.88C1162.25,2575.13,1139.44,2560.61,1141.52,2554.33Z"/><path class="cls-63" d="M1167.25,2560.42l21.56,4.23c-5.54-14.77,8.9-50.66,8.9-50.66l-23.55-2.71s-1,10.88-1.89,27.13C1172,2544,1169.86,2552.12,1167.25,2560.42Z"/><path class="cls-64" d="M1161.6,2556.87s26.78-2.31,28.86,3.23,2.31,19.63-14.08,16.85S1159.52,2561,1161.6,2556.87Z"/><path class="cls-55" d="M1276.15,1900.73,1183.63,1684a19.06,19.06,0,0,1,13-26l169.47-41.16a19.07,19.07,0,0,1,22.14,11.31l85.09,208.3a19.05,19.05,0,0,1-12.06,25.43l-162,49.58A19.05,19.05,0,0,1,1276.15,1900.73Z"/><path class="cls-65" d="M1280.34,1890.31l-86.42-202.44a17.8,17.8,0,0,1,12.16-24.28l158.31-38.45a17.81,17.81,0,0,1,20.67,10.57l79.49,194.57a17.79,17.79,0,0,1-11.27,23.74l-151.37,46.32A17.8,17.8,0,0,1,1280.34,1890.31Z"/><path class="cls-66" d="M1227,1830.8l-2.78-25.54-14.71-28a26.59,26.59,0,0,1-3.06-12.38V1737l17.77,41.09s11.66-10.55,16.1-12.77,3.89,6.66.56,10,1.66,30.53-1.67,33.31l1.11,16.66Z"/><path class="cls-67" d="M1368,1668.13c13.82-33.78,43.47-53.21,58.85-63.29,36.38-23.84,59.68-19.49,143.24-32.2,111.35-16.94,124.68-33,162.11-20,49.16,17.1,74.84,61.72,86.6,82.17,59.33,103.1-10,155.5,7.78,360.87,7.27,83.87,25.92,156.75-18.88,199.86-9.43,9.07-20,13.82-41.08,23.32-83.69,37.65-158.71,31.16-204.31,26.64-50.17-5-75.52-7.81-88.83-25.53-21.24-28.32.63-64.3,4.45-126.58,2.74-44.72-7.43-80.15-27.76-151C1402.9,1777.65,1341.53,1732.86,1368,1668.13Z"/><path class="cls-68" d="M1554.39,1511.87c-5.07-18.06,3.8-34.79,5.75-38.39,8.18-15.09,10.27-17.15,14.18-19.77l5.42-3.34.65-.25c3.48-1.23,15.34-1.59,17.75-1.08,7.67,1.64,15.85,32.92,13.52,77.14.32,1.69.62,3.39.92,5.1q1.82,10.48,2.91,20.53c.71,6.4,9.79,6.25,16.22,5.84,26.09-1.66,38.86.56,40,4.44,2.08,7.29-28.87,31.09-67.08,36.45-51.29.38-93-5.08-88.53-13.16,2-3.58,41.73-14,52.91-24.26,10.23-9.42,9.4-19.15,10.24-26.12C1576.11,1533.39,1558.13,1525.18,1554.39,1511.87Z"/><path class="cls-55" d="M1563.83,1437.81c0,13.7,6.5,28.33,9.79,30.68a22.84,22.84,0,0,1,5,5.42,7,7,0,0,1,.78,1.62c3,8.63-10.73,18.79-8.08,22.66,1.93,2.81,11.26-1,12.37,1.48,1,2.28-6.71,7-5.53,9.72.9,2.07,5.67.18,8.68,3.34,1.5,1.57,1.06,2.82,2.65,7.62a43.72,43.72,0,0,0,3.13,7.35c4.74,8,18.15,11,20.73,7.76.72-.89.1-1.65.83-4.66a24,24,0,0,1,2.62-6c2.78-4.61,9.47-7.91,16.23-12.78,12.51-9,15.92-16.69,16.94-19.28.36-.93.59-1.62.75-2.13,3.25-10.1,3.27-24.93-1.27-34-7.61-15.28-24.77-8-38.81-23.17-16.2-17.47-6.55-41.35-15.34-44C1585.56,1386.49,1563.74,1412.47,1563.83,1437.81Z"/><path class="cls-69" d="M1576.21,1495c3.36-4.61,9.26-.28,9.29,5.69s-5.75,12.18-11.36,11S1571.69,1501.18,1576.21,1495Z"/><path class="cls-55" d="M1578.93,1485l-7.79,10.14s-8.4,12.41-13.3,5.61c-4-5.56-5-5.43-5.29-5.2,0,0-.06.11-.07.11s.59-2.77,1.18-5.18a45.5,45.5,0,0,0-6.66,14.3c-1.69,6.31-3.49,13.07.07,19.56.21.38,4.13,7.29,11.46,9,0,0,2.88.65,15-1.48,0,0-13.31-9.66-13.51-12-.55-6.24,8.1-9.61,14.52-22.39A51.65,51.65,0,0,0,1578.93,1485Z"/><path class="cls-70" d="M1605.62,2186.67c-14.76-29.39,21.4-68.46-2.22-113.26-20.07-38-56.53-29.53-73.29-64.4-20.24-42.12,23.79-73.6,22.21-137.68-1.89-76.61-67.8-153.3-106.59-146.57-25.1,4.35-28.33,41.79-46,82.79,15.63,34.26,33.89,77.19,50.43,134.84,20.33,70.86,30.5,106.29,27.76,151-3.82,62.28-25.69,98.26-4.45,126.58,13.31,17.72,38.66,20.57,88.83,25.53,45.6,4.52,120.62,11,204.31-26.64,10.59-4.77,18.52-8.34,25-11.86C1660.87,2226.64,1617.32,2210,1605.62,2186.67Z"/><path class="cls-71" d="M1222,1825.8l24.43-10.55c13.76,14.08,31.31,27.76,46.08,23.32,22-6.62,16.5-47.11,43.3-118.25,30.36-80.61,64.81-101.32,82.17-108.82,9.69-4.18,16.38-7,24.42-5,37,9,49.25,105.49,38.87,177.65-5.85,40.66-17.33,120.39-82.72,158.23-9.29,5.37-60.43,35-111,11.66C1244.27,1934.14,1217.55,1883.05,1222,1825.8Z"/><path class="cls-72" d="M1283.91,2480.38l40.6,4.51c18.28-20.26,45.57-55.59,60.15-105.27,27.94-95.15-15.8-157.61,13.53-182,33.83-28.07,100.64,47.77,248.13,69.18,47.47,6.89,152.85,22.19,195.49-34.59,17.29-23,27.22-61.82,13.54-94.74-24.53-59-105.31-51.93-371.44-103.76-102.52-20-118.71-26.5-143.07-14.88C1220.39,2076.37,1270.62,2401.52,1283.91,2480.38Z"/><path class="cls-73" d="M1163.1,2518.66l40.6,4.51c18.28-20.26,45.57-55.59,60.16-105.27,27.94-95.15-15.81-157.61,13.53-182,33.82-28.07,100.64,47.77,248.13,69.18,47.47,6.89,152.85,22.19,195.49-34.59,17.29-23,27.21-61.82,13.53-94.74-24.52-59-105.31-51.93-371.43-103.76-102.52-20-118.72-26.5-143.07-14.88C1099.59,2114.65,1149.81,2439.79,1163.1,2518.66Z"/><ellipse class="cls-40" cx="1626.39" cy="2681.93" rx="224.45" ry="91.61"/><path class="cls-74" d="M1850.85,2671.19c0,47.75-100.5,86.47-224.46,86.47s-224.45-38.72-224.45-86.47,100.49-125.9,224.45-125.9S1850.85,2623.43,1850.85,2671.19Z"/><path class="cls-75" d="M1850.85,2671.19c0-47.76-100.5-125.9-224.46-125.9a304.51,304.51,0,0,0-149.09,39.31c-2.77,5.81-4.07,11.59-3.54,17.08,2.57,26.87,46.4,43.39,71.55,48.84,63.35,13.72,94.29-24.16,146.52-22.72,32.29.89,77,17.12,130.11,85.82C1840.31,2701.08,1850.85,2686.61,1850.85,2671.19Z"/><path class="cls-5" d="M1638.69,2588.66a50.78,50.78,0,0,1-25.21.15,16.23,16.23,0,0,1-12-15.79V2319.93h49.91v252.79A16.52,16.52,0,0,1,1638.69,2588.66Z"/><path class="cls-76" d="M1638.69,2588.66a50.78,50.78,0,0,1-25.21.15,16.23,16.23,0,0,1-12-15.79V2319.93h49.91v252.79A16.52,16.52,0,0,1,1638.69,2588.66Z"/><path class="cls-77" d="M1362.67,2213.41l76.25-48.2c3.17-18,39.11-206.37,185-265.52,59.34-24,123.19-21.2,158.24-19.63,70,3.13,119.85,5.35,143.85,38.72,30.82,42.85-20.87,81.71-10.17,204.28,4.37,50,15.47,72.18,1.64,105.29-16.56,39.66-55,61.65-84.82,74-35.7,20.72-97.85,50.26-179.94,57.46-138.27,12.11-241.49-47.2-277-69.89a45.69,45.69,0,0,1-31-34.31A40.27,40.27,0,0,1,1362.67,2213.41Z"/><path class="cls-78" d="M1397.73,2247.73c2.82-16.95,50-2.9,94.74-36.09,66.79-49.61,32.12-133.66,90.23-214.29,53.32-74,160.66-111.65,194-83.46,44.36,37.53-64.2,177.87,0,268.43,31.19,44,78.71,41.87,79,67.67.39,40.77-117.87,87.77-230.08,85.72C1504.92,2333.49,1393.26,2274.63,1397.73,2247.73Z"/><ellipse class="cls-40" cx="2394.78" cy="2534.53" rx="200.56" ry="81.85"/><path class="cls-79" d="M2595.33,2524.93c0,42.68-89.79,77.27-200.55,77.27s-200.56-34.59-200.56-77.27,89.79-112.49,200.56-112.49S2595.33,2482.26,2595.33,2524.93Z"/><path class="cls-80" d="M2595.33,2524.93c0-42.67-89.79-112.49-200.55-112.49a272.12,272.12,0,0,0-133.22,35.13,29.09,29.09,0,0,0-3.16,15.26c2.3,24,41.46,38.77,63.93,43.64,56.61,12.26,84.25-21.59,130.92-20.3,28.85.8,68.83,15.29,116.26,76.68C2585.92,2551.65,2595.33,2538.72,2595.33,2524.93Z"/><path class="cls-5" d="M2405.76,2451.2a45.57,45.57,0,0,1-22.52.13,14.5,14.5,0,0,1-10.76-14.11V2211.08h44.6V2437A14.77,14.77,0,0,1,2405.76,2451.2Z"/><path class="cls-81" d="M2405.76,2451.2a45.57,45.57,0,0,1-22.52.13,14.5,14.5,0,0,1-10.76-14.11V2211.08h44.6V2437A14.77,14.77,0,0,1,2405.76,2451.2Z"/><path class="cls-82" d="M2159.14,2115.9l68.13-43.07c2.83-16.08,34.94-184.39,165.32-237.24,53-21.49,110.08-18.94,141.39-17.54,62.51,2.79,107.09,4.78,128.54,34.6,27.53,38.28-18.65,73-9.09,182.52,3.9,44.66,13.82,64.49,1.47,94.08-14.8,35.44-49.12,55.09-75.8,66.14-31.89,18.52-87.43,44.92-160.78,51.35-123.54,10.82-215.78-42.18-247.5-62.45a40.85,40.85,0,0,1-27.7-30.66A36,36,0,0,1,2159.14,2115.9Z"/><path class="cls-78" d="M2190.46,2146.57c2.52-15.14,44.73-2.59,84.65-32.25,59.69-44.33,28.71-119.43,80.63-191.47,47.64-66.12,143.55-99.77,173.33-74.58,39.63,33.53-57.37,158.93,0,239.85,27.87,39.31,70.32,37.41,70.54,60.46C2600,2185,2494.29,2227,2394,2225.17,2286.24,2223.2,2186.47,2170.61,2190.46,2146.57Z"/></g></g></g></svg>